/* XPM */
static char *result[] = {
/* columns rows colors chars-per-pixel */
"64 64 249 2 ",
"   c #49170C",
".  c #511B0E",
"X  c #56200D",
"o  c #5C230F",
"O  c #572514",
"+  c #5E2310",
"@  c #61260F",
"#  c #622612",
"$  c #662911",
"%  c #6E2E12",
"&  c #68291D",
"*  c #743418",
"=  c #7D3D23",
"-  c #7D4827",
";  c #873923",
":  c #943A28",
">  c #B23932",
",  c #BC3839",
"<  c #C43A39",
"1  c #CB3C3B",
"2  c #86461E",
"3  c #884A27",
"4  c #934D2E",
"5  c #8C5329",
"6  c #90502F",
"7  c #924F34",
"8  c #985735",
"9  c #AF412E",
"0  c #BA4437",
"q  c #A75C3A",
"w  c #9D6532",
"e  c #AA673C",
"r  c #B66F3D",
"t  c #C74638",
"y  c #CC433C",
"u  c #CC4D3B",
"i  c #D04C3B",
"p  c #CC543B",
"a  c #CA583A",
"s  c #D2593B",
"d  c #D4653C",
"f  c #CC713F",
"g  c #D4773C",
"h  c #AF5842",
"j  c #B86743",
"k  c #B86843",
"l  c #B1694D",
"z  c #B97945",
"x  c #CC4542",
"c  c #CC4B45",
"v  c #C94848",
"b  c #D14C44",
"n  c #CA5647",
"m  c #CD5445",
"M  c #CC5A46",
"N  c #D25542",
"B  c #D35B42",
"V  c #D1544C",
"C  c #D35C4C",
"Z  c #D35D54",
"A  c #CB6548",
"S  c #D46443",
"D  c #D66B44",
"F  c #D4634B",
"G  c #D76B4B",
"H  c #C87746",
"J  c #D67645",
"K  c #D97C43",
"L  c #D4754B",
"P  c #DB744C",
"I  c #DA7D4C",
"U  c #D36254",
"Y  c #D56B57",
"T  c #CA7459",
"R  c #D77B57",
"E  c #E07C4E",
"W  c #E17E53",
"Q  c #CD726D",
"!  c #D97A64",
"~  c #B4803C",
"^  c #A7B94F",
"/  c #AEA05A",
"(  c #B7A350",
")  c #A5BA56",
"_  c #BCB554",
"`  c #99B568",
"'  c #AFB868",
"]  c #CB844B",
"[  c #C9864B",
"{  c #DB8244",
"}  c #DB834C",
"|  c #D48849",
" . c #DC8A4B",
".. c #CA934C",
"X. c #DB974A",
"o. c #DC934C",
"O. c #CE8556",
"+. c #D98855",
"@. c #DB8C54",
"#. c #DA825C",
"$. c #DC8C5B",
"%. c #D89754",
"&. c #DB9A54",
"*. c #DD955C",
"=. c #DC9D5B",
"-. c #E1854A",
";. c #E2924E",
":. c #E29C4C",
">. c #E48352",
",. c #E88C56",
"<. c #E79456",
"1. c #E29C54",
"2. c #EC935B",
"3. c #E39A5B",
"4. c #EB9D5B",
"5. c #F0955B",
"6. c #F39C5D",
"7. c #DCA35B",
"8. c #D9A858",
"9. c #C6BA54",
"0. c #D6B152",
"q. c #E3A44D",
"w. c #E4AB4F",
"e. c #E4BF4D",
"r. c #E4A553",
"t. c #E5AB52",
"y. c #EAA856",
"u. c #E3A45A",
"i. c #EDA35D",
"p. c #E5AB5C",
"a. c #E9AD5B",
"s. c #F4A35D",
"d. c #F9A55E",
"f. c #F2AB5D",
"g. c #F9AA5D",
"h. c #EAB454",
"j. c #ECBB56",
"k. c #E5B259",
"l. c #E9B35C",
"z. c #EBBC5C",
"x. c #F6B75C",
"c. c #CD8463",
"v. c #D98665",
"b. c #DF8D6B",
"n. c #DA9465",
"m. c #DA8475",
"M. c #DF9575",
"N. c #E08D68",
"B. c #E69A63",
"V. c #E19677",
"C. c #DBA765",
"Z. c #D8B563",
"A. c #E3A562",
"S. c #EDA362",
"D. c #E3AC63",
"F. c #EBAE64",
"G. c #F4A461",
"H. c #FAA661",
"J. c #F5AB61",
"K. c #FFAB62",
"L. c #F3A468",
"P. c #FDAD6A",
"I. c #E5B265",
"U. c #EAB362",
"Y. c #ECBC63",
"T. c #E7B468",
"R. c #EBBB6A",
"E. c #F5B363",
"W. c #FBB363",
"Q. c #F6BA66",
"!. c #F9BB62",
"~. c #E6A773",
"^. c #F7AD78",
"/. c #EBBA75",
"(. c #FBB473",
"). c #FFB47B",
"_. c #AAC65B",
"`. c #B5CA58",
"'. c #B9D15C",
"]. c #A7C665",
"[. c #ACCB63",
"{. c #B4CC61",
"}. c #B6D064",
"|. c #BCD367",
" X c #B8CD78",
".X c #B9D276",
"XX c #C9C75A",
"oX c #D6CB58",
"OX c #C7D758",
"+X c #D5D95E",
"@X c #ECC34F",
"#X c #EBC759",
"$X c #F2CA5C",
"%X c #EBD75A",
"&X c #F1D559",
"*X c #EFE45E",
"=X c #F3E25E",
"-X c #C9C76C",
";X c #D4C565",
":X c #C4D563",
">X c #CAD865",
",X c #C1D66B",
"<X c #D6D866",
"1X c #EDC465",
"2X c #ECC967",
"3X c #EDC36C",
"4X c #F5C466",
"5X c #F1CB64",
"6X c #F1CC6C",
"7X c #EAD866",
"8X c #F2D264",
"9X c #F2D66B",
"0X c #EDC774",
"qX c #F1CB74",
"wX c #E9D777",
"eX c #F2D976",
"rX c #D9E064",
"tX c #E9E569",
"yX c #EAE56A",
"uX c #F3E47A",
"iX c #DE988C",
"pX c #DC9896",
"aX c #D1AC9D",
"sX c #DCAA9A",
"dX c #E7A688",
"fX c #E5A58B",
"gX c #FAB787",
"hX c #E8AD92",
"jX c #E4A698",
"kX c #EAB299",
"lX c #E8B898",
"zX c #FABD96",
"xX c #ECBBA5",
"cX c #D3D38F",
"vX c #CDDB97",
"bX c #F2CD8B",
"nX c #EAC79B",
"mX c #FAC497",
"MX c #FFC29A",
"NX c #F3D899",
"BX c #F4E886",
"VX c #F3E49B",
"CX c #ECC6A2",
"ZX c #FFC6A2",
"AX c #FBC8A7",
"SX c #FFC9A6",
"DX c #EFDCA1",
"FX c #F4D8A2",
"GX c #F5E2A7",
/* pixels */
"K.K.K.K.K.K.K.2.g.K.K.K.K.K.K.K.g.K.K.K.K.K.K.K.K.K.K.K.K.K.K.K.K.K.K.K.K.K.K.K.K.K.K.K.K.K.K.K.K.K.E.W.H.H.K.K.K.K.K.K.g.G.K.K.",
"K.K.K.K.K.K.6.B H.K.K.K.K.K.K.K.g.6.K.K.K.K.K.K.K.K.K.K.K.K.K.K.K.K.K.g.K.K.K.K.K.K.K.K.K.K.d.$X%X+X>X:X`._ p.K.K.K.K.B.*.K.K.K.",
"K.K.K.K.K.K.E S E d.H.K.g.6.{ 6.,.<.K.K.K.K.K.K.K.K.g.K.K.K.K.K.H.4.4.@.4.K.K.K.K.K.K.K.K.K.oXOXrX>X>X>X) ^ ^ ( K.H.B.L.K.K.K.K.",
"K.K.K.K.K.6.s J I { K.K.6.} K g { s.K.K.K.K.K.K.K.K.*.i.K.K.K.;.| &.o. .s.K.K.K.K.K.K.K.g.oX+XOXOX>X.X|.) ) ) ^ %./ H.K.K.K.K.K.",
"K.K.K.H.y s P J +.;.K.H.,.+.K g -.g.K.K.K.K.K.K.K.K.K.4.G.K.o.J  .o.r.1.o.o.H G.K.K.K.g.9._ `.'.'.>X.X.X].) _.) ~.S.U.W.K.K.K.K.",
"K.K.H.H.i G P J } } >.I $.{ g g { 6.K.K.K.K.K.K.K.K.K.K.B.@.f | o.1.:.r.;.X.H 4.K.K.K.7.( _ 9.`.|..X.X,X>X`.^ C.g.-X` Z.K.K.K.K.",
"K.d.K.5.B D P g K } } } +.J K g { d.K.K.K.K.K.K.K.K.K.3.z 8 r |  .o.1.r.l.k.r. .g.K.K.K.g.q.&._ '.,X>X<X+X#XU.H.Q.|._.[.Z.K.K.K.",
"K.H.i i C i S s I I J } I I { K ;.K.K.K.K.K.K.K.K.K.i.] | ] H | p.a.r.r.a.k.u.@.%.<.K.K.g.g.K.W.!.!.E.E.g.R.C.K.7XrX'.}.}.U.K.K.",
"K.K.P N C p s s D I L J H J { g K.K.K.K.K.K.K.K.K.).CXlXlXlXCXlXCXCXFXFXFXnX/.i.1.1.4.K.K.K.K.K.P.E.9X7X X` ' K.<XtX'.'.'.,XK.K.",
"K.K.,.y s s u u S D d d J K { -.g.g.K.K.K.K.(.ZXZXmXA.Y.F.=.R.1Xu.k.4X6X1Xz.lXnXCX^.K.K.K.K.K.K.4XtXrX{._.` ` J.,X:X}.[.`.|.E.K.",
"K.K.H.i i C N t s d p A } { { { 4.6.G.P.).ZXMXK.K.A.3XqXT.C.Y.3X7.7.#X2X6XQ.K.G.K.MXSX).K.K.K.E.<X|.{.].]._.` Z.,X|.}.[.}.:XY.K.",
"K.K.K.>.u u s t s s S D d s d K K  .>.AXMXK.K.K.i.=.eXeXT.D.3X/.R.3X7X8X1XU.K.K.K.K.g.MXSXP.K.<X.X[.[.].].`.' 9.;X<X'.'.}.|.Q.K.",
"K.K.K.K.D t t t p M s s a t s d g V.kX@.} s.K.K.u.U.uX6X/.D.R.qX0XuX1X2X2XU.g.K.K.K.K.K.P.SXbX|.}.].[.{.'.'._.Z.2XtX'.'.OX>Xx.W.",
"K.K.K.K.K.2.0 > t u t p d S d d fXdXK <.K.K.K.K.K.K.4XR.D.A.I.3XqXwXI.7.p.D.i.K.K.K.K.K.K.K.bXvX:X{.].]._._._.D.W.yX+X|.}.|.W.K.",
"K.K.K.K.K.H.z > t i C G S B D jXM.D ,.K.K.K.K.K.K.P./.dXfXkXkXkXlXkXkXhXfXdX~.S.K.K.K.K.K.K.Z.cXvX`.{._._.`._.K.K.E.7X>X:X:XK.K.",
"K.K.K.K.H.@.K.a t u p F P S jXv.J D d.K.K.K.K.^.kXkXkXkXkXkXkXkXkXkXkXkXlXkXlXhXdXP.K.K.K.K.0.-X-XvX`.'.`.`.F.K.K.K.1X;X<X8XK.K.",
"K.K.K.K.O.K.K.s.S y S B G iXdXd.K.K.K.K.K.).hXkXkXkXkXkXkXkXkXkXkXkXkXkXkXkXkXkXhXfXdX^.K.K.u.;X9.cXvX'.{.Z.g.K.K.K.K.Z.7XQ.K.K.",
"K.K.K.K.4.K.K.K.K.6.P s m.iXK.K.K.K.G.L.hXkXkXkXkXkXkXkXkXkXkXkXkXkXkXkXkXkXkXkXkXhXdXfXdXK.S.-X-X) vXcXl.K.K.K.K.K.K.K./.K.K.K.",
"K.K.K.K.K.K.K.K.K.K.K.H.xXG d.K.K.K.P.hXkXkXkXkXkXkXkXkXkXkXkXkXkXkXkXkXkXkXkXkXkXkXfXfXdXdXH._ ' 9.e.AXP.K.K.K.K.K.K.K.K.K.K.K.",
"K.K.K.K.K.K.K.K.K.K.K.ZXP.K.H.K.K.6.M.fXkXkXkXkXkXkXkXkXkXkXkXkXkXkXkXkXkXhXfXV.V.b.v.#.#.#.N.=.g.K.K.K.SXK.K.K.K.K.K.K.K.K.K.K.",
"K.K.K.K.K.K.g.y.K.K.).MXK.K.K.K.d.5 8 c.V.fXjXkXkXkXkXkXkXkXkXkXkXhXdXV.b.b.b.b.v.v.v.T R #.#.$.K.K.K.K.mXqX$X4X!.K.K.K.K.K.K.K.",
"K.K.K.K.K.K.K.q.1.4.SXK.K.K.K.g.e % * * h O.b.M.V.dXfXhXhXhXdXiXV.b.N.T l 7 = % % % % $ @ @ o @ ] K.%X&X$XFX%X7X%X1XK.K.K.K.K.K.",
"K.K.K.K.K.H.x.w.:.u.MXK.K.K.g.;.% % % % % % = h l v.b.b.N.N.b.b.M.T 8 * % % % % % % % % @ @ @ @ * g.x.#X$XNX7X7X7XXXK.K.K.K.K.K.",
"K.K.K.K.K.K.#Xh.X.nXl.K.K.W.j.5 % % % % % % % $ % % % = 7 7 7 4 % % % % % % % % % % % % @ @ @ @ $ ] 4X&X@Xe.DX7X<XXXJ.K.K.K.K.K.",
"K.K.K.K.K.!.5Xj.q.nXw.g.K.g...% * e 4 % % % % % % % % % % % % % % % % % % % % % % % % % $ @ @ @ @ 5 W.=X*X%XnXXXoX9.K.K.K.K.K.K.",
"K.K.K.K.K.K.9Xh./.nXY.Y.g.f.w % j k 4 % % % % % % % % % % % % % % % % % % % % % % % % % $ @ @ @ @ @ s.$X*XtXBXwX0._ K.K.K.K.K.K.",
"K.K.K.K.K.K.x.h.FXk.3XqX0Xk.% 3 k j % % % % % % % % % % % % % % % % % % % % % % % % % % $ @ @ @ @ @ | 4X*X%X%XVX@Xa.u.K.K.K.K.K.",
"K.K.K.K.K.K.W.#XFX0.3X3XeX&.% q k 7 % % % % % % % % % % % % % % % % % % % % % % % % % % $ @ @ @ @ @ r g.$X&X&XGXx.g.G.K.K.K.K.K.",
"J.K.K.a.f.K.x.h.NX5XI.8.6X~ % r k * % % % % % % % % % % % % % % % % % % % % % % % % % % @ @ @ @ @ @ 8 g.K.W.W.MXK.K.K.K.K.K.K.K.",
"K.r.:.:.q.q.q.j.NXz.q.w.h.w 3 k e % % % % % % % % % % % % % % * % % % % % % % % % % % % @ @ @ @ @ @ 5 K.K.K.K.MXW.!.4Xx.Q.W.K.K.",
"K.s.q.q.q.q.t.h.nXj.k.k.:.5 2 k q % % % % % % % % % % % % % % % % % % % % * % % % % % % @ @ @ @ @ @ - K.K.K.W.FX&X=X*X*X&X&Xj.!.",
"K.K.y.j.h.a.t.X.CXj.#Xq.q.2 ; k 4 % % % % % % % % % % % % % % % % % % % % % % % % % % % @ @ @ @ @ o 3 K.K.K.W.VX%X%X%X%X@X$X5XW.",
"K.K.l.j.h.h.t.r.nXw.t.X.X.2 % k 4 % % % % % % % % % % % % % % % % % % % % % % % % % % $ @ @ @ @ @ @ 8 g.K.K.$XDX%XoXe.%X@X#Xx.K.",
"K.K.J.y.r.t.j.j.nXX.{ X.z 5 % q 8 % % % % % % % % % % % % % % % % % % % % % % % % % % $ @ @ @ @ @ @ H g.K.K.g.FX0.oX7X7X%Xx.K.K.",
"K.K.K.K.K.l.j.4XFXT.| ~ e - % * q % % % % % % % % % % % % % % % % % % % % % % % % % % @ @ @ @ @ @ o y.K.K.K.G.cXXXoX7X7X&XK.K.K.",
"K.K.K.K.K.4Xz.z.nX&.] e z =.3 % 4 % % % % % % % % % % % % % % % % % % % % * % % % % $ @ @ @ @ @ @ ; A d.K.L.G.CXXXXX%X%XW.K.K.K.",
"K.K.K.K.K.k.r.r.lX| ] &.K.3.@.% % * % % % % % % % % % % % % % % % % % % % % % % % % @ @ @ @ @ @ $ 9 h ] H.K.K.ZXK.U.Y.K.K.K.K.K.",
"K.K.K.K.K.P.P.K.ZXK.K.K.K.K.*.e % % % % % % % % % % % % % % % % % % % % % % % % % $ @ @ @ @ @ @ 9 P K.K.K.K.K.ZXK.K.K.K.K.K.K.K.",
"K.K.K.K.K.K.K.K.(.zXK.K.K.K.n.K.4 % % % % % # % % % % % + % % % % % % % o % % % % $ o o @ @ # : >.K.K.K.K.K.zX).K.K.K.K.K.K.K.K.",
"K.K.K.K.K.K.K.K.L.ZXK.K.K.K.S.K.d.3 % % % % % . $ % % % $ . % % % % % # o % % % $ . . @ @ @ ; P K.K.K.K.K.*.aX3.J.K.K.K.K.K.K.K.",
"K.K.K.K.K.K.K.K.4.aXT 3.K.K.K.K.g.s.3 % % % % % . $ % % % . % % % % % . % % % $ . o @ @ + ; 6.K.K.K.K.K.O.O.sX*.K.K.K.K.K.K.K.K.",
"K.K.K.K.K.K.K.K.S.c.sXO.n.H.K.K.K.g.s.6 # % % % % . $ % % O + % % % o o % % $ . o @ @ o w K.K.K.K.K.K.S.$.sXM.K.K.K.K.K.K.K.K.K.",
"K.K.K.K.K.K.K.K.K.*.xXv.*.n.B.H.K.K.K.g.e . # % % $ . # % + . % % $ . % % + . o o o . r K.K.K.K.K.K.K.S.*.xXG.K.K.K.K.K.K.K.K.K.",
"K.K.K.K.K.g.K.K.K.H./.zXS.L.H.K.K.K.K.K.K.] O X # % % . @ %   # % . . # . # @ O . O | W.K.K.K.K.K.K.g.B.lXdXK.K.K.K.K.K.K.K.K.K.",
"K.K.K.K.K.=.K.K.K.K.K.AXP.K.K.K.K.K.K.K.K.K.<.-     X . . .   . . . . . . X     & A K.K.K.K.K.K.K.K.K.B.AXK.K.K.K.K.K.K.K.K.K.K.",
"K.K.K.K.u.I.G.K.K.K.K.K.AXK.K.K.J.f.E.a.i.K.K.g.z . . . . . . . . . .         : p M ,.K.K.K.K.K.K.K.K.AXP.K.K.K.K.K.B.K.K.K.K.K.",
"K.K.K.i.l.A.F.K.K.K.K.K.gXNX4X&X5X3Xz.I.A.K.K.K.K.<.- . . . . . . . .     # > t p N >.K.K.K.K.R ,.P.zXgXK.K.K.K.K.H.A W.K.K.K.K.",
"K.K.K.l.U.7.U.i.K.K.K.W.3XVXBX9X8XY.p.Y.g.K.K.K.K.K.K.] O   . . .       : t u p u N E K.K.K.K.5.0 Q kX>.K.K.K.K.I L , H.K.K.K.K.",
"K.K.i.6Xl.k.k.r.K.K.K.Y.9X8XGXbX5X#XU.p.g.K.K.K.K.K.K.K.s.e . . .   5 <.P i u u p m >.K.K.K.K.I Q pXb x >.K.K.K.n < , A K.K.K.K.",
"K.K.I.eXY.9XuXz.J.K.U.1X8X8X9XDXbXj.D.I.W.K.K.K.K.G.2.K.K.K.3.8 - @.K.K.g.>.P i i t } K.K.K.K.Q pXV U ! V >.K.H.c c Z V n ,.K.K.",
"K.K.I.uX2X9XBXeXg.K.k.1X1X5X5X5XNXNXqXqXK.K.K.K.K.K.h c 5.H.K.K.K.K.K.K.g.K.K.6.,.a L K.K.K.MXkXt F Y ! R S F F M C R Y x H.K.K.",
"K.P.R.uXU.$XuXeXU.K.p.A.l.5X$X$X8XBXGX(.K.K.K.K.K.K.y 1 1 C 6.K.K.K.K.K.K.K.K.K.K.d.3.K.P.SXgXK.E M L R #.I @.B.$.#.M.U x K.K.K.",
"K.K.T.0XI.l.qXqXU.i.p.7.8.#X5X6XqX6X4XAXMXK.K.K.K.K.y 1 1 y Z P.K.K.K.K.K.K.K.K.K.K.K.zXSXK.K.H.H.N P I O.;.:.D.*.$.N.C Z K.K.K.",
"K.K.F.3Xu.D./.R.G.3.7.8.I.I.5X6XqX0XK.K.).SXMXK.K.2.y 1 1 x v ,.K.K.K.K.H.H.K.K.K.mXSX).K.K.2.K.K.M P I D  .;.:. .@.b.V c >.+.<.",
"K.K.i.=.=.C.D.a.K.O.&.D.C.I.R./.R.K.K.K.K.K.(.ZXZXzXy x 1 1 V Z K.K.K.K.5.,.hXkXxX(.K.K.K.K.Z n P B P L H f g { J #.R V < , x G.",
"K.K.K.o.=.A.U.y.G.=.<.C.7.a.F.s.K.K.K.K.K.K.K.K.K.).pXpXpXpXsXjXAXAXMXjXpXpXQ , K.K.K.+.A n v V C Y #.+.} g g K H #.! V , , 2.K.",
"K.K.K.i.&.7.u.s.i.K.K.s.K.Q.W.K.K.K.K.K.K.K.K.K.K.K.W b V n c F P.H.F c 1 < 1 G K.K.K.K.L , v Z Y ! #.$.} { g K J n.v.v , G K.K.",
"K.K.K.K.4.[ J.B.K.i.%.1.r.8X5X6X3XG.K.K.K.K.K.K.K.K.H.F V m M R K.W Z t 1 1 1 5.K.K.K.K.H.+.v Z ! v.$.$.1.X.X.K L R Z v Z G.K.K.",
"K.K.K.K.K.4.3.K.] %.&.X.i.p.Y.j.a.r.a.i.K.K.K.K.K.K.K.H.,.U U 4.K.F V c c b N H.K.K.K.K.K.K.M V U b.~.A. .o.} L G n , A H.K.K.K.",
"K.K.K.K.K.n.G.z z [ ..%.I.R.R.z.Z.%.X.&.&.K.K.K.K.K.K.K.K.K.L.H.P.U m V b b 5.K.K.K.K.K.K.K.G v U Y v.v.B.*.R A > M <.K.K.K.K.K.",
"K.K.K.K.G.G.K.G.] ..&.7.a.p.t.y.r.r.&.&.3.4.K.K.K.K.K.K.K.K.K.G.H.R V M V ,.K.K.K.K.K.K.K.K.s.2.R Z Z Y R R A b R G.K.K.K.K.K.K.",
"K.K.K.K.3.K.K.K.K.*.%...C.U.F.p.r.&.=.K.K.K.K.K.K.K.K.K.K.K.K.H.K.S.B.5.P.K.K.K.K.K.K.K.K.K.K.K.P.v v v V v v R K.@.K.K.K.K.K.K.",
"K.K.K.3.K.K.K.K.K.K.G.3.3.p.i.i.s.g.K.K.K.K.K.K.K.K.K.K.K.K.K.K.K.L.K.K.K.K.K.K.K.K.K.K.K.K.K.K.2.x < M A >.s.K.K.g.$.K.K.K.K.K.",
"K.K.K.H.K.K.K.K.K.K.K.K.K.K.K.K.K.K.K.K.K.K.K.K.K.K.K.K.K.K.K.K.K.H.K.K.K.K.K.K.K.K.K.K.K.K.K.K.6.H.P.K.K.K.K.K.K.K.i.G.K.K.K.K."
};
