/* XPM */
static char *result[] = {
/* columns rows colors chars-per-pixel */
"64 64 250 2 ",
"   c #170B05",
".  c #291409",
"X  c #352212",
"o  c #482D1A",
"O  c #522C1A",
"+  c #55321C",
"@  c #622A1D",
"#  c #463528",
"$  c #593A22",
"%  c #683A24",
"&  c #7F3827",
"*  c #564224",
"=  c #554538",
"-  c #664428",
";  c #744C2B",
":  c #7A4C2E",
">  c #7A522C",
",  c #765036",
"<  c #7E6036",
"1  c #755B44",
"2  c #AA3A34",
"3  c #BB3737",
"4  c #C13939",
"5  c #84542C",
"6  c #91552B",
"7  c #925B2F",
"8  c #9D4E33",
"9  c #835533",
"0  c #895836",
"q  c #8C5B34",
"w  c #945D31",
"e  c #975E38",
"r  c #BB453A",
"t  c #806231",
"y  c #946435",
"u  c #9B6136",
"i  c #94623C",
"p  c #9D643B",
"a  c #9C6A3C",
"s  c #A2653C",
"d  c #A56B3E",
"f  c #AB6D3E",
"g  c #BB713D",
"h  c #C74636",
"j  c #C6433D",
"k  c #C44B3C",
"l  c #CC4C3B",
"z  c #D14E3B",
"x  c #CA553A",
"c  c #CB533C",
"v  c #D1543D",
"b  c #D25A3C",
"n  c #CA6D3D",
"m  c #D4633D",
"M  c #D4693A",
"N  c #D6773D",
"B  c #AE5143",
"V  c #B55441",
"C  c #9A6842",
"Z  c #936F55",
"A  c #8B725D",
"S  c #A36640",
"D  c #A46C42",
"F  c #AD6C43",
"G  c #B06F46",
"H  c #B96A47",
"J  c #AC7145",
"K  c #A57548",
"L  c #AE7449",
"P  c #AC7A4A",
"I  c #B17047",
"U  c #B1754A",
"Y  c #B07D4E",
"T  c #BA794A",
"R  c #B36956",
"E  c #A67A56",
"W  c #B87A51",
"Q  c #C94C43",
"!  c #C94B48",
"~  c #D04E40",
"^  c #CC5442",
"/  c #CA5846",
"(  c #CC5B44",
")  c #D15543",
"_  c #D25B44",
"`  c #D1554B",
"'  c #D35C4B",
"]  c #D25D50",
"[  c #CB6747",
"{  c #D46344",
"}  c #D66C44",
"|  c #D4634A",
" . c #D46A4C",
".. c #D96A4A",
"X. c #C67A46",
"o. c #D87444",
"O. c #D57947",
"+. c #DA7E43",
"@. c #D4734B",
"#. c #DA744D",
"$. c #DA7C4D",
"%. c #D46756",
"&. c #C67D52",
"*. c #D67657",
"=. c #D97453",
"-. c #DE7A52",
";. c #E2784C",
":. c #D77962",
">. c #CF823F",
",. c #B3844B",
"<. c #B58353",
"1. c #B98757",
"2. c #B2805D",
"3. c #BA8858",
"4. c #9EB24F",
"5. c #ADA94C",
"6. c #A5B74E",
"7. c #A3BB56",
"8. c #BAB954",
"9. c #99B56A",
"0. c #BDB766",
"q. c #CA8549",
"w. c #DB8245",
"e. c #D78946",
"r. c #DC834B",
"t. c #DC8C4B",
"y. c #D99349",
"u. c #DC934C",
"i. c #DD9A4B",
"p. c #CD8757",
"a. c #DC8453",
"s. c #D48D54",
"d. c #DC8C53",
"f. c #D68658",
"g. c #DC8C5B",
"h. c #CB9853",
"j. c #DB9453",
"k. c #D79856",
"l. c #DD935B",
"z. c #DD9C5B",
"x. c #E38A4D",
"c. c #E19A4A",
"v. c #E48A54",
"b. c #E78856",
"n. c #E59556",
"m. c #E39A55",
"M. c #EC945B",
"N. c #E49C5B",
"B. c #EC9D5C",
"V. c #F19559",
"C. c #F39C5C",
"Z. c #CEAC51",
"A. c #DAA757",
"S. c #DCA35A",
"D. c #C7BA57",
"F. c #D8B55A",
"G. c #E3A34D",
"H. c #E5AA4D",
"J. c #E7B64E",
"K. c #E4A454",
"L. c #E5AB53",
"P. c #EAA855",
"I. c #E3A55C",
"U. c #EBA25C",
"Y. c #E5AB5B",
"T. c #E9AC5B",
"R. c #F3A45D",
"E. c #F9A55E",
"W. c #F4AA5C",
"Q. c #FAAB5F",
"!. c #E5B257",
"~. c #EAB455",
"^. c #ECBB56",
"/. c #EAB45C",
"(. c #ECBA5B",
"). c #F5B45D",
"_. c #F7BB5D",
"`. c #DC8B66",
"'. c #CC9261",
"]. c #DD9466",
"[. c #E59C63",
"{. c #F49F61",
"}. c #D6A864",
"|. c #D6B666",
" X c #E3A765",
".X c #ECA262",
"XX c #E4AB64",
"oX c #EBAC62",
"OX c #F4A462",
"+X c #FAA661",
"@X c #F5AB62",
"#X c #FFAB62",
"$X c #FDAD69",
"%X c #E6B466",
"&X c #EAB564",
"*X c #EABB64",
"=X c #EBBB6C",
"-X c #F4B363",
";X c #FCB363",
":X c #F3BB66",
">X c #FABA64",
",X c #E2A970",
"<X c #ACC75C",
"1X c #B6C757",
"2X c #B3CD5C",
"3X c #B9D05A",
"4X c #BBD25C",
"5X c #A5C463",
"6X c #A7C465",
"7X c #ACCB63",
"8X c #B3CE63",
"9X c #B8CD66",
"0X c #BBD266",
"qX c #BFCB71",
"wX c #B8D274",
"eX c #DDC04F",
"rX c #C8C457",
"tX c #D8C557",
"yX c #C7D75C",
"uX c #D8D85B",
"iX c #EEC54D",
"pX c #E8C955",
"aX c #EDC35D",
"sX c #F2CA5B",
"dX c #E9D75A",
"fX c #ECD35D",
"gX c #F1D759",
"hX c #ECE25D",
"jX c #F1E25B",
"kX c #C9CA65",
"lX c #D4C865",
"zX c #C2D564",
"xX c #C8D767",
"cX c #D9D966",
"vX c #C5D871",
"bX c #EBC866",
"nX c #EDC46B",
"mX c #F4C663",
"MX c #F1CC6A",
"NX c #E9DA67",
"BX c #F1D467",
"VX c #EEC572",
"CX c #F1CD73",
"ZX c #EFD775",
"AX c #F2D775",
"SX c #DCE370",
"DX c #E6E56A",
"FX c #F2E461",
"GX c #F4E57C",
"HX c #F2EC84",
/* pixels */
"#X#X#X#X#X#X#XC.#X#X#X#X#X#X#X#X#X#X#X#X#X#X#X#X#X#X#X#X#X#X#X#X#X#X#X#X#X#X#X#X#X#X#X#X#X#X#X#X#X#X#X#X#X#X#X#X#X#X#X#X#X#X#X#X",
"#X#X#X#X#X#XE.{ Q.#X#X#X#X#X#X#X#XE.#X#X#X#X#X#X#X#X#X#X#X#X#X#X#X#X#X#X#X#X#X#X#X#X#X#X#X#XQ.Q.sXuXuXxXrX!.+X#X#X#X#XOXs.@X#X#X",
"#X#X#X#X#X#Xb.m b.#X#X#X#XE.v.#XC.x.#X#X#X#X#X#X#X#X#X#X#X#XQ.Q.#XR.R.m.B.#X#X#X#X#X#X#X#X$XaXuXuXyXvXzX7.7.6.Z.#X#XOXN.#X#X#X#X",
"#X#X#X#X#XE.b } o.w.+X#XE.w.+.N +.R.#X#X#X#X#X#X#X#Xp.Q.#X#X#XB.t.j.t.e.@X#X#X#X#X#X#X#X#XtXuXyXyXxXvX0X7.7.4.4.}.'..X#X#X#X#X#X",
"#X#X#X+X{ { @.o.r.v.#X#Xv.a.+.N x.E.Q.#X#X#X#X#X#X@X#Xl.+X#Xn.w.e.t.m.i.t.m.d.OX#X#X#X+XD.rX1X3XyXxXwXwX5X4.7.4.,XoX@X#X#X#X#X#X",
"#X#X#X+Xz ..#.o.r.r.M.r.g.r.N N >.E.#X#X#X#X#X#X#X#X#XQ.N.U.X.O.n.c.K.K.c.d.X.R.#X#X#XZ.5.8.D.1XzXwXwXvXzX1X4.|.+X|.9./.#X#X#X#X",
"#X#X#XC.) ..#.N $.t.+.a.d.O.N N w.R.#X#X#X#X#X#X#X#X#XR.X.6 H q.y.j.j.K.T.L.u.d.Q.#XQ.Q.W.h.h.1X0XwXvXcXuXcX%XOX>X0X5X5X&X#X#X#X",
"#X+Xb ) _ v { m $.r.O.a.a.O.w.+.x.#X#X#X#X#X#X#X#X#XR.p.q.X.X.e.K.K.K.K.L./.K.s.j.R.#XQ.Q.Q.#XW.sXbXaX(.>X-XN.#XbXcX4X8X8X-X#X#X",
"#X#X..~ { z b b } $.} w.n O.w.+.E.#X#X#X#X#X#X#X#X#XN.k.N.j.j.u.T.T.*X*X(.(.T.K.j.z.m.#X#X#X#X#X#X#XmXBXqX9.0.+XcXDX4X3X4XxX#X#X",
"#X+Xb.l ) b h x { } [ M O.O.w.w.#X#X#X#X#X#X#X#X#X@XS.&XXXS.&X*XY.T.mXBXbX/.I.T.U.R.Q.#X#X#X#X#X>XDXSX4X8X9.9.@XxXxX0X7X2X0X;X#X",
"#X#X+Xl l | v h m m x m $.+.w.w.E.#X$X#X#X#X#X#X#XoXnXVX%Xz.=XnXS.A.*XBXmX:X#XU.+X#X#X#X#X#X#X$XcXxX0X5X5X9.9.XX0X0X8X7X4XzX&X#X",
"#X#X+X;.l ^ b h b x { @.} m N w.N r.r.#X#X#X#X#X@Xl.AXCX%X%X=X=X%X*XBXbXnX&X#X#X#X#X#X#X#X#X#XcXwX8X7X5X5X1X7.|.lXxX0X2X0X0X:X#X",
"#X#X#X+Xv h k h l b _ b b x x M N r.+.x.x.B.#X#XU.&XGXBX=X X=XCXVXGXbXMXMX%XQ.#X#X#X#X#X#X#X-XxX8X7X7X7X2X3X<X|.bXDX4X4X4XxX_.#X",
"#X#X#X#X#X;.3 3 k l k x x b b M N w.w.x.E.#X#XE.@X#XMX=X%XXX%XnXZXZX%XS.*X*XU.#X#X#X#X#X#X#X%X9XzX8X6X7X2X<X<XA.;XDXyX4X0XzX>X#X",
"#X#X#X#X#X#XG 3 h v ' { m b N #.o.o.x.#X#X#X#X#X#X#X-XI.k.].XX/.VX=XI.S.q.K.N.R.#X#X#X#X#X#XlXyXrX1X8X7X7.2X<X#X#XmXSXyXyX0X#X#X",
"#X#X#X#X#Xs.Q.r h h ) ..#.} { { } } C.#X#X#X#X#X#X#XXXz.k.j.U.K.@XoXk.s.j.d.m.N.#X+X#X#X#X#XF.lXD.3X<X3X2X<XXX#X#X#XbXlXcXNX#X#X",
"#X#X#X#Xs.+X#XC.l z { _ } { -.C.+X+X#X#X#X#X#X#X#X#Xs.k.N.z.I.U.#X#XB.d.q.q.e.d.#X#X#X#X#X#XS.lX8.8.2XyX4XD.#X#X#X#X@X|.NX:X#X#X",
"#X#X#X#Xl.#X#X#XE.b.v _ { { #X#X#X+XOX+X#X#X#X#X#X#XB.B.k.s. X@X#X#X#Xn.l.R.M.X.OX#X#X#X#X#XT.kXrX<X2X9X|.+X#X#X#X#X#X$X=X$X#X#X",
"#X#X#X#X#X#X#X#X#X#X#XV.;.{ +X#X#X#X+X`.[.{.+X#X#X#X#X#XN.j.OX#X#X#X#X#X#X#X#XOXU.#X#X#X#X#X@X0.0.8.tX;X#X#X#X#X#X#X#X#X$X#X#X#X",
"#X#X#X#X#X#X#X#X#X#X#X#X#X+XOX#X#X#X#X.X].f.p.n.#X#X#X#X+Xs.#X#X#X#X#X#X#X#X#X#X#X#X+XC.C.#X$Xh.Y.#X#X#X#X#X#X#X#X#X#X#X;X#X#X#X",
"#X#X#X#X#X#XE.W.Q.Q.#X#X#X#X#X#X#X#X#X#X].f.p.&.&..X#X#X#X[.#X#X#X#X#X#X#X#X#X#XM.a.V B #X#X#X#X#X#X#X#X#X$X>X>X;X#X#X#X#X#X#X#X",
"#X#X#X#X#X#XQ.G.U.W.#X#X#X#X#XQ.#X#X#X#X+Xl.p.p.s.#X#X#X#X+X#X#X#X#X#X#X#XC.b.{ ) c B G #X#X#X#X+X#XsXsXiXfXgXgXBX/.#X#X#X#X#X#X",
"#X#X#X#X#X#X-XH.i.i.#X#X#X#XQ.Q.OX#X#X#X#X#X+X+X#X#X#X#X#X#X#X#X#X#X#X#XC...' ' _ x r H #X#X#X#X#X#XiXfXsXgXdXNXNXD.#X#X#X#X#X#X",
"#X#X#X#X#X#X(.J.y.G.W.#X#X;X).).L.$X#X#X#X#XB.g.+X#X#X#X#X#X#X#X#X#X#XR.| { _ ' ^ _ ( B #X#X#X#X#X#XmXsXJ.eXpXNXNXrX-X#X#X#X#X#X",
"#X#X#X#X#X>XmX^.G.G.L.#X#XQ.~.H.!.#X#X#X#X#X+XB V @.+X#X#X#X#X#X#X#X+X=.' ' ) _ _ _ _ @.#X#X#X#X#X#X>XjXFXdXeXrXtXrX;X+X#X#X#X#X",
"#X#X#X#X#X#XBX~.!.L.*X*XQ.Q.~.H.!.R.#X#X#X#X#X/ r r Q [ {.#X#X#X#X#X-.| ' | / ^ ( { { / @X#X#X#X#X#X#XsXFXdXdXpXZ.1X#X+X#X#X#X#X",
"#X#X#X#X#X#XsX~.bXY.nXCXnX~.~.J.!.L.U.#X#X#X+X' Q r Q c V a.#X#X#XM.=._ ` ' x _ | _ _ { #X#X#X#X#X#X#XmXFXjXdXdXpXA.U.+X#X#X#X#X",
"#X#X#X#X#X#X;X^.sXA.nXnXCX_.J.J.^.L.L.#X#X#X+X) ^ / Q ^ j r OX#X#X=.| ^ _ ( _ ( ( _ _ b.#X#X#X#X#X#X#X#XgXgXgXfX^.Q.R.#X#X#X#X#X",
"#X#X#XW.Q.;X).^.bXsX*XF.CX(.J.J.~.~.T.#X#X#XOX] ' ` k ^ ~ r k OXR.=.{ _ ^ x ^ b _ ' _ -.#X#X#X#X#X#X#X;X#X_._.;X#X#X#X#X#X#X#X#X",
"+XK.U.G.c.H.G.(.aXaXA.G.(.K.>.P.J.G.Q.#X#X#X+X` / ^ ' ^ _ Q l ' C.=. ._ k x _ _ v ` _ E.#X#X#X#X#X#X#X#X#X#X#X#X#X;X>X#X#X#X#X#X",
"#XW.G.c.K.L.G.!.~.^.A.!.c.c.>.P.(.~.(./.+X#X#X%.` _ ) ( Q ) l ) M.=. .{ l z x l v c { #X#X#X#X#X#X#X#X#X#X#X#XsXgXgXFXjXjXsX).;X",
"#X#XH.~.!.L.H.G.J.~.sXH.G.y.>.J.(./.L.@X#X#X#Xb.] _ _ v x l j ) [. .@.x k x z z l ^ C.#X#X#X#X#X#X#X#X#X#X#X#XgXgXhXdXNXiXfXfX>X",
"#X#X:X^.!.(.L.G.G.L.J.y.G.>.i.>.h.S.W.#X#X#X#X{.] | ( ^ k h h Q C...*.x x _ _ c l M.#X#X#X#XQ.#X#X#X#X#X#X#XmXfXdXdXeXpXpXiX;X#X",
"#XQ.T.L.H.L.~.~.G.y.e.i.T n U q.q.j.#X#X#X#X#X#X*.' ) ^ ^ j h _ #X;.{ x x x c ( M.v.b.-.-.=.b.C.#X#X#X#X#X#X).pXJ.D.pXfXgXsX#X#X",
"#X#X#X#X#X~.^.MXnX!.y.q.f t J j.R.Q.#X+Xf T m.+X{. .' / ( ) l ..#X;.j Q ( { b.M.=.=...| ' v ) v b.B.#X#X#X#XW.Z.1XuXNXNXfX#X#X#X",
"#X#X#X#X#X:X^.aX(.Y.q.f d s.#X#X#X#X#XU q 5 9 9 - X .   o + @ % 0 6 & 8 f q.T [ H [ [ ' v c l v l x a.#X#X.XI.%XD.D.uXfX>X#X#X#X",
"#X#X#X#X#X%XL.K.t.e.g s.@X[.#X#X#X#Xn.i Y J U J U J F D F S p e e 0 ; - $ : ; 0 - X X . . . o % $ - % : i u 0 ; X   F.).#X#X#X#X",
"#X#X#X#X$X+X@XE.@XR.#X#X#X+XN.#X#XQ.q W F U J J U J U J G G F G G F I I G w P 1.P Y P K P K C 7 F F C e e C i i o y +X#X#X#X#X#X",
"#X#X#X#X#X#X#X#X#X#X#X#X#X#X].#X#X,.K J J L J U J J U F G F G I F F I G d y 3.P P Y P P Y P D w W F I F F I F F   B.#X#X#X#X#X#X",
"#X#X#X#X#X#X#X#X@X#X#X#X#X#XN.#XC.9 W J U J U L J U J G G F G I F I I F w <.<.P P P P Y P P w F T F G F I I F e 9 #X#X#X#X#X#X#X",
"#X#X#X#X#X#X#X#X.XT g.{.+X#X#X#Xa Y J J J J U J U U F I F F I F F I G S a 1.P P Y P P <.P J 6 W F I F F I F F + m.#X#X#X#X#X#X#X",
"#X#X#X#X#X#X#X#X[.&.f.f.[.+X#Xs.C I J L J U J J U F F I F I G F I I F w <.<.P P P P P P U w d T F I F I I F s > #X#X#X#X#X#X#X#X",
"#X#X#X#X#X#X#X#X#Xs.p.f.g.].[.: Y F L J L L J U I F G F G I F F I I s C 3.P P <.P P <.K L 6 W F I G F I F F : n.#X#X#X#X#X#X#X#X",
"#X#X#X#X#X+X#X#X#X$X[.[.[..Xa K F J L J U J L U F G G F I I F G I F 7 <.<.P P P P Y P P e s W F G F I I F F 9 #X#X#X#X#X#X#X#X#X",
"#X#X#X#X#Xz.#X#X#X#X#X#X#Xm.9 U J L J U J J U I F G F G I F F I G p C 3.P ,.Y P Y Y P J 6 U F G G F G G F 0 d.#X#X#X#X#X#X#X#X#X",
"#X#X#X#XT.XX+X#X#X#X#X#X+X5 Y D U J L L J L U D G F F G I F I I F 7 <.<.P P P P ,.P P p p T F I F G G F F 5 #X#X#X#XOX#X#X#X#X#X",
"#X#X#XR.Y. XoX#X#X#X#X#XT C J L J J U J U U J F I F G I F F G G p K 1.P P Y P P P P P 6 U G F I F I G F 9 s.#X#X#X#X@.#X#X#X#X#X",
"#X#X#XP.%XS.=XW.#X#X#XI.; Y J U J U J J U I f G G F I G F I G F 7 1.,.P ,.P P Y P P s e T F I F G G F F 9 #X#X#Xn.v.r #X#X#X#X#X",
"#X#XR.nX/.K.L.Y.#X#X#Xt P J L J L U J U U D F G F G G F G G G u K <.P P P P Y P J L 6 I I F I F G G F e X.+X#X#X/ 3 3 *.$X#X#X#X",
"#X#XXXZXbXCXBX/.+X#X,.0 U I L J U J J U J F G F F G G F G G f w 3.<.P <.P P Y P P F e W F I F F I G D & ) C.#X#XQ Q ] ! %.M.Q.#X",
"#X#X&XAX*XBXHXZXQ.R.- Y J U J U J J U U F G G F G G F G I G w P 1.P P P P Y Y P P w F I F I F I I S : R *._ ;.%.( ' *.%.Q OX#X#X",
"#X$XVXGXbXbXGXZX&Xa C J U J L L J U U J f G F G G G F G G S y 3.,.P <.P P Y P P J 7 W F G G F I G S $ *.*.-.a.n.-.*.`.%.4 #X#X#X",
"#X#XXXCXT.*XZXCXh.; L J U J U J U U L D F G F I G G G G F w P 1.P P Y P P Y P P u F U F I F I I F : s $.a.t.K. X].`.].] ] #X#X#X",
"#X#X=XVXI.Y.VX=X- J J U J L L J U U J F I F G I G F G G s u 3.Y P P P P Y P K P 6 T F G F F I F p O @.-.} t.c.m.d.v.`.] ` V.C.M.",
"#X#XoXI.z.S.%XK 0 K U L J U J L U J S G F F I I f G G F w Y <.P P <.P P ,.P Y s S U F G F I H F 5 2 =.@.O.+.N >.+.f.*.` 4 3 3 {.",
"#X#X+Xs.k. XS.$ J L U J U J J U I F G G F G I F F G F s a 1.Y P Y P P P P J Y 6 W F G F F I I F @ ] -.d.O.n N e.} f.:.` 4 3 v.#X",
"#X#X#Xm.S.XX; a J L L L L J U U J F I F F I I F I I D w <.<.P P Y P P <.P P D s G G G f G G F 0 B :.g.d.r.w.N +.X.`.`.! 3 / #X#X",
"#X#X#X#Xc.a - D U U L U J L U J J F I F I I F F I F p a <.,.P P P P Y P P P w T F G G F G G S % :.:.g.g.m.y.e.+. .g.%.! ! {.#X#X",
"#X#X#X#X+X; . X - 9 i a K 2.Y L D F F F I G S I F f w <.<.P P <.P P Y P Y J s U F G F G I G 0 2 %.`.[.].u.i.a.O.@.| 3 ^ {.#X#X#X",
"#X#X#X#X#X].B.I d a y y < * # = 1 A A E I G G I f s C 3.P P P P P P P P Y e U F G G F G I s O ! %.:.[.`.].l.@.[ r r -.+X#X#X#X#X",
"#X#X#X#XQ..X#XU.,.e.i.A.Y.Y.L.A.h.,.w > $ o - : 9 0 E E <.P ,.E E ,.P P L e U G G F G G F ; F -.] %.%.:.`.f.[ ( [ +X#X#X#X#X#X#X",
"#X#X#X#X[.#X#X#XE.k.s.'.XX&XY.Y.K.S.y.W.#X#XOXm.q.T d 5 + = , 1 A A 2.E K I F G G F G G Z o +X#X@X! ! ! / ` ! %.$Xg.#X#X#X#X#X#X",
"#X#X#XOXOX#X#X#XQ.Q.I.s.z.XX.XI.U.W.#X#X#X#X#X#X#X#XQ.#X#XR.m.d.,.d y ;   # $ , 0 p D D = q.+X#X{.j ! j ! | M.#X+XU.N.+X#X#X#X#X",
"#X#X#XoX#X#X#X#X#X#X#X#X#X#X#X#X#X#X#X#X#X#X#X#X#X#X#X#X#X#X#XQ.Q.E.#X#X#XC.N.p.T d 5 + q +X$X+XM.M.{.OX#X#X+X#X#X#XN.OX#X#X#X#X"
};
