/* XPM */
static char *result[] = {
/* columns rows colors chars-per-pixel */
"64 64 242 2 ",
"   c #010101",
".  c #0B0704",
"X  c #0B0A05",
"o  c #160D05",
"O  c #14120A",
"+  c #18150C",
"@  c #1C1A0E",
"#  c #1D1A13",
"$  c #1C1A17",
"%  c #271608",
"&  c #361D06",
"*  c #381F06",
"=  c #221F14",
"-  c #3E1B10",
";  c #242115",
":  c #282417",
">  c #29261B",
",  c #2D291B",
"<  c #372512",
"1  c #392B14",
"2  c #312D1E",
"3  c #2E2B26",
"4  c #322E22",
"5  c #332E28",
"6  c #353223",
"7  c #393525",
"8  c #3D3926",
"9  c #3D352A",
"0  c #3E3A28",
"q  c #3E3931",
"w  c #491B15",
"e  c #432B18",
"r  c #4C311B",
"t  c #52351D",
"y  c #603A1F",
"u  c #443D25",
"i  c #423D2B",
"p  c #573C24",
"a  c #5A3B24",
"s  c #623F27",
"d  c #4B4117",
"f  c #46412D",
"g  c #49432E",
"h  c #4C462D",
"j  c #5E4021",
"k  c #4B4537",
"l  c #524C32",
"z  c #554B3D",
"x  c #5B5437",
"c  c #69462A",
"v  c #744B2A",
"b  c #7A522C",
"n  c #754F32",
"m  c #635B3C",
"M  c #775334",
"N  c #795134",
"B  c #766736",
"V  c #4E4941",
"C  c #534D44",
"Z  c #5C5449",
"A  c #625A49",
"S  c #645D52",
"D  c #676042",
"F  c #6D6444",
"G  c #726947",
"H  c #746B49",
"J  c #7A714E",
"K  c #6C6356",
"L  c #73695B",
"P  c #7C7350",
"I  c #7D705D",
"U  c #746C61",
"Y  c #7B7365",
"T  c #AA3A34",
"R  c #BB3737",
"E  c #C1383A",
"W  c #8E5327",
"Q  c #865629",
"!  c #8A5729",
"~  c #92582C",
"^  c #885835",
"/  c #955D33",
"(  c #BB453A",
")  c #946435",
"_  c #9C673A",
"`  c #A5693D",
"'  c #A46B3D",
"]  c #B4733F",
"[  c #C74539",
"{  c #CC4B3B",
"}  c #D14F3D",
"|  c #CB5537",
" . c #D2583D",
".. c #CA6D3D",
"X. c #D4643D",
"o. c #D6773D",
"O. c #8C5E41",
"+. c #A75244",
"@. c #876443",
"#. c #9D7148",
"$. c #A16540",
"%. c #A46C42",
"&. c #AC6C42",
"*. c #B06F46",
"=. c #B66C49",
"-. c #A57643",
";. c #AC7246",
":. c #AF7448",
">. c #AD7B4B",
",. c #B17047",
"<. c #B1754A",
"1. c #B07E4E",
"2. c #B97949",
"3. c #B36956",
"4. c #A77A51",
"5. c #B57B52",
"6. c #B97C51",
"7. c #877B69",
"8. c #877E71",
"9. c #C94B47",
"0. c #CB5546",
"q. c #D35B43",
"w. c #D15748",
"e. c #D05B50",
"r. c #CB6846",
"t. c #D46343",
"y. c #D66848",
"u. c #C67845",
"i. c #DA7E43",
"p. c #D5734B",
"a. c #D87849",
"s. c #D46558",
"d. c #C47D54",
"f. c #D87858",
"g. c #E1784C",
"h. c #D87963",
"j. c #988A3C",
"k. c #CF823F",
"l. c #B68751",
"z. c #B68454",
"x. c #B98556",
"c. c #B9845A",
"v. c #BB8959",
"b. c #9CB152",
"n. c #ABAF4D",
"m. c #A6BD54",
"M. c #8E816E",
"N. c #8D8374",
"B. c #958979",
"V. c #9D907D",
"C. c #C68448",
"Z. c #CD894D",
"A. c #DB8245",
"S. c #DC834B",
"D. c #D98B48",
"F. c #DB9649",
"G. c #C7865B",
"H. c #DC8453",
"J. c #D78A56",
"K. c #DC8C5B",
"L. c #C99955",
"P. c #DB9353",
"I. c #DD935B",
"U. c #D89958",
"Y. c #E38A4C",
"T. c #E19A49",
"R. c #E58A54",
"E. c #E69456",
"W. c #E59957",
"Q. c #E69B5B",
"!. c #EA9D5A",
"~. c #F19659",
"^. c #F29B5B",
"/. c #CFAC58",
"(. c #DBA558",
"). c #E3A34D",
"_. c #E5AA4D",
"`. c #E8B34E",
"'. c #E5AB53",
"]. c #E7A758",
"[. c #E5AA5B",
"{. c #F3A45D",
"}. c #F9A45E",
"|. c #F4AA5D",
" X c #EAB455",
".X c #EAB758",
"XX c #F5B65D",
"oX c #C88B61",
"OX c #DC8B66",
"+X c #C49262",
"@X c #DD9568",
"#X c #E59C63",
"$X c #DFA561",
"%X c #E7A764",
"&X c #F4A461",
"*X c #FAA661",
"=X c #FFAB62",
"-X c #F9AC63",
";X c #E9B665",
":X c #F7B763",
">X c #B6CF5C",
",X c #B8D167",
"<X c #D4CF56",
"1X c #ECC45B",
"2X c #F0C955",
"3X c #EDD45D",
"4X c #F0E15D",
"5X c #C3D666",
"6X c #D3D667",
"7X c #EDC56A",
"8X c #EDCE6D",
"9X c #F4C763",
"0X c #F1D669",
"qX c #F1CE74",
"wX c #F2D876",
"eX c #998F80",
"rX c #9D9383",
"tX c #A69A87",
"yX c #A69A88",
"uX c #A99F91",
"iX c #ADA18E",
"pX c #AEA394",
"aX c #B1A491",
"sX c #B6A996",
"dX c #B4AA9A",
"fX c #BBAE9B",
"gX c #BEB19E",
"hX c #B9AFA0",
"jX c #C2B6A3",
"kX c #C6BAA8",
"lX c #CABDAB",
"zX c #F2EC84",
"xX c #CFC2AF",
"cX c #CEC2B0",
"vX c #D1C4B2",
"bX c #D6C9B7",
"nX c #D9CCB9",
"mX c #DED1BE",
"MX c #DFD3C1",
"NX c #E3D6C4",
"BX c #EADDCA",
"VX c #EDE0CD",
/* pixels */
"=X=X=X=X=X=X=X^.=X=X=X=X=X=X=X=X|.=X=X=X=X{.v 1 % e t c v b Q n ^ ' &.:.C.Z.J.U.!.&X=X=X=X=X=X=X=X=X=X=X|.=X=X=X=X=X=X=X=X-X-X=X",
"=X=X=X=X=X=X}.t.=X=X=X=X=X=X=X=X}.}.=X=X}.c G.G.+XoXG.x.c.5.5.4.n % O.O.^ O.N c a s r % c n ^ _ j.j.b.b.n.v.U.!.!.W.W.&XJ.&X=X=X",
"=X=X=X=X=X=Xg.q.R.=X=X=X=X}.Y.=X~.E.=X=XW.t x.6.6.1.6.5.6.c.z.G.p %.6.d.oXd.oXG.G.oXoXG.G.5.a @.c.v.>.4.4.4.#.@.@.^ < U.=X=X=X=X",
"=X=X=X=X=X}.t.o.a.A.*X=X*Xi.i.i.A.{.=X=XW.a x.,.2.<.1.:.2.1.<.5.c &.=.5.=.6.6.<.d.6.=.6.6.s 5.v.z.v.z.G.v.+X+Xv.+X#.* ].=X=X=X=X",
"=X=X=X*Xt.q.y.a.H.R.=X=XR.H.i...D.}.=X=XW.p 6.&.<.&.<.;.:.:.;.<./ <.,.*.&.*.*.&.,.,.&.<.<./ x.z.4.z.-.z.z.4.z.>.c.Q * Q.=X=X=X=X",
"=X=X=X*X} y.p.a.S.S.E.S.K.S.o.o.A.}.=X=XW.p z.;.<.;.:.;.:.:.:.<./ <.,.*.&.*.*.&.,.,.&.,.,.! x.>.-.l.>.1.>.:.1.-.1.Q * /.=X=X=X=X",
"=X=X=X^.w.t.p.i.i.H.S.S.J.a.o.o.A.^.=X=XW.a 6.;.<.;.>.:.<.;.:.<./ =.*.*.&.*.*.&.,.,.&.,.,.! x.z.>.1.>.1.l.>.>.>.1.Q & b.;X=X=X=X",
"=X}.q.q.q. .t.X.i.S.a.H.S.i.A.A.Y.=X=X*XW.a 1.;.<.;.<.&.:.:.;.<.~ 2.*.=.&.*.*.&.,.,.&.,.<.! v.1.>.>.-.1.>.>.1.>.<.Q & m.,X:X=X=X",
"=X=Xt.w.t.}  .| y.a.u.i...a.A.o.*X=X=X=XW.p z.&.:.;.:.] <.;.:.<.~ =.*.,.&.&.*.&.*.*.&.*.,.! v.>.>.1.>.1.>.>.1.>.>.Q & m.>X5X=X=X",
"=X*XR.[ q. .| | y.p.r.X.a.a.A.Y.=X|.=X=XW.a 5.&.:.;.:.;.:.:.:.<.W <.*.,.&.*.*.&.=.<.&.*.<.! v.1.>.1.-.>.>.>.z.>.>.Q & m.>X,X-X=X",
"=X=X*X{ } w. .[ X.t.| X.a.A.A.A.}.}.=X=XP.a 5.;.<.;.<.;.<.:.:.<.W <.*.*.&.*.*.&.*.*.&.*.,.! x.>.>.z.-.z.>.>.>.>.>.Q & b.,X5X;X=X",
"=X=X=Xg.} } | [  .| t.p.i. .o.A.A.S.S.=XP.c 6.&.:.;.<.-.<.;.:.<.W 5.*.*.&.*.*.&.=.*.*.*.<.! v.l.>.>.>.>.>.>.z.>.>.Q & m.,X,X:X=X",
"=X=X=X*X .[ [ [ | q. .t. .| | X.o.S.i.Y.u.c z.' :.;.:.;.<.:.:.<.W 6.&.*.&.*.*.&.<.*.&.,.*.~ v.>.>.>.>.>.>.>.>.>.:.! * m.>X6X9X}.",
"=X=X=X=X=Xg.R ( { { [ { |  .X.X.o.i.i.E.Z.c 6.;.<.;.:.&.:.:.;.<.~ =.&.*.&.*.*.&.*.*.&.,.&.) v.>.>.z.>.z.>.>.>.>.>.! * m.,X5XXX|.",
"=X=X=X=X=X=X=.T [ } q.y.X.X.y.i.a.o.R.=XD.c 6.&.:.;.:.;.<.:.:.<.W 6.&.*.*.*.*.&.<.=.&.,.&.) v.>.>.1.-.1.>.>.z.>.>.Q & m.5X,X=X=X",
"=X=X=X=X=XP.}.( [ [ w.y.p.y.t.t.y.y.*X-XZ.c 1.;.:.;.:.;.<.:.;.:.W 6.*.=.&.*.=.&.*.*.&.,.&.) v.:.>.>.>.1.>.>.>.>.>.Q & <X6X3X=X=X",
"=X=X=X=XJ.*X=X^.{ } t.t.y.t.f.^.*X*X=X=XZ.c 6.;.:.;.<.;.:.:.;.:.W 6.*.,.&.*.*.&.,.,.&.*.&.) v.>.1.>.>.>.>.>.>.>.>.Q * /.6X:X=X=X",
"=X=X=X=XI.=X=X=X}.R. .q.t.t.=X=X=X*X&X&XZ.c 5.;.:.;.<.;.<.:.:.<.W 6.&.,.&.*.=.&.,.,.&.*.&.) v.>.1.z.>.1.>.>.>.>.>.Q * W.7X-X=X=X",
"=X=X=X=X=X=X=X=X=X=X=X~.g.t.*X=X=X=X*XOX5.v 6.;.:.:.:.;.<.:.;.:.W 6.` ,.&.*.*.&.,.,.&.<.&.) v.>.>.>.>.>.>.>.1.>.z.Q & W.:X=X=X=X",
"=X=X=X=X=X=X=X=X=X=X=X=X=X*X&X=X=X=X=X&X:.n 1.;.:.:.:.;.<.:.;.:.W d.&.,.&.*.*.&.,.,.&.;.&._ v.>.>.>.>.z.>.>.1.>.>.Q * Q.=X=X=X=X",
"=X=X=X=X=X=X|.|.}.=X=X=X=X=X=X=X=X=X=X=X>.n 5.;.<.;.:.%.<.:.;.:.W 6.&.*.&.*.*.&.,.,.*.*.&._ z.>.>.z.>.>.>.>.1.>.<.! & Q.=X=X=X=X",
"=X=X=X=X=X=X-X).].{.=X=X=X=X=X=X=X=X=X=XC.n 5.;.<.;.<.] <.:.;.:.W =.` *.&.*.*.&.,.*.&.*.;._ v.>.>.>.>.>.>.>.>.>.1.Q & Q.=X=X=X=X",
"=X=X=X=X=X=XXX_.F.).=X=X=X=X}.|.{.-X=X=XZ.n 5.&.:.;.<.;.<.:.;.<.W 6.&.=.&.*.,.&.=.*.*.*.' _ z.>.>.>.>.l.>.>.>.>.1.Q & Q.=X=X=X=X",
"=X=X=X=X=X=XXX XF.T.|.=X=X:XXXXX X-X=X=XZ.n 5.:.<.;.<.;.>.:.;.<.W 6.&.*.&.*.,.&.,.*.&.*.' #.v.>.>.z.>.>.>.>.1.>.>.Q & #X=X=X=X=X",
"=X=X=X=X=X:X9X.X_.).'.=X=X|. X_.[.-X=X=XZ.n 6.;.:.;.<.;.<.:.;.:.W 6.` =.&.*.*.&.*.*.&.,.&.%.v.>.>.>.>.1.>.>.>.>.>.! & W.}.=X=X=X",
"=X=X=X=X=X=X0X X X'.;X;X=X|. X_.[.|.=X=XZ.n 5.:.:.;.<.;.<.:.:.<.W 6.&.*.&.*.*.&.*.&.&.,.$.%.z.>.4.>.>.>.>.:.>.>.1.Q % !.=X=X=X=X",
"=X=X=X=X=X=X9X X9X[.7XqX7X X.X`. X'.].=XZ.n 1.:.:.;.:.;.<.:.:.<.W 6.&.*.&.*.*.&.*.*.*.,.' %.v.>.>.z.-.l.>.>.l.-.>.Q % !.=X=X=X=X",
"=X=X=X=X=X*XXX1X1X(.7X7XqX1X`._..X'.].=XZ.N <.:.:.:.:.&.<.:.;.<.~ 2.&.=.` =.=.` *.*.&.*._ %.x.>.>.>.>.z.>.>.z.:.>.Q % !.=X=X=X=X",
"|.=X=X|.*X=XXX.X3X9X;X.XqX.X).`. X X|.=XC.n <.:.:.:.<.;.:.:.;.<.~ 6.' ,.&.=.,.` *.*.&.*.' ' x.>.>.>.>.>.>.>.z.>.:.Q % ].=X=X=X=X",
"}.].].).)._._..X7X1X(.)..X(.F._.`.).-X=XC.n <.:.:.;.:.;.:.:.:.<.~ 2.&.=.&.*.*.&.*.&.*.*.' #.x.>.>.z.-.z.>.>.>.-.>.W o W.=X=X=X=X",
"=X|.).T.).'._. X X1X(. X).T.F._..X.X.X.X2.M <.:.<.;.<.;.<.:.:.<./ 6.&.,.` ,.,.&.*.*.&.*.' -.x.>.>.z.>.>.>.>.l.>.>.Q o 2X4X2XXX=X",
"=X=X_. X[.'.).).`.`.1X_.).k.k.`..X.X'.-X2.M :.<.:.;.<.;.<.:.:.<./ =.&.,.&.=.*.&.*.*.&.*.` -.z.>.>.>.>.1.>.-.>.:.>.Q o <X1X2X3X9X",
"=X=XXX1X X.X'.(.). X XF.).k.T.k.Z.(.|.=X2.N :.:.>.;.>.&.>.:.*.>._ =.&.&.&.*.*.&.=.&.*.*.` ;.z.>.>.l.-.>.>.>.>.>.>.Q . 1X2X2XXX}.",
"=X=X[.'.]._. X X).F.k.F.o.] <.C.C.W.}.=X] N :.:.,.&.<.;.,.:.,.>./ 2.&.=.&.*.*.&.*.&.&.<._ 4.5.>.>.1.>.1.>.>.1.>.>.Q d 3X3X2X|.}.",
"=X=X=X=X|. X1X9X7X[.D.C.' ^ :.P.{.=X=X*X) c $.#.%.&.<.&.<.:.:.:.` =.*.&.&.=.*.&.*.&.&.,._ >.z.>.>.1.>.>.>.>.l.>.>.Q B 4X3X=X=X=X",
"=X=X=X=X=X:XXX1X;X[.C.] %.L.=X=X=X=X-X]               . e r p j y v v ^ ^ / ^ / $._ &.;._ ;.z.>.1.1.>.1.>.>.>.>.>.c n.3X:X=X=X=X",
"=X=X=X=X-X;X].).F.D.] Z.&X!.-X=X=X=XW.+ f J G G G F A A D x x x l l l f 9 7 6 4 : .       + u t p c c M c c h t 1 X /.XX=X=X=X=X",
"=X=X=X=X-X*X*X-X|.}.=X=X=X-X#X=X=X=Xb f 2 m B F G G G G H H J H H J H J J J P P J J J P J G G G F D m m D G F F   ) =X=X=X=X=X=X",
"=X=X=X=X=X=X-X-X=X=X=X=X=X=XI.=X}.C., l : . + , 2 2 f u f h l l x x m m m F F F F G F G G G H H H J J J J P P G   W.=X=X=X=X=X=X",
"=X=X=X=X=X=X-X-X&X=X=X=X=X=X#X=X{.< h f O 6 6 2 2 2 , : > ; ; = # + O o .     + , 1 2 u u f h l l x x m m m B i ^ =X=X=X=X=X=X=X",
"=X=X=X=X=X=X=X=X!.6.R.#X=X=X=X=X) 8 h ; 2 7 0 0 0 0 9 7 7 7 7 7 7 7 7 7 7 7 6 6 4 4 4 > , > ; = # # + O O X     P.=X=X=X=X=X=X=X",
"=X=X=X=X=X=X=X=X#Xd.G.H.#X=X|.J.; l 7 @ 7 f f f f 0 i i i 0 0 0 8 8 7 7 7 7 7 7 7 7 7 7 7 6 7 7 7 7 7 7 7 7 ; b =X=X=X=X=X=X=X=X",
"=X=X=X=X=X=X=X=X=XJ.G.J.K.@X#Xt h f o 2 8 f f f i i i i 0 i 0 0 8 8 8 7 7 7 7 7 7 6 7 6 7 7 7 7 7 7 7 7 7 4 . P.=X=X=X=X=X=X=X=X",
"=X=X=X=X=X-X=X=X*X=X#X%X#X#X_ 7 l ; : 7 f f f f i f i 0 i 0 0 8 8 8 8 8 7 7 6 6 7 7 7 7 7 6 7 6 7 7 4 7 7 ; b =X=X=X=X=X=X=X=X=X",
"=X=X=X=X=X$X=X=X=X=X=X=X=XT.+ l 7 O 7 i f f f f i i 0 i 0 f 0 0 9 8 8 7 7 7 7 7 7 6 4 6 7 7 7 7 > 5 = > 4 . P.=X=X=X=X=X=X=X=X=X",
"=X=X=X=X].%X&X=X=X=X=X=X=Xc f h O 5 0 g f f f f f f f i 0 0 0 8 9 9 8 7 8 7 7 4 = C k X ; 4 3 + K yXyXC . b *X=X=X=X&X=X=X=X=X=X",
"=X=X=X}.[.%X%X=X=X=X=X-X2.2 l : : 7 f g g f f f f 0 f 0 f 0 6 8 9 8 9 8 7 7 3 X N.dXgXiXY 5   k L I 7.rXO J.=X=X=X-Xp.=X=X=X=X=X",
"=X=X=X[.;X[.;X|.=X=X=X].1 l 7 O 6 f g g g f f f f i f f 0 6     O > 2 7 0 > 5 V.dXiXyXiXdXhXyXU o 9 Z z v =X=X=XE.R.( =X=X=X=X=X",
"=X=X{.7X.X].'.[.=X=X|.Q g h O 2 0 g g g g f g f q f i i 6 Z cXdXrXS     o $ 7.8.7.7.B.rXtXtXuXsXfXV.Z   u.=X=X=X0.R R f.*X=X=X=X",
"=X=X;X0X7X8X0X[.*X=Xl.: l , ; 7 f g f g g g f f f f f 7 C xXcXcXvXnXvXdXB.A   = z S 7.7.7.B.B.tXyXaX8.t w.^.=X=X9.9.e.9.f.R.=X=X",
"=X=X%XzX7X0XzXwX|.&X1 l u X 6 i f g f f g g g f f i 0 k xXvXfXfXhXfXjXlXcXnXlXfXB.C   4 C L 7.7.8.8.5 3.p.q.p.s.w.0.f.s.9.&X=X=X",
"=X-X7XwX;X0XwXwX:X_ f h + , 7 g i = > 7 q g g g f 0 3 pXvXgXfXfXfXfXfXfXfXfXjXlXvXbXlXaX8.k   i A Z t f.f.f.R.E.H.f.OXs.E =X=X=X",
"=X=X%XqX;X[.qXqXL.; l 2 @ 7 f 0 X rXN.V   X : 2 7 > B.yXrXrXyXiXsXfXfXfXfXfXfXfXfXfXjXlXvXnXlXuX7.  &.f.H.D.).%XI.OX@Xe.w.=X=X=X",
"=X=X;XqX%X[.qX;Xj h 8 X 6 i i X rXVXBXBXMXkXiXY $   q S I N.V.V.eXV.tXuXaXsXfXfXfXfXfXfXfXfXjXlXtXw a.a.u.Y.T.W.R.E.OXe.w.^.~.~.",
"=X=X%X%X(.$X;X>.7 h @ > 8 f + Y VXbXxXvXnXmXNXBXVXbXhXeXS   $ C K 7.B.V.V.V.tXtXaXfXfXfXfXfXfXfXz T p.a.a.o.o.Y.i.J.f.e.E R R &X",
"=X=X*XJ.U.$X(.= l 2 + 7 f ; C NXmXxXxXxXxXxXxXxXbXnXMXBXBXNXcXpX8.i   i A 7.7.V.V.V.V.tXpXaXfXeXw e.f.H.a...o.k.r.K.h.9.E R R.=X",
"=X=X=XQ.(.[.v f i X 2 i 2 3 bXBXxXxXxXxXxXxXxXxXxXxXxXxXxXbXnXNXBXVXmXjXrXU   $ C K 7.B.V.V.eXV +.f.K.K.S.A.o.A.r.OXOX9.R 0.=X=X",
"=X=X=X=XT._ , l ; ; 8 0   V.cXjXjXkXxXxXxXxXxXxXxXxXxXxXxXxXxXxXvXlXnXMXNXVXBXbXdXB.C   q A S < h.h.K.K.W.F.k.i.p.OXs.9.9.&X=X=X",
"=X=X=X=X*Xv % O   ; 2 + S gXpXaXiXaXaXiXsXfXgXkXlXxXxXxXxXxXxXxXlXlXvXvXvXcXvXbXmXNXVXmXcXpX$ T s.OX#X@XP.F.H.a.p.r.R 0.&X=X=X=X",
"=X=X=X=X=X@X!.<.' _ ) ) M d q C L M.N.V.iXaXaXaXaXaXsXfXgXjXkXlXvXvXvXlXlXcXvXlXxXxXxXvXnXjX- 9.s.h.#X@XI.I.p.r.( ( f.}.=X=X=X=X",
"=X=X=X=X=X&X=X!.u.D.U.(. X[.'./.l.l.) b a 4 C K Y M.V.tXaXaXaXaXaXsXfXjXkXlXlXvXxXxXxXxXxXS *.f.s.s.s.h.OXJ.r.0.=.*X=X=X=X=X=X=X",
"=X=X=X=X#X-X=X=X|.P.L.L.$X;X[.].'.W.F.|.=X=X&XW.Z.2.' Q p V S U N.N.rXyXaXaXaXsXsXgXjXxXaXe *X=X*X9.9.9.w.0.9.s.=XK.=X=X=X=X=X=X",
"=X=X=X{.&X=X=X=X=X*X].J.U.%X%X{.].{.=X=X=X=X=X=X=X=X-X-X=X=XW.P.C._ / v o 5 C S L 7.N.V.C u.=X=X~.9.9.E 9.s.R.=X=X^.Q.=X=X=X=X=X",
"=X=X=X&X=X=X=X=X=X=X=X=X-X=X=X=X=X=X=X=X=X=X=X=X=X=X=X=X=X=X=X=X=X-X=X=X=X^.Q.Z.2.' b t ^ =X=X*X~.#X^.=X=X=X=X=X=X=XE.&X=X=X=X=X"
};
