/* XPM */
static char *result[] = {
/* columns rows colors chars-per-pixel */
"64 64 246 2 ",
"   c #B3352E",
".  c #BA3937",
"X  c #BC353A",
"o  c #C33B38",
"O  c #CA3C3A",
"+  c #8F5633",
"@  c #AC4A3B",
"#  c #BC443B",
"$  c #BB4838",
"%  c #B36F3D",
"&  c #C44436",
"*  c #C94635",
"=  c #CB4A36",
"-  c #C6443B",
";  c #CC423C",
":  c #C54B3C",
">  c #CC4C3B",
",  c #D04A36",
"<  c #D14E3A",
"1  c #C5533D",
"2  c #CB533D",
"3  c #CA583B",
"4  c #D1533E",
"5  c #D35A3D",
"6  c #CA6D3D",
"7  c #D4633D",
"8  c #D4693A",
"9  c #D7763D",
"0  c #D4793C",
"q  c #B35243",
"w  c #B65542",
"e  c #B16E47",
"r  c #BD7B48",
"t  c #C74746",
"y  c #CC4542",
"u  c #CB4C44",
"i  c #CC4D49",
"p  c #D04542",
"a  c #D14B43",
"s  c #C35742",
"d  c #CC5443",
"f  c #CD5B44",
"g  c #CE5449",
"h  c #CE5C49",
"j  c #D15543",
"k  c #D25B44",
"l  c #D1544A",
"z  c #D35C4B",
"x  c #D25D51",
"c  c #CD6245",
"v  c #CB6748",
"b  c #D46345",
"n  c #DA6645",
"m  c #D66C45",
"M  c #D4634A",
"N  c #D46B4B",
"B  c #DA6C4B",
"V  c #C87947",
"C  c #D37445",
"Z  c #D97345",
"A  c #D77D44",
"S  c #DA7E43",
"D  c #D4734B",
"F  c #DA744D",
"G  c #D47B4C",
"H  c #DA7B4C",
"J  c #D36453",
"K  c #D66B54",
"L  c #D4645A",
"P  c #C57C52",
"I  c #D77252",
"U  c #DA7452",
"Y  c #DD7A52",
"T  c #D97A5A",
"R  c #E1794D",
"E  c #E17B54",
"W  c #D97A63",
"Q  c #CF823F",
"!  c #BF8249",
"~  c #9EB14F",
"^  c #9FB451",
"/  c #AEA94C",
"(  c #A5B74E",
")  c #A3BA56",
"_  c #BBBA53",
"`  c #98B467",
"'  c #9BB974",
"]  c #BCB767",
"[  c #CB8649",
"{  c #DB8245",
"}  c #D88844",
"|  c #DC834C",
" . c #D68B4C",
".. c #DC8C4B",
"X. c #D89349",
"o. c #DC934C",
"O. c #DD9A4C",
"+. c #CD8756",
"@. c #D48254",
"#. c #DC8353",
"$. c #D48D54",
"%. c #DC8D53",
"&. c #D7855B",
"*. c #D48C5B",
"=. c #DC8C5B",
"-. c #CB9952",
";. c #D49455",
":. c #DB9453",
">. c #DD9C54",
",. c #D49758",
"<. c #DD935C",
"1. c #DD9C5B",
"2. c #E38A4C",
"3. c #E1994A",
"4. c #E58354",
"5. c #E38B54",
"6. c #EA8C56",
"7. c #E78959",
"8. c #E49354",
"9. c #EA9256",
"0. c #E39C53",
"q. c #E59558",
"w. c #ED945B",
"e. c #E49B5B",
"r. c #EC9B5C",
"t. c #F1955A",
"y. c #F39C5C",
"u. c #F89F5C",
"i. c #DEBF4E",
"p. c #CBA852",
"a. c #DBA256",
"s. c #DDA25B",
"d. c #DAA858",
"f. c #C8BA59",
"g. c #D7B759",
"h. c #E3A34D",
"j. c #E5AA4D",
"k. c #E6B64D",
"l. c #E3A454",
"z. c #EBA256",
"x. c #E5AA53",
"c. c #E8AE54",
"v. c #E4A45B",
"b. c #EBA35C",
"n. c #E5AB5B",
"m. c #E9AC5B",
"M. c #F4A35D",
"N. c #F9A45E",
"B. c #F4AB5D",
"V. c #F9AB5F",
"C. c #E6B154",
"Z. c #EAB454",
"A. c #ECBB56",
"S. c #E4B35B",
"D. c #E9B45C",
"F. c #ECBB5B",
"G. c #F5B45D",
"H. c #F7BA5D",
"J. c #DC8A66",
"K. c #CB9160",
"L. c #DD9568",
"P. c #E49A64",
"I. c #EA9C61",
"U. c #F39F61",
"Y. c #C4AD68",
"T. c #DCA663",
"R. c #D8B865",
"E. c #E2A661",
"W. c #EDA262",
"Q. c #E4AC63",
"!. c #EBAB62",
"~. c #E5AA6B",
"^. c #F4A462",
"/. c #FAA661",
"(. c #F5AA62",
"). c #FFAB62",
"_. c #FBAC68",
"`. c #E5B363",
"'. c #EAB563",
"]. c #E6B867",
"[. c #EABB63",
"{. c #EAB46A",
"}. c #ECBB6B",
"|. c #F4B363",
" X c #FCB363",
".X c #FABB66",
"XX c #ABC65A",
"oX c #B7C858",
"OX c #B3CD5C",
"+X c #B9D059",
"@X c #BBD25C",
"#X c #A5C463",
"$X c #A7C465",
"%X c #ACCB62",
"&X c #B4CE63",
"*X c #B3CF69",
"=X c #BAD164",
"-X c #BED36B",
";X c #BFCB71",
":X c #B8D275",
">X c #C8C557",
",X c #D6C658",
"<X c #C4D55C",
"1X c #CAD95B",
"2X c #D8D75C",
"3X c #EEC54D",
"4X c #E9C956",
"5X c #EDC35D",
"6X c #F2C75D",
"7X c #F2CB5C",
"8X c #E7D558",
"9X c #ECD35C",
"0X c #EBDA5C",
"qX c #F1D35A",
"wX c #F1DC58",
"eX c #EFE35C",
"rX c #F2E25B",
"tX c #C9CA65",
"yX c #D4C865",
"uX c #C3D664",
"iX c #CAD866",
"pX c #C2D66A",
"aX c #D9DA68",
"sX c #C5D871",
"dX c #EEC364",
"fX c #EDC36B",
"gX c #EACA68",
"hX c #F3C563",
"jX c #F7C566",
"kX c #F1CB64",
"lX c #F1CC6B",
"zX c #E9DB67",
"xX c #F2D364",
"cX c #F2DA64",
"vX c #F1D46C",
"bX c #F2DA6D",
"nX c #EFC473",
"mX c #F1CC74",
"MX c #F1CB78",
"NX c #EED675",
"BX c #F2D775",
"VX c #DCE370",
"CX c #E6E56A",
"ZX c #F2E461",
"AX c #F4E57C",
"SX c #F2EC84",
/* pixels */
").).).).).).).y.).).).).).).).).).).).).).).).).).).).).).).).).).).).).).).).).).).).).).).).).).).).).).).).).).).).).).).).).",
").).).).).).N.b V.).).).).).).).V.N.V.).).).).).).).).).).).).).).).).).).).).).).).).).).).V.V.7X2X1XiX,Xd.(.).).).).M.,.^.).).",
").).).).).).4.7 4.).).).).N.2./.t.8.).).).).).).).).).).).).).).).B.M.q.r.).).).).).).).).).5X2XaX1XiXiXXX( ~ d.).).W.I.).).).).",
").).).).).N.7 m Z { /.).N.{ { S { u.V.).).).).).)./.*./.).).).r.} 8... .V.).).).).).)./.).,X2X1X1XiXsX-XXX^ ^ ~ d.K.W.).).).).).",
").).)./.n k D Z ..5.).).5.| S 9 2.V.).).).).).).).).).<.V.).0.{  .o.0.o.o.0. ./.).).).).f.>X+X+X@XuX:X:X$X( ) ~ ~.E.(.).).).).).",
").).)./.< n F 9 | | 9.| =.| 9 9 Q N.).).).).).).).).).V.e.y.V 0 3.3.0.x.o...V y.).).).p./ _ _ oXuX:X:XsXiX) ( Y._.R.$Xm.).).).).",
").).).y.j M F Z H | S #.%.C 0 9 } u.).).).).).).).).).M.P + % [ ..8.0.l.m.x.o.:.).).V.).M.O.-._ uX-XsXiX2X2X'.^._.*X#X$X`.).).).",
")./.5 j k 5 m 7 H | A #.#.G { S 2.).).).).).).).).).B.+.[ V 6  .l.a.0.x.n.m.l.$.:.M.).).V.V.).G.5XfXdXF..X|.W.).gXiX+X@X*X|.).).",
").).n j b < < 3 m H C G 6 A S S N.).).).).).).).).).>.:.v.:.:.:.m.m.].[.D.F.m.v.O.>.q.).).).).).).).hXxX;X' ] ).aXCX@X+X@XiX).).",
").).7.< k 5 , 3 b Z v 8 S A { | ).).).).).).).).).(.s.].Q.1.'.F.n.m.hXvXkXD.v.m.v.N.).).).).).). XCXVXuXoX` ` V.iXiX=X%XOX-X X).",
").)./.; > z 4 = 5 7 1 7 C { { { N.N._.).).).).).).!.dXnX~.1.}.fXs.a.5XxXlXfX(.b./.).).).).).).).aXsX=X#X$X` ` '.-X-X&X%X@XuX'.).",
").)./.R < d 4 * 5 3 7 F Z 7 9 S { { | ).).).).).(.1.BXmX{.].fX}.].dXgXgXdX|.).).).).).).).).).aX-X%X%X$X$XOX` f.yXiX=XOX*XpX[.).",
").).)./.4 & - * 2 5 k 7 5 = 3 8 0 } A 2.2.y.).).v.'.SXlX}.~.}.nXnXAXgXlXgX`.).).).).).).).).|.pX*X%X%X&X&X+XXXR.dXCX@X@X<X1X.X).",
").).).).).R . $ = > & 3 3 5 7 8 Z S { 5.N.).).V./.).lX].~.Q.{.lXNXNX].s.[.].b.).).).).).).).].=XuX&X$X$XOXXXXXQ. XCX<X@X&XpXH.).",
").).).).).).e   & 4 k b b 5 m Z Z Z 2.).).).).).).).|.n.,.1.Q.F.nXfXv.1. .0.v.b.).).).).).).yXuX>XOX&XOX) oXXX(.).hXCXuX1X=X).).",
").).).).).$._.$ & = d N F m n n Z n u.).).).).).).).!.1.;.<.v.l.B.(.;.;.:.%.8.e.).).).).).).d.yXf.+XXX+XOXOX`.).).).fXaXiXgX).).",
").).).).$./.).r.= < M b n b Y y.N.N.).).).).).).).).$.;.v.0.v.r.).).y.:.[ +.} %.).).).).).).s.yX_ XX+X1X&Xf.).).).)._.R.aX.X).).",
").).).).q.).).).V.6.4 k b b ).).).).^./.).).).).).V.r.M.1.+.Q.^.).).).q.%.b.r.V ^.).).).).).W.tXoX_ OX@Xg.).).).).).)._.nX).).).",
").).).).).).).).).).).t.R b /.).).)./.J.P.^./.).).).).).e.:.(.).).).).).).).).^.y.).).).).)./.f.] _ g. X).).).).).).).)._.).).).",
").).).).).).).).).).).V.)././.).).).).W.L.&.@.<.).).).).N.*.).).).).).).).).).).).)./.M.r.).).Y.n.).).).).).).).).).).).).).).).",
").).).).).).N.B.).).).).).).).).).).).).1.*.&.P P W.).).).P.).).).).).).).).).).9.#.w q ).).).).).).).).)._. X.X X).).).).).).).",
").).).).).).V.h.z.B.).).).).).).).).).).^.<.+.P *.).).).).).).).).).).).).N.4.M j 2 q e ).).).).).(.xX6X3XqX9XcX9XG.).).).).).).",
").).).).).).|.j.3.3.).).).).V.V.B./.).).).).).^.).).).).).).).).).).).).y.n M k k d w e ).).).).).).5XqX4X8X0XzXzX>X).).).).).).",
").).).).V.).F.Z.X.O.B.).). XH.G.c._.).).).).w.q.V.).).).).).).).).).).u.z M k z 2 4 d w ).).).).).).6X3Xk.3X4XzXaX,X|.).).).).).",
").).).).)..X7XA.l.h.x.).V.V.Z.j.C.).).).).)./.q q D ^.).).).).).).)./.Y k z k j b k k D ).).).).).). XrXeX0X,X,X,X>X_.).).).).).",
").).).).).).xXZ.n.x.[.F.).V.A.h.n.B.).).).).).f # # : v U.).).).).).Y M z z d d f b k s /.).).).V.).).qXeX8X0X4Xp.oX).).).).).).",
").).).).).).6XZ.dXS.fXmXdXD.A.k.S.x.b.).).).).z u - : d q Y ).).).w.I k k z s k b k k f ).).).).).).).jXZXrX8X8X3Xd.B.).).).).).",
").).).).).). X5X5Xd.fXfXmX6Xj.j.A.c.x.).).).).j d g d 2 - # U.).).I M f z d k f f k k 6.).).).).).).).V.7XwXwX9XH.(.b.).).).).).",
"V.).).B.(.).G.A.xX5X[.S.mXF.3.k.C.Z.B.).).).U.x h l : d a $ : /.^.U b k d 2 2 5 k k k E ).).).).).).).).).H.H. X).).).).).).).).",
"(.z.z.h.0.j.h.A.5X5Xd.h.S.l.3.j.x.h.B.).).).).l h d h d j d > z y.D N k : 2 k k j k k /.).).).).).).).).).).).).). X.X(.).).).).",
").B.h.3.h.x.h.c.A.A.d.C.h.3.O.j.A.A.F.D./.).).L j l k f 1 j > j w.I N b > , > 2 j 2 b ).).).).).).).).).).).).H.qXrXrXwXrX6XG. X",
").V.j.Z.Z.x.x.h.Z.k.5Xj.h.Q Q k.A.D.x.(.).).).7.x k j 4 2 u & j w.I N 3 1 2 4 , > 2 y.).).).).).).).).).).V. XwX8XeX0X0X4X9XqX.X",
").).H.A.Z.D.x.a.h.C.k.O.O.Q X.}  .s.M.).).).).U.z x d d 2 & o > u.I I 1 4 k k 4 > w.).).).).).).).).).).).).H.8X0X8X,X4X3X3XV.V.",
").).m.x.j.j.Z.Z.h.O.Q O.Q ! e [ [ 8.V.).).).).).T M l k d # = k ).B c 3 2 2 2 7 w.w.w.Y R B 2.y.).).).).).).H.4Xi.f.4XxX0X5X).).",
").).).).(.D.A.kXgXS.X.! % + e :.b.).).).).).).)./.U l d f j : D ).R & d j b 5.w.U I N z z 4 j j 4.M.).).).).G.p.>X2XzXcXqX X).).",
").).).).)..XF.dXF.n.! e e ! ).).).).).).).).).)././.4.k z u u F ).4.: n t.).r.F D D M z j > < < = f G ).).W.b.S.>X,XaX9X.X).).).",
").).).).).F.l.x...} % $.^.e.).).).).).).)./.4.E B I Y I.t.n 2 3 ).5.H ).).y.Y N N M c f > . = = = $ @ V ^./.).).(.yX5X|.).).).).",
").).).)._./.(./.(.^.).).).).e.).).).).).w.z z z j k M K 4.V.t.1 q.5.).).N.k v 3 M c h d = , = * , c N.).).).).).).)./.).).).).).",
").).).).).).).).).).).).).).L.).).).V.H d d f f d 2 f c s b r./.G G 5.C 1 s v D c c M k 4 = = = Z /.).).).).).).).).).).).).).).",
").).).).).).).).(.).).).).V.P.).).(.G @ s k z z 2 k k 1 k : : H @.c u.M.6.F N m b M b b 4 , < n ).).).).).I.*.b.(.).).).).).).).",
").).).).).).).).W.r =.I.).).).).)./.r.P 1 k M d k k d k k n u.).%.6.3 2.y.).u.T N M b k j k 6.).).).).).<.T P $.).).).).).).).).",
").).).).).).).).r.P +.@.P._.).).).).).).%.M k M k k k j b N.).).q.y.* > = 4 Y t.y.R E 4.y./.V.).).).).^.*.K.G ^.).).).).).).).).",
").).).).).).).).).*.+.&.=.L.^.).).).).)./.U.5.N k j k 4.).).).).w.y.> k d c N D 7.).).).).).).).).).).W.*.@.r.).).).).).).).).).",
").).).).).).).).).).I.E.P.I.I.).).).).).).).).)./.u.).).).).).r.)./.j M c k N N N N.).).).).).).).).).P.L.^.).).).).).).).).).).",
").).).).).L.V. X).).).).).).).).).).).).).).).).).).).).).).).I.)./.b M M M f f M U ).).).).).).).).).P.U.).).).).).).).).).).).",
").).).).b.`./.).).).).).).).).). XM.(.M.^.).).).).).).).).).).w.).).M k c z d 2 j k w.).).).).).).).).^.).).).).).).^.).).).).).",
").).).M.c.T.!.).).).).).).|.5X7XhX[.F.].P.).).).).).).).).).).e.).).E M M k = > d j 4.).).).).#.^.).).).).).).).).).D ).).).).).",
").).).m.`.E.'.B.).).)._.dXbXcXcXvXfXm.[.m.).).).).).).).).).).e.).).N.N j 4 > 2 > j R ).V.).).w.# v w.w.).).).).q.7.# /.).).).).",
").).M.fXD.n.c.v.).)./.[.bXvXbX}.dXdX[.S.B.).).).).).).).).).).=.).).).u.k , = = > k 4.).).).).5.t u p ; w.).).).1 . X U ).).).).",
").).Q.bX[.lXbXS./.).|.hXcXxXbXvXlXD.T.Q.).).).).)././.).).).).N.).).).).).R k < > = Y ).).).).# y d L L l y.).).u u l i I q.).).",
").).].BXdXbXSXBXB. XD.[.dXkXkXlXdX7XmXnX).).).).).).@ D /.).).).).).).).).V./.9.H : G ).).).).4.; h J J.I j R K l g K L y ^.).).",
")._.}.SX[.xXAXBX|.(.m.`.[.hX6X7XwXcXbX.X).).).).).).u O O U N.).).).).).).).).).V.r.%.).).).).).B f D T T | #.<.#.T L.L - ).).).",
").).`.mX'.D.MXmX{.b.n.a.d.5XqXkX}.7XjX).).).).).).).O O O p K ).).).).).).).).).).)./.).).).).).^.f G G $.2.0.W.<.L.L.x x ).).).",
").).{.nXE.n.nX}.(.v.s.a.`.'.kXnXSXMX_.).).).).).).y.y O o p i t.).).).).).).).).).).).).).).U.).).k F Y v 3.3.0.%.7.J.x l t.t.I.",
").).W.E.s.E.{.S./.,.a.Q.~.].fXnXnX/.).).).).).).)./.O O O y l J ).).).)./.U.w.r.y.).).).).).I J 6.j D C C S 0 2.A &.T l o X X N.",
").).V. .;.E.'.z.(.*.+.T.a.n.E.!.).).).).).).).).)./.p i y i l J /.).).E y y O . y.).).q.#.I t i g J Y #.G 6 0 Q C &.T i X X 5.).",
").).).q.s.n.m.M.r.).).)._._. X).).).).).).).).).).).U a g u u J ).).E i O o O M ).).).u.s X t x K J.&.=.| 2.0 { v <.J.i X h _.).",
").).).).3.+.M.e.).b.>.o.x.kXkXmXjX(.).).).).).).).).U.l g l d K _.7.h y O O O 6.).).).)./.D t L W W &.=.3.X.} A C J.L t t ^.).).",
").).).).).e.b./.:.1.>.3.v.F.5XF.D.n.m.B.).).).).).).).^.T z h I.).N l i y p a N.).).).).).).d l L J.E.e.%.o.%.C N v . i y.).).).",
").).).).).P.e.P r ! [ a.{.{.[.D.Q.>.O.a.r.).).).).).).).)./.P.).).J u i l a 7.).).).).).).).N i L W J.L.L.<.D v $ # Y ).).).).).",
").).).).).W.).r.r X.O.,.m.n.c.'.n.a.;.:.$.r.).).).).).).).).).^./.T d g l E /.).).).).).).).w.#.x x L W J.@.v g v /.).).).).).).",
").).).).P.).).).(.:.-.;.n.{.m.l.x.a.o.M.).).).).).).).).).).).^.).I.T 7.U./.).).).).).).).).).).).i i i g h i N _.=.).).).).).).",
").).).^.B./.).).).).b.;.L.n.W.b.z.M.).).).).).).).).).).).).).).)./.).).).).).).).).).).).).).).U.o t O t N 6.)./.b.e.).).).).).",
").).).W.).).).).).).).(. X).).).).).).).).).).).).).).).).).).).)./.).).).).).).).).).).).)./.).w.I.y._.).).).).).).e.^.).).).)."
};
