/* XPM */
static char *result[] = {
/* columns rows colors chars-per-pixel */
"64 64 246 2 ",
"   c #501B0E",
".  c #5A220F",
"X  c #5A2F16",
"o  c #61260F",
"O  c #632710",
"+  c #662A11",
"@  c #6E2E12",
"#  c #733418",
"$  c #533A2D",
"%  c #5D3E2D",
"&  c #653E2B",
"*  c #76431E",
"=  c #68432F",
"-  c #774327",
";  c #714F39",
":  c #664F44",
">  c #B3352E",
",  c #BB3738",
"<  c #C63A3A",
"1  c #85451F",
"2  c #854520",
"3  c #894622",
"4  c #864827",
"5  c #8B4A25",
"6  c #8C4D2A",
"7  c #944F26",
"8  c #934E2B",
"9  c #895226",
"0  c #8D522C",
"q  c #94532C",
"w  c #98562B",
"e  c #9A552D",
"r  c #904E31",
"t  c #9A5631",
"y  c #975934",
"u  c #9E5A33",
"i  c #A6482B",
"p  c #A44A35",
"a  c #BC4638",
"s  c #A15D36",
"d  c #A35E38",
"f  c #AB5C3A",
"g  c #916A33",
"h  c #A56335",
"j  c #A5623B",
"k  c #AB663E",
"l  c #AC6B3A",
"z  c #BB613B",
"x  c #B26C3C",
"c  c #A67B35",
"v  c #B9733F",
"b  c #C74536",
"n  c #CB4A36",
"m  c #C5413D",
"M  c #CC4C3B",
"N  c #D04A36",
"B  c #D04E3A",
"V  c #C8553A",
"C  c #D1553E",
"Z  c #D25A3C",
"A  c #D3633D",
"S  c #C9703D",
"D  c #D5783C",
"F  c #935C44",
"G  c #A15D42",
"H  c #98644B",
"J  c #9B6A57",
"K  c #A66847",
"L  c #B46A48",
"P  c #B97744",
"I  c #B5744E",
"U  c #A56E53",
"Y  c #A9735A",
"T  c #9D7560",
"R  c #A87965",
"E  c #B27D63",
"W  c #C94745",
"Q  c #C94C44",
"!  c #CC4D49",
"~  c #D14A42",
"^  c #CC5444",
"/  c #C75A43",
"(  c #CD5449",
")  c #D25543",
"_  c #D35B42",
"`  c #D1544B",
"'  c #D25C4C",
"]  c #D25C51",
"[  c #CB6746",
"{  c #D46343",
"}  c #D96B47",
"|  c #D4644A",
" . c #D36B4B",
".. c #C47C46",
"X. c #CA7648",
"o. c #D67644",
"O. c #DA7D44",
"+. c #D5734B",
"@. c #D9744D",
"#. c #D57B4C",
"$. c #DA7C4D",
"%. c #D46657",
"&. c #C17850",
"*. c #D87857",
"=. c #E1774C",
"-. c #C67F62",
";. c #D97A63",
":. c #99833C",
">. c #AF8E3C",
",. c #B18C49",
"<. c #9EAE4E",
"1. c #A8B64F",
"2. c #B1AC51",
"3. c #B5836D",
"4. c #AA8472",
"5. c #BA8A75",
"6. c #CB8648",
"7. c #DB8245",
"8. c #D2864C",
"9. c #DC834C",
"0. c #D58B4D",
"q. c #DD8B48",
"w. c #DA964C",
"e. c #CA8A58",
"r. c #DC8453",
"t. c #D58D54",
"y. c #DB8C54",
"u. c #D58559",
"i. c #DC8C5B",
"p. c #CF9658",
"a. c #DD9252",
"s. c #D79857",
"d. c #DD925B",
"f. c #E48D4E",
"g. c #E19B4A",
"h. c #E38A55",
"j. c #E88956",
"k. c #E29454",
"l. c #EB945B",
"z. c #E6985A",
"x. c #EB9D5C",
"c. c #F1965A",
"v. c #F29C5C",
"b. c #DDA14E",
"n. c #C3B14C",
"m. c #DAA559",
"M. c #DAB957",
"N. c #E2A34D",
"B. c #E4A94E",
"V. c #EBB74F",
"C. c #E7A654",
"Z. c #E6AA53",
"A. c #E3A65B",
"S. c #ECA35C",
"D. c #E5A95B",
"F. c #E9AB5B",
"G. c #F3A35D",
"H. c #F9A55F",
"J. c #F4AC5D",
"K. c #EAB355",
"L. c #EAB45C",
"P. c #E8B859",
"I. c #F7B95E",
"U. c #DD8966",
"Y. c #DE9668",
"T. c #C0917C",
"R. c #D69470",
"E. c #E99B61",
"W. c #F39F60",
"Q. c #DBA461",
"!. c #DAB865",
"~. c #ECA262",
"^. c #E6A963",
"/. c #E4AD64",
"(. c #F4A462",
"). c #FAA661",
"_. c #F5AC62",
"`. c #FFAB62",
"'. c #F2A56B",
"]. c #E5B264",
"[. c #EAB463",
"{. c #EABA66",
"}. c #EAB46B",
"|. c #F9B764",
" X c #E2A970",
".X c #F5AD79",
"XX c #E8B878",
"oX c #FAB478",
"OX c #ADCC5F",
"+X c #B5CA59",
"@X c #BBD25E",
"#X c #A7C563",
"$X c #B5CF67",
"%X c #B9D267",
"&X c #C7C456",
"*X c #D5C655",
"=X c #C9D65D",
"-X c #DFD05C",
";X c #EFC74E",
":X c #E7C656",
">X c #EEC35D",
",X c #F2CB5D",
"<X c #E9D559",
"1X c #EDD45D",
"2X c #F1D75A",
"3X c #EEE15D",
"4X c #C4D665",
"5X c #D3D667",
"6X c #EBC369",
"7X c #F1CC63",
"8X c #F2C966",
"9X c #E8D966",
"0X c #F1D66A",
"qX c #EDC474",
"wX c #F2CA73",
"eX c #F2DA75",
"rX c #F2E271",
"tX c #B59688",
"yX c #B8A399",
"uX c #C69A86",
"iX c #C7A393",
"pX c #D6AA95",
"aX c #D8AB94",
"sX c #D4AD9B",
"dX c #E7A689",
"fX c #F1B28F",
"gX c #E8AE94",
"hX c #E5BA94",
"jX c #EAB299",
"kX c #C6B2A8",
"lX c #D8B6A6",
"zX c #E2BEAD",
"xX c #EFC48F",
"cX c #F2EC84",
"vX c #E9C2AB",
"bX c #F4CAAC",
"nX c #E4C2B2",
"mX c #E9C7B6",
"MX c #EAC8B7",
"NX c #EDCCBC",
"BX c #EFCFC0",
"VX c #EFD0C1",
"CX c #F2D3C4",
"ZX c #F3D6C9",
"AX c #F0D8CD",
"SX c #F9EDE8",
/* pixels */
"`.`.`.`.`.`.`.v.`.`.`.`.`.`.`.`.`.`.`.`.`.`.`.`.`.`.`.`.`.`.`.`.`.`.`.S.6.v h 7 2 2 6 u x 6.k.).`.`.`.`.H.H.`.`.`.`.`.`.`.`.`.`.",
"`.`.`.`.`.`.H.{ `.`.`.`.`.`.`.`.H.H.`.`.`.`.`.`.`.`.`.`.H.`.`.`.H.8.t 2 1 1 2 1 2 7 7 5 1 1 2 2 >.2.=X4X&XM._.`.`.`.`.(.p.).`.`.",
"`.`.`.`.`.`.j.A j.`.`.`.`.H.h.`.v.f.`.`.`.`.`.`.`.`.`.`.`.`.`.0.9 2 2 5 q u j k K k k k k j s t 8 1 g 2.OX#X<.m.`.`.~.E.`.`.`.`.",
"`.`.`.`.`.H.Z } o.O.).`.).7.O.D 7.G.`.`.`.`.`.`.`.).p.J.`.G.k 2 1 7 s k K k k k j u u u u u j j k h u 5 g <.<.<.m.p.~.`.`.`.`.`.",
"`.`.`.H.{ { } o.y.h.`.).h.9.O.D q.H.H.`.`.`.`.`.`.`.`.d.x.t 1 3 u k k k j u 6 1 2 2 2 2 2 2 2 2 3 w s k t 9 <.<. XE.J.`.`.`.`.`.",
"`.`.`.).B } @.o.7.7.l.9.i.9.D D 7.H.`.`.`.`.`.`.`.`.`.H.q 1 8 j K k j q 1 1 1 1 2 2 2 2 2 2 2 2 2 2 2 3 w j r ,.'.!.#X/.`.`.`.`.",
"`.`.`.v.) } @.o.$.9.9.r.i.D o.D 7.v.`.`.`.`.`.`.`.`.`.l 1 0 l k k w 2 2 2 2 3 w y s j j j d d u q 6 2 2 2 2 q q s.%X#X#X[.`.`.`.",
"`.H._ ) _ C { A $.9.O.r.$.#.7.O.f.`.`.`.`.`.`.`.`.`.0.2 6 k k j 8 2 2 2 q d k k k k k k k k k k k k j t 5 2 2 6 t 4X@X@X$X[.`.`.",
"`.`.} ~ { B Z Z } $.o.$.S #.7.O.H.`.`.`.`.`.`.`.`.`.w 2 j k j 5 1 2 q j K k k k k k k k j k k k k k k k k j 5 2 3 >.%X+X@X5X`.`.",
"`.`.j.N ) C n V { o.S A o.o.o.S `.`.`.`.`.`.`.`.`.t.2 t k k q 1 2 s k k k k k k k k t e 7 6 3 5 5 6 q y j k k t 2 2 1.OX+X%X|.`.",
"`.`.H.M Q ' C n Z { V A #.7.x = e .._.`.`.`.`.`.`.l 2 k k t 1 4 h K k k k k j u 6 2 2 2 2 2 2 2 2 2 2 2 1 2 w j k 5 :.OX@X4X[.`.",
"`.`.`.=.M C ) b Z V A +.o.A d $ 4 7 u G.`.`.`.`._.9 t k j 2 4 j k k k k k u 5 1 1 2 1 2 2 2 2 1 2 1 2 2 2 2 2 2 6 u 0 OX$X4X{.`.",
"`.`.`.).) b b n n _ Z Z Z n 8 $ % 7 7 e q.v.`.`.t.1 h k w 2 u s t 0 K j 8 1 2 2 1 2 2 2 2 2 2 2 2 2 2 2 2 2 2 2 1 1 5 1.@X4XI.`.",
"`.`.`.`.`.=.> a M V b V Z Z p $ $ 4 7 7 ..`.`.H.0.5 k k 2 4 q 7 = = j 5 1 1 2 2 2 2 2 2 2 1 2 2 2 2 2 2 2 2 2 2 1 1 1 <.%X4X|.`.",
"`.`.`.`.`.`.I > b M | | A A f $ $ - 7 7 u H.`.`...q k u 4 7 q 4 $ % 5 2 1 2 2 2 1 2 2 2 2 2 2 2 2 2 2 2 1 2 1 1 1 1 1 ,.=X4XH.`.",
"`.`.`.`.`.t.).a a M ) | @. .V $ $ & q w e a.y.a.P w K y 7 7 7 & $ % 2 2 1 2 2 2 2 2 2 2 2 2 2 2 2 2 1 2 2 2 1 1 1 1 1 ,.4X9X`.`.",
"`.`.`.`.t.).`.v.n B { { | { *.; = r t s s t s s j k j q 8 7 6 $ $ & 2 2 2 2 2 2 2 2 2 2 2 2 2 2 2 2 2 2 2 2 2 2 2 2 2 P 5X|.`.`.",
"`.`.`.`.d.`.`.`.H.j.) _ { { `.P u s s t t s s s s s k k s 8 - $ $ & 2 2 2 2 2 2 2 2 2 2 2 2 2 2 2 2 2 2 2 2 2 2 1 2 2 ..qX|.`.`.",
"`.`.`.`.`.`.`.`.`.`.`.c.=.{ ..t u s t s s e e s u u s j k j = $ $ # 2 2 1 2 2 2 2 2 2 2 2 2 2 2 2 2 2 1 2 2 2 2 2 2 2 k.|.`.`.`.",
"`.`.`.`.`.`.`.`.`.`.`.`.`.fXmXCXNXvXuXK t s s t u u u s k k j & & 5 2 2 2 2 2 2 2 2 2 2 2 2 2 2 2 2 2 2 1 2 2 2 2 2 2 G.`.`.`.`.",
"`.`.`.`.`.`.H.G.).`.`.`.oXCXCXCXCXCXCXmXY s s s u u u u d x K u 2 2 2 2 2 2 2 2 2 2 2 2 2 2 2 2 2 2 1 1 2 2 2 2 2 2 l `.`.`.`.`.",
"`.`.`.`.`.`._.N.C.G.`.`.bXCXCXCXCXCXCXCXMXK t s u u s s T.sXlXsXR 2 2 2 2 2 2 1 2 2 2 2 2 2 2 2 2 5 1 1 2 2 2 2 2 2 a.`.`.`.`.`.",
"`.`.`.`.`.`.|.B.g.g.H.oXCXCXCXCXCXCXCXCXZXsXs t s u E mXCXCXCXCXnX2 2 2 2 2 2 2 2 2 2 2 2 2 2 u k k k 8 2 2 1 2 2 g `.`.`.`.`.`.",
"`.`.`.`.`.`.P.V.g.g.J.bXCXCXCXCXCXZXCXCXCXCXK s s Y NXCXCXCXCXCXCXR 2 2 2 2 2 2 2 2 2 2 2 2 u k k K k h 2 2 2 2 1 2._.`.`.`.`.`.",
"`.`.`.`.`.|.,XV.Z.B.Z.bXCXCXCXCXCXZXCXCXCXCXuXt u nXCXCXCXCXCXCXCXiX1 2 2 2 2 2 2 1 2 2 2 q x k K k k j 1 1 1 * >.&X|.`.`.`.`.`.",
"`.`.`.`.`.`.0XK.L.b.L.bXCXCXCXCXCXyX4.CXCXCXpXt 5.CXCXCXCXCXCXCXCXlX2 2 2 2 2 2 2 2 2 2 1 x z.k k k k s 1 1 1 c n.&X`.`.`.`.`.`.",
"`.`.`.`.`.`.qX}.XXXXqXbXCXCXCXCXVXtXyXBXCXCXlXu lXCXCXCXCXCXCXCXCXlX1 2 2 2 2 2 2 2 2 2 1 ..`.P k k j 8 1 1 c <X:Xm.G.`.`.`.`.`.",
"`.`.`.`.`.`.|.;X>X!.xXNXNXCXCXCXAXCXCXVXCXCXiXu VXCXVXkXlXCXCXCXCXiX1 2 2 2 1 2 2 2 2 2 1 0.`.0.k k u 1 1 >.2X1XI.H.G.`.`.`.`.`.",
"_.`.`.J.H.oXoXXXxXxXvXNXCXNXNXCXBXCXCXCXCXlXR U VXCXNX: yXCXCXCXCXR 1 1 2 2 2 2 2 2 2 2 1 k.H.y.k h 2 6 6.,XI.`.`.`.`.`.`.`.`.`.",
"`.C.C.g.g.B.B.K.:X:XhXNXNXNXNXCXCXCXCXVXAXlX: ; lXCXCXCXCXCXCXCXCXJ 1 1 1 1 2 2 2 2 1 2 1 S.`.0.k 3 l v.`.`.`.`.`.`.|.|.`.`.`.`.",
"`.S.N.N.N.Z.^.XXXXXXhXNXMXMXNXCXCXCXCXZXZXCXBXBXCXCXCXCXCXCXCXNXNXsX5.4.4.R H r 2 2 2 2 1 G.`.P x z.H.`.`.`.`.>X2X3X3X2X3X,XI.`.",
"`.`.B.K.K.F.Z.N.K.V.7XvXCXCXCXCXCXCXBXnXBXCXCXCXCXCXCXZXCXCXNXNXBXzXR R U F 2 2 2 2 2 1 1 H.H.G.H.`.`.`.`.`.`.2X2X3X3X<X;X1X1X|.",
"`.`.|.P.K.P.Z.b.N.B.Z.A.MXCXCXCXCXCXAXiXCXVXCXCXCXCXCXCXCXCXCXNXBXnXH F H U R H 0 2 2 2 9 `.H.H.`.`.`.`.`.`.,X,X<X<X*X:X;X;XI.).",
"`.`.L.Z.Z.Z.K.K.N.w.6.w.e.zXCXCXCXCXCXAXkXkXlXCXCXCXCXCXCXCXNXNXmXsX5.4.J 2 2 2 2 2 2 2 8 @.j.v.`.`.`.`.`.`.I.:XM.*X<X<X<X>X`.`.",
"`.`.`.`.J.K.:X8X8X6.u l k H aXNXCXCXCXZXSXZXCXCXCXCXCXCXCXCXCXCXlX6 2 2 F T H 4 2 1 2 2 8 ) C ) j.G.`.`.`.`.`.2.1.-X9XrX1X`.`.`.",
"`.`.`.`.`.|.I.P.P.u s K K e.H.fXvXVXCXCXZXZXCXCXCXCXCXCXCXCXnXtX6 2 2 2 2 2 2 2 2 2 2 1 i M B B n V u.`.`.~.S.P.&X-X9X<X|.`.`.`.",
"`.`.`.`.`.[.C.A.R.aXjXjXjXjXfX.X`.E.lXNXMXNXNXNXNXNXmXzXpXY 4 2 2 2 2 2 2 2 2 2 1 5 1 1 i b b n n a p &.).`.`.`._.6XM.I.`.`.`.`.",
"`.`.`.`._.).'.dXjXjXjXjXjXjXjXjXgXE CXCXCXVXVXuXI K s f #.1 2 2 2 2 2 2 2 2 2 2 1 1 1 1 i N n b N [ H.`.`.`.`.`.).`.`.`.`.`.`.`.",
"`.`.`.`.`.v.L L I -.R.dXjXjXgXdXR.R VXCXCXCXCXpXs t t s / 7 2 2 2 2 2 2 2 2 2 2 1 1 1 1 a n N n } H.`.`.`.`.`.`.`.`.`.`.`.`.`.`.",
"`.`.`.`.`.d O @ # @ # G I L G 4 + # iXCXCXCXCXzXt s s t Z p 2 2 2 2 2 2 2 2 2 2 1 1 1 1 a N B } `.`.`.`.`.E.d.E._.`.`.`.`.`.`.`.",
"`.`.`.`.G.o o @ @ @ @ @ @ @ @ @ @ d F ZXCXCXCXVXs s u u V / 2 2 2 2 2 2 2 2 2 2 2 2 2 2 V _ c.).`.`.`.`.y.u.&.y.`.`.`.`.`.`.`.`.",
"`.`.`.`.k.o . @ @ @ @ @ @ # @ @ @ 4 d zXCXCXCXZXK u u u z H.7 2 2 2 2 2 2 2 2 2 2 2 2 2 v.).`.`.`.`.`.~.U.e.u.(.`.`.`.`.`.`.`.`.",
"`.`.`.`.0.o o @ @ @ @ @ @ @ @ @ @ @ f lXCXCXCXCXU u t s q v h 2 2 2 2 2 2 2 2 2 2 2 2 j `.`.`.`.`.`.`.~.t.u.x.`.`.`.`.`.`.`.`.`.",
"`.`.`.`.z.o o + # @ @ @ @ @ @ @ @ @ r lXCXCXCXCXK s s e e 7 7 3 2 2 2 2 2 2 2 2 2 2 2 ..`.`.`.`.`.`.).E.Y.'.`.`.`.`.`.`.`.`.`.`.",
"`.`.`.`.H.0 O o @ @ @ @ @ @ @ @ @ # J VXCXCXMXiXs e s s w 7 7 7 5 2 2 2 2 2 2 2 2 2 2 h.`.`.`.`.`.`.`.E.'.`.`.`.`.`.`.`.`.`.`.`.",
"`.`.`.`.F.m.# o + @ + @ @ + @ + @ @ U T.uXR s p u u t s e 7 7 7 8 6 2 2 2 2 2 2 2 2 2 G.`.`.`.`.`.`.`.~.`.`.`.`.`.`.(.`.`.`.`.`.",
"`.`.`.J.F.m.s.- . + O @ + + O @ * u t s s t u u s u u 8 7 q w u e e 6 2 2 2 2 2 2 2 t `.`.`.`.r.W.`.`.`.`.`.`.`.`.`.+.`.`.`.`.`.",
"`.`.`.F.[.^.[.A.0 . . . . . O g 6X,.s s t s t s 3.sX7 e e s u u s t s 6 2 2 2 2 1 2 z `.`.`.`.l.G [ l.c.`.`.`.`.j.h.a `.`.`.`.`.",
"`.`.G.6XP.A.Z.D.H.P       X 2.}.M.uXuX5.T.uXlXNXNXNXw s u u u u u u u t 4 2 2 2 2 2 *.`.`.`.`.j.< ~ ~ ~ l.`.`.`./ , , @.`.`.`.`.",
"`.`.^.eX6XwX0XP.`.`.m.g :.:X0XwXP 3.ZXCXCXZXCXCXZXT.u u u u u u u u u u 6 2 2 2 2 i $.`.`.`.`.a ~ ~ ] %.) v.`.`.Q W ] ! %.l.`.`.",
"`.`.].eX6X0XcXeXJ.`.L.6X7X7X8X6Xu s NXCXCXCXCXCXpXu u u u u u u u u u u 0 1 1 1 3 a #.`.`.`.`.h.N ] %.U.*.) =.| ) ( *.%.W (.`.`.",
"`.`.{.cX{.0XrXeX_._.D.[.L.8X1Xb.u u sXCXCXCXCXCXK u u u u u u u u u u u q 1 1 1 6.x.i.`.`.`.`.`.} ^ *.*.*.*.r.z.r.*.U.%.< `.`.`.",
"`.`.].wX].L.wXwX}.S.A.m.m.>X1Xm.u u Y CXCXCXCXzXu u u u u u u u u u u u q 2 2 u H.`.`.`.`.`.`.`.W.) $.#.t.y.g. Xk.U.Y.] ] `.`.`.",
"`.`.[.qX^.D.qX{.(.A.m.m.[.[.7X6Xu u s lXCXCXCXlXu u u u u u u u u u u u 6 2 6 x.`.`.`.`.`.`.(.`.`._ +.$.S f.g.g.y.i.U.] ` v.v.l.",
"`.`.'./.m.Q.}.L.).s.m.D./.}.6XqXP u u K NXCXCXlXu u u u u u u u u u u u 3 3 8.x.G.`.`.`.`.`. .%.j.) @.o.o.o.D q.O.u.*.] < , , v.",
"`.`.).t.p.A.[.S.).e.e.Q.m.D.A.^.x.s u u 3.VXCXBXu u u u u u u u u u u q 3 m < , v.`.`.h.*.@.W ! ` %.*.r.#.S D 7.X.u.*.! < , h.`.",
"`.`.`.z.m.D.D.G.x.`.`.`.|.|.`.`.).k.u u u 5.CXCXuXs s t u u u u u u t p m < < { `.`.`.G./ , ! ] %.u.u.r.q.7.D O.o.U.U.! , ( `.`.",
"`.`.`.`.f.e.(.E.`.S.z.w.Z.8X7XwX8XH.y.s t s E mXMXY e s u u u u u L ( W < < < c.`.`.`.`.`. .W %.;.;.U.i.a.w.7.O. .u.%.! W ~.`.`.",
"`.`.`.`.`.z.E.`.a.z.z.g.F.P.>XP.L.A.F.d.k u u d gXzXU s u u u u k.%.) Q W ~ ~ H.`.`.`.`.`.`.( ( %.U. Xz.a.w.t.+.@.%., Q G.`.`.`.",
"`.`.`.`.I.Y.E.P P ,.6.m.}.}.}.P.!.b.0.w.q.s u u x `.'.v u u u u G.| Q ( ~ ~ j.`.`.`.`.`.`.`. .! %.;.Y.Y.d.d.+.[ a a $.).`.`.`.`.",
"`.`.`.`.`.~.`.S.,.0.w.m.F.F.Z.L.A.h u u u u u u u G.`.`.0.s s u X.*.( ( ` =.`.`.`.`.`.`.`.`.l.*.%.%.%.;.U.u. .( [ _.`.`.`.`.`.`.",
"`.`.`.`.z.`.`.`.H.w.p.p.D.}.D.F.C.x u u u u x v ..v.6.....s u u y E.*.j.W.`.`.`.`.`.`.`.`.`.`.`.`.! W ! ( ( !  .'.y.`.`.`.`.`.`.",
"`.`.`.G.(.`.`.`.H.`.S.t.Y.D.^.S.C.G.z.k.z.H.`.`.`.k t t u u u u s W.`.`.`.`.`.`.`.`.`.`.`.`.`.`.c.W m m W  .j.`.`.G.z.`.`.`.`.`.",
"`.`.`.S.`.`.`.`.`.`.`.`.J.`.`.`.`.`.`.`.`.`.`.`.`.k.x s k ..z.G.).(.`.`.`.`.`.`.`.`.`.`.`.`.`.`.l.c.W.'.`.`.`.`.`.`.z.(.`.`.`.`."
};
