/* XPM */
static char *result[] = {
/* columns rows colors chars-per-pixel */
"64 64 246 2 ",
"   c #521C0F",
".  c #5A220F",
"X  c #61260F",
"o  c #632710",
"O  c #662A11",
"+  c #6E2E12",
"@  c #76291E",
"#  c #733418",
"$  c #533A2D",
"%  c #5D3E2D",
"&  c #653E2B",
"*  c #7E3025",
"=  c #68432F",
"-  c #774328",
";  c #6C5238",
":  c #664F44",
">  c #9F3A32",
",  c #BB3638",
"<  c #C1383A",
"1  c #85451F",
"2  c #854520",
"3  c #874826",
"4  c #8B4A25",
"5  c #8D4D29",
"6  c #944F26",
"7  c #904F2A",
"8  c #94522C",
"9  c #99552D",
"0  c #98582B",
"q  c #8D5031",
"w  c #9A5631",
"e  c #9E5A33",
"r  c #985835",
"t  c #A4522E",
"y  c #A54B34",
"u  c #BB443C",
"i  c #A15E35",
"p  c #A35E38",
"a  c #A95938",
"s  c #B75539",
"d  c #9D6030",
"f  c #A56634",
"g  c #A5623B",
"h  c #AB663E",
"j  c #AC6B3B",
"k  c #B26D3C",
"l  c #A87038",
"z  c #B8743E",
"x  c #C6433D",
"c  c #CA493B",
"v  c #CB523B",
"b  c #C96D3B",
"n  c #D27939",
"m  c #935C44",
"M  c #A95841",
"N  c #99644C",
"B  c #9B6A57",
"V  c #A66846",
"C  c #B86A46",
"Z  c #AE7745",
"A  c #BA7744",
"S  c #A56E53",
"D  c #A9735A",
"F  c #B97053",
"G  c #9D7560",
"H  c #A87965",
"J  c #B27D63",
"K  c #C84945",
"L  c #CC4D49",
"P  c #CB5646",
"I  c #D15544",
"U  c #D1554B",
"Y  c #D25C48",
"T  c #CD5C51",
"R  c #CA6746",
"E  c #D66748",
"W  c #C77746",
"Q  c #C37B45",
"!  c #D5734B",
"~  c #D87849",
"^  c #D46657",
"/  c #C77856",
"(  c #D87958",
")  c #E0754B",
"_  c #D67965",
"`  c #BB893F",
"'  c #CB823E",
"]  c #88974D",
"[  c #969F50",
"{  c #B28546",
"}  c #9EB250",
"|  c #A6B74E",
" . c #A4B957",
".. c #B7B451",
"X. c #B5836D",
"o. c #AA8472",
"O. c #BA8A75",
"+. c #99B56A",
"@. c #BCAE68",
"#. c #CA8648",
"$. c #D98847",
"%. c #D48B4C",
"&. c #CA954B",
"*. c #DB924A",
"=. c #DB924C",
"-. c #DC9A4B",
";. c #CD8856",
":. c #DB8453",
">. c #DC8C53",
",. c #D68758",
"<. c #DB8C5B",
"1. c #CF9658",
"2. c #D39355",
"3. c #DC9252",
"4. c #DD9D54",
"5. c #DD935C",
"6. c #D79A58",
"7. c #E1994B",
"8. c #E68955",
"9. c #E29454",
"0. c #E89659",
"q. c #E59B5C",
"w. c #EB9D5B",
"e. c #F29C5C",
"r. c #DBA657",
"t. c #CFB151",
"y. c #DAB959",
"u. c #E3A34D",
"i. c #E7AB4F",
"p. c #EBB74F",
"a. c #E3A354",
"s. c #E5AB53",
"d. c #E3A55C",
"f. c #EBA559",
"g. c #E5AA5B",
"h. c #E9AC5B",
"j. c #F4A35D",
"k. c #F9A65F",
"l. c #F5A95D",
"z. c #F8AA5F",
"x. c #E9B355",
"c. c #E8B657",
"v. c #E9B45C",
"b. c #EDBC5D",
"n. c #F6B75D",
"m. c #DD8966",
"M. c #D3926F",
"N. c #DD9568",
"B. c #C0917C",
"V. c #E79B62",
"C. c #C4AE6C",
"Z. c #DBA764",
"A. c #D7B765",
"S. c #ECA261",
"D. c #E6A863",
"F. c #E4AD63",
"G. c #F4A461",
"H. c #FAA561",
"J. c #F4AC62",
"K. c #FFAB62",
"L. c #FBAB6C",
"P. c #E6B264",
"I. c #EAB463",
"U. c #EBBB64",
"Y. c #E9B569",
"T. c #F6B666",
"R. c #FCB363",
"E. c #FABA64",
"W. c #EFAA73",
"Q. c #FBB179",
"!. c #ABC65A",
"~. c #B6C756",
"^. c #B3CD5C",
"/. c #B9D05A",
"(. c #BBD25C",
"). c #A5C463",
"_. c #A9C763",
"`. c #B3CE63",
"'. c #BACF67",
"]. c #BAD266",
"[. c #B8D274",
"{. c #DDC04F",
"}. c #C7C557",
"|. c #D7C658",
" X c #C7D75C",
".X c #D8D85B",
"XX c #EEC54D",
"oX c #E8C956",
"OX c #EDC35D",
"+X c #F1CB5D",
"@X c #E9D75B",
"#X c #EDD45D",
"$X c #F1D95B",
"%X c #EFE25C",
"&X c #C2D564",
"*X c #C8D867",
"=X c #CDD26A",
"-X c #D8D966",
";X c #EDC363",
":X c #EDC36B",
">X c #EAC869",
",X c #F3C462",
"<X c #F1CB64",
"1X c #F2C56C",
"2X c #F1CD6B",
"3X c #EADB66",
"4X c #F2D464",
"5X c #F2D86A",
"6X c #EDC976",
"7X c #F0C677",
"8X c #F1CD75",
"9X c #E9D273",
"0X c #F2DA74",
"qX c #DCE370",
"wX c #ECE46E",
"eX c #B59688",
"rX c #B8A399",
"tX c #C69986",
"yX c #DF9E88",
"uX c #C7A393",
"iX c #D6AA96",
"pX c #D9AA93",
"aX c #D4AD9C",
"sX c #E6A487",
"dX c #F4B885",
"fX c #E8AE94",
"gX c #EAB299",
"hX c #EAB89E",
"jX c #F5BC98",
"kX c #C6B2A8",
"lX c #D8B6A6",
"zX c #E3BDAC",
"xX c #ECCD94",
"cX c #F2EC84",
"vX c #F0C8AB",
"bX c #F1D9A9",
"nX c #E4C2B2",
"mX c #E9C7B6",
"MX c #ECC8B6",
"NX c #EDCCBC",
"BX c #EFCFC0",
"VX c #EFD0C1",
"CX c #F2D3C4",
"ZX c #F3D6C9",
"AX c #F0D8CD",
"SX c #F9EDE8",
/* pixels */
"K.K.K.K.K.K.K.e.k.K.K.K.K.K.K.K.k.9.#.k d 4 4 2 7 f z %.w.k.K.K.K.K.K.K.K.K.K.K.K.K.K.K.K.K.z.K.K.K.K.K.z.z.R.K.K.K.K.K.K.K.K.K.",
"K.K.K.K.K.K.H.E k.K.K.z.K.K.9.k 3 1 1 1 4 4 4 4 1 1 1 1 4 9 %.k.K.K.K.K.K.K.K.K.K.K.K.K.K.K.z.z.+X.X.X*X}.r.K.K.K.K.K.G.2.G.K.K.",
"K.K.K.K.K.K.) v 8.z.K.k.3.0 1 7 w g g V h h h h h p e 8 4 2 2 6 %.j.j.9.f.K.K.K.K.K.K.K.K.L.OX.X-X*X*X&X!.| } r.K.L.S.w.K.K.K.K.",
"K.K.K.K.K.e.) n ~ ~ j.j 4 w g j g p i e w i i p h h h V g i 7 1 1 e $.$.H.K.K.K.K.K.K.K.K.|..X X X*X*X].!. .} } r.1.S.K.K.K.K.K.",
"K.K.K.k.E b ! ~ :.W 7 e g i 8 4 2 2 2 2 2 2 2 2 2 7 e p h h h i 3 1 0 %.3.0.%.G.K.K.K.H.t./.~. X X&X[.[.). . .} W.V.J.K.K.K.K.K.",
"K.K.K.k.c E ~ E b 7 i w 4 1 2 1 2 2 2 2 2 2 2 2 2 2 2 2 8 p h V g 5 1 0 *.=.W j.K.K.K.t.| t...~.].[.[.*X*X .| C.J.A.).h.K.K.K.K.",
"K.K.K.e.I E ) b 9 w 2 2 1 1 4 8 e e g g g p i e 8 4 1 2 2 2 w g j h 7 1 j s.-.>.K.K.K.K.l.-.&.~.&X[.*X-X.X-XP.G.Y.'.)._.P.K.K.K.",
"K.k.I I Y v E 9 4 2 1 4 e g V h h h h h h h h h h h p 8 4 2 2 4 g h h 5 2 &.d.%.3.w.K.K.K.K.k.T.OX>XOXb.E.T.d.K.>X-X(.`.`.T.K.K.",
"K.K.E I Y v t 3 2 5 e V h h h h g V h h h h h h h h V h g 8 1 1 4 g h g 2 0 h.d.3.4.0.K.K.K.K.K.H.K.,X4X=X+.@.K.-XqX(.(.(.=XK.K.",
"K.K.8.c I v 1 3 e h h g e 8 5 4 2 4 7 7 8 t g h h h j h h g i 4 2 7 h h w 2 &.h.a.k.K.K.K.K.K.k.4.-XqX&X_.+.+.G.*X*X`.^.^.].K.K.",
"K.K.k.c v y 4 g g 8 2 2 2 2 1 1 2 2 2 2 2 2 2 5 t V h h h h h g 4 1 w h h 4 k f.H.K.K.K.K.k.%.0 &  .`.).).).+.A.&X&X^._.`.&XU.K.",
"K.K.K.~ c 5 e 5 1 1 2 2 2 2 2 1 2 1 2 2 2 2 2 2 1 4 i h h h h h p 2 4 h h 9 5 K.K.K.K.K.e.f 6 - $ ] `.).).!. .A.=X*X].^.].&XU.K.",
"K.K.K.H.v 5 1 2 2 2 2 2 2 2 2 1 2 2 2 2 2 1 2 2 1 1 2 7 g h q e i e 1 9 h g 2 w.K.K.K.k.i 6 6 % $ ] `._.`./.!.A.oXwX(.(. X*Xn.K.",
"K.K.K.K.#.1 2 2 2 2 2 2 2 2 2 2 2 2 2 2 2 2 2 2 1 1 2 2 4 f % = 7 8 4 1 h h 2 =.K.K.k.#.6 6 3 $ $ ] _._.^.!.!.r.T.wX X/.`.&XE.K.",
"K.K.K.K.Q 1 2 1 2 2 2 1 2 2 2 2 2 1 2 2 2 2 2 2 2 2 2 2 1 4 % $ 3 6 6 3 e g 8 A K.K.K.e 6 6 - $ $ [ `.!.!.~.!.K.K.:X-X*X X].K.K.",
"K.K.K.K.A 2 2 2 2 2 2 2 2 2 2 2 2 2 2 2 2 2 2 2 2 2 1 2 1 1 % $ = 7 6 6 w V w j 9.3.>.w 9 6 & $ $ | ^./.^.^.Z.K.K.K.:X-X-X3XK.K.",
"K.K.K.K.g 1 1 1 2 1 2 2 2 2 2 2 2 2 2 2 2 2 1 2 2 2 2 2 1 2 % $ $ 4 6 6 9 g h g i i w i e e q = ; !./. X`.A.z.K.K.K.J.A.-XE.K.K.",
"K.K.K.K.A 1 2 1 2 2 2 2 2 2 2 2 2 2 2 2 2 2 2 2 2 2 2 2 2 2 = $ $ - 8 i h h p i e i i w e e d e {  .^./.y.K.R.K.K.K.K.K.:XL.K.K.",
"K.K.K.K.>.2 2 2 2 2 2 2 2 2 2 2 2 1 2 2 2 2 2 2 2 2 2 2 2 2 - $ $ = g h g i i w e e w i e e r e w { y.R.K.K.K.K.K.K.K.K.L.K.K.K.",
"K.K.K.K.j.2 2 2 2 2 2 2 2 2 1 2 2 2 2 2 2 2 2 2 2 2 1 2 2 2 1 & % g h h i w w i e e i w g uXnXVXCXnXdXK.K.K.K.K.z.K.K.K.K.K.K.K.",
"K.K.K.K.K.j 1 1 2 2 2 2 1 2 1 1 2 2 2 2 2 2 2 2 2 2 2 2 2 2 2 1 e h h p w i w i e e e D mXCXCXCXCXCXCXQ.R.R.R.E.R.K.K.K.K.K.K.K.",
"K.K.K.K.K.3.1 1 2 2 1 2 2 1 4 4 2 2 2 2 2 1 2 2 2 2 2 2 2 2 1 H lXlXaXB.g w i w e e S MXCXZXCXCXCXCXZXMXXX+X$X3X#Xn.K.K.K.K.K.K.",
"K.K.z.K.K.K.d 1 2 2 1 1 7 g h h e 2 2 2 2 2 2 2 2 2 2 2 2 2 3 nXCXCXCXCXmXJ w i i i aXCXCXCXCXCXCXCXCXCX8X@X@X3X3X}.K.K.K.K.K.K.",
"K.K.K.K.K.z.r.2 2 2 1 4 p h h h g e 2 1 2 2 2 2 1 2 2 2 2 2 H CXCXCXCXCXCXNXJ w t S CXCXCXCXCXCXCXCXCXCXxXp.oX3X3X}.T.K.K.K.K.K.",
"K.K.K.K.K.E.+X` 1 1 1 1 h h h h V h 6 4 2 1 2 2 2 2 2 2 3 1 uXCXCXCXCXCXCXCXnXe e tXCXCXCXCXAXCXCXCXCXCXbX$Xp.}.|.}.K.K.K.K.K.K.",
"K.K.K.K.K.K.5Xx.l 1 1 1 i h h h h 9.k 1 2 2 2 2 2 2 2 2 1 1 aXCXCXCXCXCXCXCXCXO.e aXCXCXCXo.rXVXCXCXCXCXbX.X3XoXt...K.K.K.K.K.K.",
"K.K.K.K.K.K.E.p.;Xf 1 2 7 V h h Z s.k 1 2 2 2 2 2 2 2 1 1 1 lXCXCXCXCXCXCXCXCXlXw aXCXCXCXrXeXVXCXCXCXCXbX%X9X9X>XZ.S.K.K.K.K.K.",
"K.K.K.K.K.z.R.OXOXt.Z 2 2 t j h &.i.#.1 2 2 2 2 2 2 2 2 1 1 uXCXCXCXCXlXkXCXCXCXg uXCXCXCXCXVXVXCXCXCXNXNXxX4X#XU.K.S.R.K.K.K.K.",
"z.K.z.z.z.R.n.p.#XOXU.{ 4 2 h j &.x.%.1 1 1 2 2 2 2 1 1 1 1 H CXCXCXCXrX: NXCXBXD G lXCXCXCXCXCXCXNXNXNXNXvXdXdXQ.Q.L.K.K.K.K.K.",
"K.a.f.u.u.u.u.b.OXOXr.u.r.l 1 f #.u.q.1 1 1 1 2 2 2 1 1 3 1 B CXCXCXCXCXBXCXZXlX; ; lXAXCXCXCXCXCXNXNXNXBXjXK.K.K.R.E.K.R.K.K.K.",
"K.j.u.-.u.i.u.x.c.c.r.x.u.u.' f z c.y.1 1 2 2 2 q N H o.X.X.aXMXNXCXCXCXCXCXCXCXNXCXCXCXCXCXCXCXCXNXNXNXNXjXdX7X8X0X%X%X$X+Xn.K.",
"K.K.i.x.x.s.a.u.x.p.+Xi.u.' ' p.s.c.i.1 1 2 2 2 2 2 m B H o.nXNXMXNXCXCXCXCXCXCXCXCXCXZXmXNXCXCXCXCXCXNXvXK.K.$X@X%X3X@XoX#X#XE.",
"K.K.n.b.x.v.s.u.u.x.x.*.7.' *.$.%.r.j.4 2 2 2 5 N H B N m N nXCXNXCXCXCXCXCXCXCXCXZXCXZXuXCXCXCXCXCXCXMXL.K.E.@X@X@X{.oXXXXXz.K.",
"K.K.h.s.i.i.c.x.u.-.' -.#.z Z #.#.4.K.i 2 2 2 2 1 2 2 B o.O.aXMXNXNXCXCXCXCXCXCXCXlXkXkXAXCXCXCXCXCXMXL.K.G.n.oX{.t.oX3X@X+XK.K.",
"K.K.K.K.z.c.b.<X:Xh.%.#.l q Z 3.f.K.K.f 2 2 2 2 4 N D m 1 1 5 lXCXCXCXCXCXCXCXCXCXCXZXSXAXZXCXBXNXhXK.K.Q e #.t.~..X3X3X+XR.K.K.",
"K.K.K.K.K.U.b.b.b.g.#.l V 1.K.K.K.K.K.k 2 2 2 2 2 2 2 2 2 1 - 5 eXmXNXCXCXCXCXCXCXCXCXCXZXZXBXzX_ P ,.0.M i e r.}.|.3X#X,XK.K.K.",
"K.K.K.K.z.v.s.s.*.$.z %.j.q.K.K.K.K.K.Q 1 2 2 2 2 2 2 2 2 2 2 2 2 4 D pXzXMXNXNXNXNXmXmXMXzX/ x _ yXfXgXgXgXpXW.R.A.y.n.K.K.K.K.",
"K.K.K.K.L.L.H.H.j.j.K.K.K.L.q.K.K.K.H.#.2 2 2 2 2 2 2 2 2 2 2 2 1 1 1 w.b e V D tXBXVXCXCXBXH yXgXhXgXfXgXgXgXfXsXL.K.K.K.K.K.K.",
"K.K.K.K.K.K.K.K.K.K.K.K.K.K.6.K.K.K.K.C 2 2 2 2 2 2 2 2 2 2 2 2 2 2 9 ! i w w e aXCXCXCXCXBXH M.sXgXgXfXsXM.M.F C C w.K.K.K.K.K.",
"K.K.K.K.K.K.K.K.J.K.K.K.K.K.V.K.K.K.! y 2 2 2 2 2 2 2 2 2 2 2 2 2 2 W 9.i i w i zXCXCXCXCXuX@ + - M F F m # + + O X g K.K.K.K.K.",
"K.K.K.K.K.K.K.K.S.A <.V.K.K.K.K.K.H.w.W 3 2 2 2 2 2 2 2 2 2 2 2 2 1 s ~ e e e i BXCXCXCXAXm M + + + + + + + + + + X X j.K.K.K.K.",
"K.K.K.K.K.K.K.K.V./ ;.,.V.K.K.K.K.K.K.K.3 2 2 2 2 2 2 2 2 2 2 2 2 5 x s e e e V CXCXCXCXzXr 3 O + + + # + + + + O X X 9.K.K.K.K.",
"K.K.K.K.K.K.K.K.K.,.;.,.m.N.V.K.K.K.K.K.f 2 2 2 2 2 2 2 2 2 2 2 1 f t 6 e e e D CXCXCXCXlXa + + + + + + + + + + O X X %.K.K.K.K.",
"K.K.K.K.K.H.K.K.K.K.V.D.S.V.G.H.K.K.K.K.Q 2 2 2 2 2 2 2 2 2 2 2 4 6 6 9 e e e V CXCXCXCXzX8 + + + + + + + + + + O o X w.K.K.K.K.",
"K.K.K.K.K.4.K.K.K.K.K.K.K.K.K.K.K.K.K.K.>.1 2 2 2 2 2 2 2 2 2 4 6 6 6 9 i t e w uXMXCXCXCXB # + + + + + + + + + o o d K.K.K.K.K.",
"K.K.K.K.h.F.H.K.K.K.K.K.z.K.K.z.H.z.l.l.w.2 2 2 2 2 2 2 2 2 5 7 6 6 6 9 e e i i t i J tXB.B # + + + O + + + + O o # q.K.K.K.K.K.",
"K.K.K.l.g.D.D.K.K.K.K.K.R.T.OX+X<XU.b.I.V.j 2 2 2 2 2 2 2 5 9 w 9 9 6 6 0 w i w e e e e w i i # + O + O + . O . - q.! K.K.K.K.K.",
"K.K.z.h.P.d.Y.J.K.K.K.K.;X5X5X5X2X1XF.U.h.%.2 2 2 2 2 2 5 e e e w i i 9 8 6 aXX.e e e e i w Q >.# . . . . . . q :.8., K.K.K.K.K.",
"K.K.j.:Xc.d.s.g.K.K.K.b.5X2X0X:X<X;XI.v.l.j.4 1 2 1 2 2 e e e e e e i i i 9 NXCXNXaXuXB.O.tXtX:.x > .       A H.P , , ! K.L.K.K.",
"K.K.F.0XU.8X5Xc.H.K.I.;X4X4X5X2X<Xv.Z.F.R.K.Q 2 2 2 2 5 e e e e e e e w w i O.CXCXCXCXCXCXCXX.y c L T 3 * >.K.K.v K T L ! 0.K.K.",
"K.K.P.0X:X5XcX0Xl.K.v.U.;X<X2X2XOX<X8X6XK.K.j.4 2 2 2 5 e e e e e e w i i w e iXCXCXCXCXCXNXe e x T ^ _ ( I ( E U U ^ ^ K H.K.K.",
"K.L.Y.cX:X4X0X0XT.J.h.P.b.,X+X+X$X4X0XE.K.K.K.#.2 2 2 q e e e e e e i i w i e S CXCXCXCXCXaXe e b Y ! _ ( ~ 8.V.:.( N.^ < H.K.K.",
"K.K.P.8Xg.U.8X8XY.f.g.6.r.OX$X<X2X4X1XK.K.K.K.k.i 2 1 7 e e e e e e e e i i w w nXCXCXCXCXJ e e >.P ~ ( >.=.7.D.q.m.N.T T K.K.K.",
"K.K.Y.8Xd.g.7XY.G.d.r.r.Y.P.>X1X8X8XR.K.K.K.K.K.w.4 1 5 e e e e e e e e w e i w aXCXCXCXaXe e e j.Y ~ ~ ! $.7.0.>.8.m.Y U e.e.0.",
"K.K.S.d.r.S.F.v.K.1.r.F.F.Y.:X:X6Xz.K.K.K.K.K.K.K.>.4 2 e e e e e e e e e e i w zXCXCXNXV e p a 8.I ! ! ! n n $.~ ,._ U < , , e.",
"K.K.H.2.2.D.P.g.G.,.;.Z.r.d.Z.J.K.K.K.K.K.K.K.K.K.k.x 4 8 e e e e t i 9 e e e e NXCXCXX.e i i L Y E ( :.~ b n $.R ,.( U < , 8.K.",
"K.K.z.0.r.r.h.H.V.K.K.K.R.L.K.K.K.K.K.K.K.K.K.K.K.K.E L y w e e e e e e e e e tXCXBXO.e e e M U ^ ( <.<.$.$.n $.! 5.m.L , T H.K.",
"K.K.R.K.9.;.G.q.K.j.4.3.g.<X<X2X1XK.K.K.K.K.K.K.K.K.H.U L P p e e e e e e e D NXmXJ i e i C L ^ _ _ <.>.9.*.$.n R m.^ L K e.K.K.",
"K.K.K.K.K.q.V.K.3.d.4.7.h.v.OXb.v.d.h.l.K.K.K.K.K.K.K.G.( E T ~ e e e e i S zXpXp i e j 0.k.I U ^ m.D.N.=.7.:.~ ! R x K j.K.K.K.",
"K.K.K.K.z.N.V.A A { %.4.Y.Y.Y.c.g.4.4.a.w.k.K.K.K.K.K.K.K.H.V.j.e e e e a _ 8.k 9 i i 0.0.e.E L ^ _ m.N.N.8.( R u u ~ K.K.K.K.K.",
"K.K.K.K.K.S.K.f.{ %.-.r.h.g.h.v.g.a.2.2.;.w.K.K.K.K.K.K.K.K.K.A e e i s U ! e.i w i w i e e h :.^ ^ ^ _ m.,.R L R J.K.K.K.K.K.K.",
"K.K.K.K.q.K.K.K.k.2.1.1.h.P.h.s.a.r.-.j.K.K.K.K.K.K.K.K.K.K.j.i e e t k C %.e.W A k i w e e C K.H.U L L P T L E L.<.K.K.K.K.K.K.",
"K.K.K.j.G.K.K.K.k.k.V.<.6.D.D.f.f.j.K.K.K.K.K.K.K.K.K.K.K.K.j.i e e i i w e h K.K.K.z.0.9.w.L.K.e.x < K K E 8.K.K.w.0.K.K.K.K.K.",
"K.K.K.f.K.K.K.K.R.z.K.K.K.K.K.K.K.K.K.K.K.K.K.K.K.K.K.K.K.K.K.H.w.0.Q h i k 9.K.K.K.z.K.z.k.H.L.8.e.e.H.K.K.K.K.K.K.0.G.K.K.K.K."
};
