/* XPM */
static char *result[] = {
/* columns rows colors chars-per-pixel */
"64 64 244 2 ",
"   c #533A2D",
".  c #5D3E2D",
"X  c #653E2B",
"o  c #68432F",
"O  c #774429",
"+  c #714F39",
"@  c #664F44",
"#  c #B3352E",
"$  c #BB3738",
"%  c #C63A3A",
"&  c #85451F",
"*  c #854520",
"=  c #894622",
"-  c #864A27",
";  c #8B4A25",
":  c #8C4D2A",
">  c #944F26",
",  c #934E2B",
"<  c #8E5129",
"1  c #94532C",
"2  c #98562B",
"3  c #9A552D",
"4  c #8E4E31",
"5  c #9A5731",
"6  c #975934",
"7  c #9E5A33",
"8  c #A6482B",
"9  c #A44A35",
"0  c #BC4638",
"q  c #A15D35",
"w  c #A95B32",
"e  c #A25F38",
"r  c #AB5C3A",
"t  c #916C32",
"y  c #A66435",
"u  c #A5623B",
"i  c #AB663E",
"p  c #AD6B3B",
"a  c #BB613B",
"s  c #B26C3C",
"d  c #A67B35",
"f  c #B9733F",
"g  c #C94635",
"h  c #CB4A36",
"j  c #C64438",
"k  c #C5413D",
"l  c #CC4C3B",
"z  c #D04A36",
"x  c #D04E3A",
"c  c #C8553A",
"v  c #D1553E",
"b  c #D25A3C",
"n  c #D3633D",
"m  c #C9703D",
"M  c #D5783C",
"N  c #945C42",
"B  c #98644B",
"V  c #9E6C56",
"C  c #A56848",
"Z  c #B36A43",
"A  c #AE7D46",
"S  c #BB7442",
"D  c #B77846",
"F  c #A56D53",
"G  c #AA7359",
"H  c #9D7560",
"J  c #A97A66",
"K  c #B27D64",
"L  c #C74747",
"P  c #CB4642",
"I  c #C94C44",
"U  c #CC4D49",
"Y  c #D14A42",
"T  c #CB5345",
"R  c #C75A43",
"E  c #CD5449",
"W  c #D15543",
"Q  c #D35B42",
"!  c #D1544B",
"~  c #D25C51",
"^  c #CB6542",
"/  c #CB6949",
"(  c #D46343",
")  c #D96B47",
"_  c #D4644A",
"`  c #D36B4B",
"'  c #C47C46",
"]  c #CA7748",
"[  c #D47444",
"{  c #D77744",
"}  c #DA7D44",
"|  c #D5734B",
" . c #D9744D",
".. c #D57B4C",
"X. c #DA7C4D",
"o. c #D46657",
"O. c #C37B52",
"+. c #D87857",
"@. c #E1784C",
"#. c #E07C5A",
"$. c #D97A63",
"%. c #95843C",
"&. c #AF8E3C",
"*. c #B18C49",
"=. c #9EAC4C",
"-. c #9EB251",
";. c #A8B64F",
":. c #AFAF51",
">. c #AF816D",
",. c #B4836C",
"<. c #BA8A75",
"1. c #CA8748",
"2. c #CD844A",
"3. c #DB8245",
"4. c #D2864C",
"5. c #DC834C",
"6. c #D58B4D",
"7. c #DD8B48",
"8. c #DA964C",
"9. c #CC8858",
"0. c #DC8453",
"q. c #D58D54",
"w. c #DB8C54",
"e. c #D58559",
"r. c #DC8C5B",
"t. c #CF9658",
"y. c #DD9252",
"u. c #D89857",
"i. c #DD925B",
"p. c #E48D4E",
"a. c #E19B4A",
"s. c #E48352",
"d. c #E38A55",
"f. c #EA8C58",
"g. c #E29454",
"h. c #E69558",
"j. c #EB945B",
"k. c #E59B5C",
"l. c #EB9D5C",
"z. c #F1975A",
"x. c #F29C5C",
"c. c #DDA14E",
"v. c #C3B14C",
"b. c #DAA559",
"n. c #DAB957",
"m. c #E2A34D",
"M. c #E4A94E",
"N. c #EBB74F",
"B. c #E4A453",
"V. c #E9A755",
"C. c #E6AA53",
"Z. c #E3A65C",
"A. c #ECA35D",
"S. c #E5A95B",
"D. c #E9AB5B",
"F. c #F3A35D",
"G. c #F9A55F",
"H. c #F4AB5D",
"J. c #EAB355",
"K. c #E7B658",
"L. c #EAB45C",
"P. c #EDBC5C",
"I. c #F7B95E",
"U. c #DD8966",
"Y. c #CC9261",
"T. c #DD9668",
"R. c #C0917C",
"E. c #E89C62",
"W. c #F29F61",
"Q. c #DCA461",
"!. c #DAB865",
"~. c #E2A665",
"^. c #ECA262",
"/. c #E4AC63",
"(. c #EAAC62",
"). c #F4A462",
"_. c #FAA661",
"`. c #F5AC62",
"'. c #FFAB62",
"]. c #E5B264",
"[. c #EAB463",
"{. c #EAB966",
"}. c #EAB46B",
"|. c #FCB463",
" X c #F7B864",
".X c #EEAB76",
"XX c #E8B878",
"oX c #FAB478",
"OX c #ADCC5F",
"+X c #B5CA59",
"@X c #BBD25E",
"#X c #A7C563",
"$X c #B5CF67",
"%X c #B9D267",
"&X c #C7C456",
"*X c #D5C655",
"=X c #C9D65D",
"-X c #EFC74E",
";X c #E8C755",
":X c #EEC35D",
">X c #F2CB5D",
",X c #E9D559",
"<X c #EDD45D",
"1X c #F1D75A",
"2X c #EEE15D",
"3X c #C4D665",
"4X c #D3D667",
"5X c #EBC467",
"6X c #ECC26B",
"7X c #F1CC63",
"8X c #F2C965",
"9X c #E8D966",
"0X c #F2D669",
"qX c #EDC474",
"wX c #F2CA73",
"eX c #F2DA75",
"rX c #F2E271",
"tX c #B59688",
"yX c #B8A399",
"uX c #C69A86",
"iX c #C7A393",
"pX c #D7AA94",
"aX c #D4AB97",
"sX c #D4AD9B",
"dX c #E9B892",
"fX c #C6B2A8",
"gX c #D5B2A2",
"hX c #DAB4A3",
"jX c #D8B9A9",
"kX c #E2BEAD",
"lX c #EFC48F",
"zX c #F2EC84",
"xX c #E9C2AB",
"cX c #F4CAAC",
"vX c #E4C2B2",
"bX c #E9C7B6",
"nX c #EAC8B7",
"mX c #EDCCBC",
"MX c #EFCFC0",
"NX c #EFD0C1",
"BX c #F2D3C4",
"VX c #F3D6C9",
"CX c #F0D8CD",
"ZX c #F9EDE8",
/* pixels */
"'.'.'.'.'.'.'.x.'.'.'.'.'.'.'.'.|.G.'.'.'.'.'.'.'.'.'.'.'.'.'.'.'.'.'.A.4.f y < = & ; q s 1.y.G.'.'.'.'._.'.'.'.'.'.'.'.'.'.'.'.",
"'.'.'.'.'.'.G.b '.'.'.'.'.'.'.'.G.G.'.'.'.'.'.'.'.'.'.'.'.'.'.'.G.4.2 & & & & & - : ; ; & & & = &.:.=X3X&Xn.`.'.'.'.'.G.t._.'.'.",
"'.'.'.'.'.'.s.n d.'.'.'.'.G.p._.x.p.'.'.'.'.'.'.'.'.'.'.'.'.'.6.: & & = 1 q u i i i i i i u u 5 : * t :.+X;.-.b.'.'.^.E.'.'.'.'.",
"'.'.'.'.'.G.n ) { X._.'.G.5.3.M 3.G.G.'.'.'.'.'.'._.t.G.'.F.p * & : q i i i i i u q 7 7 5 7 u u i u 3 > t -.-.-.Q.Y.A.'.'.'.'.'.",
"'.'.'._.( Q ) { 5.g.'.'.d.5.} M 7.G.'.'.'.'.'.'.'.'.'.i.A.2 * = 7 i i i u 5 : * * * * * * * * & ; 1 q u 5 < =.-.~.T.`.'.'.'.'.'.",
"'.'.'._.x )  .{ 5.5.f.5.r.5.M M 3.G.'.'.'.'.'.'.'.'.'.G.1 * > u Z i u 1 * * * * * = * * * * * = * & * = 1 u 4 *.`.!.#XD.'.'.'.'.",
"'.'.'.x.W _  .{ X.7.X.0.r.[ M M 3.x.'.'.'.'.'.'.'.'.'.p * 1 i i u 6 * * * * = 1 7 7 u u u u u 5 1 ; = * * = 5 1 u.%X#X#X[.'.'.'.",
"'.G.Q Q Q v ) n X.X.} 0.5.{ 5.} p.'.'.'.'.'.'.'.'.'.6.* : i i u : & * * 1 u i i i i u i i i i i i i u 7 ; * * ; 7 3X@X@X$X[.'.'.",
"'.'.) Y ( x v v [ X.[ 5.m { 3.} G.'.'.'.'.'.'.'.|.G.1 * u i i ; & * 1 u i i i i Z i i i i i i i i i i i C q : * - *.%X@X@X4X'.'.",
"'.'.f.z W b h c n ) ^ n } { ] ] '.'.'.'.'.'.'.'.'.q.* 5 i i : * * q i i i i i i i u 7 1 : - = = ; < 1 5 u i i 7 & & ;.OX+X%X|.'.",
"'.'.W.x l _ v h n ( c ^ } 3.s o 3 ' `.'.'.'.'.'.'.p = i i 5 * - u Z i i i i i 5 : * * * * * * * * * & * & & 1 q u ; %.#X+X3X{.'.",
"'.'.'.@.x T W g b c n ) [ n w   - > 7 F.'.'.'.'.`.; 5 i i * * u i i i i i 7 - * * * * * * * * * * * & & & & * * < 7 < +X%X3X{.'.",
"'.'.'._.b j j h c b Q b b h ,   . > > 3 7.x.'.'.8.* u i 1 * 7 e 6 - C i > & * * * * * * * * * * * * * * * * * * & & > ;.@X3XI.'.",
"'.'.'.'._.#.# 0 l l j c v b 9     - > > ' '.'._.q.* i i = - 1 > o . u ; & & * * * * * * * * * * * * * * * * & * & & & =.%X3X|.'.",
"'.'.'.'.'.'.Z # j v ( _ n n r     O > > 7 G.'.'.' : i 7 - > 1 -   . : * & * * * * * * & * * * * * * * * * * & & & & & *.=X3X|.G.",
"'.'.'.'.'.q.'.0 j h T _  .` R     . > 2 3 g.w.g.S 6 i 6 > > > X   X * * * * & * * * * * * * * & * * * * * * & & & & & *.3X9X'.'.",
"'.'.'.'.q._.'.z.x x ( ( ` ( X.+ o 4 3 q 5 5 q q u i u 1 , > -     X * * * * * * & * * * & * * * * * * * * * * * * * & A 4X X'.'.",
"'.'.'.'.i.'.'.'.G.f.b Q ( ( '.S 7 q q q q q 5 q 7 q i i q 1 O     X & * * & * * * * * * * * * * * * * * * & * * * * & 2.6X'.'.'.",
"'.'.'.'.'.'.'.'.'.G.'.z.@.Q ] 7 5 q 7 5 q q q q 7 7 q r i u o     O * * * * * * * * * * * * * * * * * * * * * * * * & y.oX'.'.'.",
"'.'.'.'.'.'.'.'.'.'.'.'.'.dXbXBXBXkXuXC 5 5 q 3 7 7 7 q i i u X X & * * * * * * * * * * * * * * * * * * * * * * * * * G.'.'.'.'.",
"'.'.'.|.'.'.G.H.G.G.'.'.oXBXBXBXBXBXBXbXG q q q q 5 q q e i C 7 & & & & * * * * * * * * * * * * * * & * * * * * * & p '.'.'.'.'.",
"'.'.'.G.'.'.`.m.V.F.'.'.cXBXBXBXBXBXBXBXnXC q 5 5 q 5 q R.sXhXsXJ & & & * & * * * * * * * * * * * : & & * * * * * & y.'.'.'.|.G.",
"'.'.'.'.'.'. XM.a.a.G.dXVXVXBXBXBXBXBXBXBXhX5 q 3 q K nXBXBXBXBXvX* & * * * * * * * * & * * * 7 i i i : * * * * * t '.'.'.'.'.'.",
"'.'.'.'.'.G.P.J.a.a.H.lXBXBXBXBXBXBXBXBXBXMXC q q K mXBXBXBXBXBXBXJ * * * * * * * * * * * * 7 i i i i u * * & * & :.H.'.'.'.'.'.",
"'.'.'.'.'.|.>XP.m.m.C.cXBXBXBXBXBXVXVXNXBXBXuX7 5 vXBXBXBXBXBXBXBXiX* * * * * * * * & * * 1 Z i i i Z u & & & & &.*X|.'.'.'.'.'.",
"'.'.'.'.'.'.0XN.K.b.P.cXBXBXBXBXBXyXtXNXBXBXsX5 <.BXBXBXBXBXBXBXBXgX* * * * * * * * * * & s h.i i i i 7 & & & d v.+X'.'.'.'.'.'.",
"'.'.'.'.'.'.qX}.XXXX6XcXBXBXBXBXNXtXtXMXBXBXgX7 hXBXBXBXBXBXBXBXBXgX* * * * * * * * * * & ' '.S i i r > & & %.,XN.b.F.'.'.'.'.'.",
"'.'.'.'.'.'.|.-X8X!.lXmXmXBXBXBXCXBXBXNXBXBXiX7 NXBXMXfXjXBXBXBXBXiX* * * * * * * * * * & 6.'.6.i i q & & &.1X1XI.'.A.'.'.'.'.'.",
"H.'.'.H.`.oXoXXXlXlXxXmXmXmXmXBXBXBXBXBXBXjXH G BXBXmX@ yXBXBXBXBXJ * * * * * * * * * * & y.'.w.i u * = 1.I.I.G.'.'.'.'.'.'.'.'.",
"_.V.V.a.a.M.m.P.;X;XdXNXmXmXmXBXBXBXBXMXNXjX+ @ jXBXBXBXBXBXBXBXBXV * * * & * * * * & * & l.'.4.u - p F.'.'.|.'.'.|.|.|.'.'.'.'.",
"'.F.m.m.m.C./.XXXXXXdXnXmXnXmXBXBXBXBXCXBXBXNXNXBXBXBXBXBXBXBXmXmXsX<.>.>.J B 4 * * * * & F.'.S s g.'.'.'.'.G.:X<X2X2X1X2X>XI.'.",
"'.'.M.J.J.V.B.m.C.N.8XxXBXBXBXBXBXBXMXkXBXBXBXBXBXBXBXBXBXBXmXmXMXkXJ J V N * * * * * * & G.'.F.'.'.'.'.'.'.|.1X1X2X2X,X-X<X<X X",
"'.'.I.P.J.L.C.a.c.J.C.b.nXBXBXBXBXBXVXyXBXBXBXBXBXBXBXBXBXBXBXmXMXvXB N B V J N : * * * - '.'.'.'.'.'.'.'.'.:X,X1X,X*X;X-X-XI.'.",
"'.'.D.J.M.C.K.J.m.8.1.8.9.vXBXBXBXVXVXCXfXsXjXBXBXBXBXBXBXBXmXmXbXsX<.>.V - * - * * * * 1  .s.z.'.'.'.'.'.'.|.;Xn.&X,X1X,X:X'.'.",
"'.'.'.`.|.J.N.0X5X1.7 p p B sXmXBXBXBXCXZXCXBXBXBXBXBXBXBXBXBXBXjX4 * * N J B - * * * * , W v Q s.).'.'.'.'.`.v.v.,X9X9X>X'.'.'.",
"'.'.'.'.'. XP.:XK.7 7 6 y Y._.oXxXmXBXBXBXVXBXNXBXBXBXBXBXBXvXtX- * * * & * * * * * * * 8 l x x l c 0.'.'.^.^.K.&X=X9X9X X'.'.'.",
"'.'.'.'.'.[.Z.B.6.y 5 7 q 2.'.'.'.E.kXbXnXmXmXmXmXmXbXkXpXG - * * * * * & & & & & & * * 8 j g g g 0 9 O.'.'.'.'.`.5Xn.I.'.'.'.'.",
"'.'.'.'.'.`.`.G._.y.7 7 7 7 Z k.w.G BXBXBXNXNXuXG Z q r X.* * * * * * * & & & & & & * & 8 z h g l ^ G.'.'.'.'.'.`.'.'.'.'.'.'.'.",
"'.'.'.'.'.'.'.'.'.'.g.q 7 7 7 7 7 uXBXBXBXBXNXaXq 5 3 q R > * * * & * * * * * * & & & & 0 h l h ) G.'.'.'.'.'._.'.'.'.'.'.'.'.'.",
"'.'.'.'.'.'.'.'._.'.'.l.i 7 7 7 7 gXBXBXBXBXNXkXq q 5 q c 9 * * * * & * * & * * & & & & c h x ) '.'.'.'.'.l.r.^.).'.'.'.'.'.'.'.",
"'.'.'.'.'.G.'.'.^.D d.)._.2.7 7 7 vXBXBXBXBXBXBXq 3 q q c ^ * * * * * * * * * * * * * * c Q f.'.'.'.'.'.i.9.O.q.'.'.'.'.'.'.'.'.",
"'.'.'.'.'.'.'.'.E.O.9.e.E.`._.6.i nXBXBXBXBXBXBXC 7 q 3 a F.> * * * * * * * * * * * * - x._.'.'.'.'.'.).U.9.+._.'.'.'.'.'.'.'.'.",
"'.'.'.'.'.'.'.'.'.q.9.e.U.T.W.'.'.BXBXBXBXBXBXBXG 7 7 7 1 f y * * * * * * * * * * * * u '.'.'.'.'.'.'.^.q.e.E.'.'.'.'.'.'.'.'.'.",
"'.'.'.'.'._.'.'.'.'.E.E.E.E.)._.'.BXBXBXBXBXBXBXC 7 7 7 3 , > ; * & * * * * * * * * & ' '.'.'.'.'.'._.E.T.).'.'.'.'.'.'.'.'.'.'.",
"'.'.'.'.'.u.'.'.'.'.'.'.'.'.'.'.'.BXBXBXBXBXbXiX7 7 7 7 3 > > > - * * * * * * * * * * w.'.'.'.'.'.'.'.E.).'.'.'.'.'.'.'.'.'.'.'.",
"'.'.'.'.D./.`.'.'.'.'.'.'.'.'.'.'.pXK R.uXK q 5 7 7 7 7 3 > > > , : * * * * * * * & * F.'.'.'.'.'.'.'.^.'.'.'.'.'.'.).'.'.'.'.'.",
"'.'.'.H.Z.~.(.'.'.'.'.'.G. X8X>X8XD 5 q q 5 5 q 7 7 7 3 > 1 2 7 5 1 : * * * * * * * 5 '.'.'.'.0.).'.'.'.'.'.'.'.'.'.| '.'.'.'.'.",
"'.'.'.D.L.Z.}.`.'.'.'.|.5X0X0X0X8X*.q 5 q q 3 q ,.sX> 3 3 7 7 7 7 7 7 : * * * * * * a '.'.'.'.j.$ / j.z.'.'.'.'.f.d.0 '.'.'.'.'.",
"'.'.F.6XK.Z.C.D.'.'._.{.0X0X0X6XK.uXuX<.<.iXhXnXBXmX3 u 7 7 7 7 7 7 7 5 - * & & = = +.'.'.'.'.f.L U Y j j.'.'.'.c $ $ o.'.'.'.'.",
"'.'./.eX{.wX0XK.G.'.H.5X0X0X0X0XD ,.BXBXBXBXBXBXBX<.7 7 7 7 7 7 7 7 7 7 : * * = * 8 X.'.'.'.'.0 P T o.o.! z.'.'.I I ~ U  .j.'.'.",
"'.'.].eX6XeXzXeXH.'.L.5X:X7X8X{.7 q mXBXBXBXBXBXsX3 7 7 7 7 7 7 7 7 7 7 < * & & = 0 ..'.'.'.'.s.k _ o.U.+.W @.o.W E +.o.L ).'.'.",
"'.'.{.zX{.0XrXrX X`.S.L.{.8X:Xn.7 q sXBXBXBXBXBXC 7 7 7 7 7 7 7 7 7 7 7 4 * & & 1.l.r.'.'.'.'.'.) W | +.+.X.w.h.0.+.U.o.% '.'.'.",
"'.'./.wX[.L.wXwX}.A.S.b.b.:X<Xb.7 7 G BXBXBXBXkX7 7 7 7 7 7 7 7 7 7 7 7 1 * * 7 G.'.'.'.'.'.'.'._.W  ...w.w.m.~.r.U.E.~ ~ '.'.'.",
"'.'.}.wX~.S.qX}.`.k.b.b.[.L.7X5X7 7 q gXBXBXBXhX7 7 7 7 7 7 7 7 7 7 q 7 < & ; l.'.'.'.'.'.'.W.'.'.Q  .X.[ 7.8.g.w.r.U.~ ! x.z.j.",
"'.'.(.~.b.Q.].L._.t.b.S./.}.6XqXD 7 5 C mXBXBXjX7 7 7 7 7 7 7 7 7 7 7 7 = = 0.l.x.'.'.'.'.'.` o.f.T  .| [ M M 7...e.+.~ % % $ ).",
"'.'._.q.u.Z.[.A._.q.9.Q.b.S.Q.(.l.q q q ,.BXBXmX7 7 7 7 7 7 7 7 7 7 7 2 ; $ % $ W.'.'.g.s. .L U E o.X.w...m M 3.[ 0.+.U $ $ d.'.",
"'.'.'.h.Z.b.S.G.k.'.'.'.|.|.'.'.'.i.q 7 7 <.NXBXuXq 7 7 q 7 7 7 7 7 5 9 j % % _ '.'.'.F.R $ L ~ o.e.U.0.7.3.M } ] U.U.U $ E '.'.",
"'.'.'.'.g.9.F.E.'.F.u.y.C.7X7XwX X`.y.7 7 q K bXmXF 7 7 7 7 7 7 q i E P % % % f.'.'.'.'.'.` L o.$.$.e.r.y.7.7.} | e.o.L L ).'.'.",
"'.'.'.'.G.l.^._.y.k.u.a.D.L.5XP.K.b.D.u.y q 5 e pXkXF q 7 7 7 7 g.o.W U P Y W G.'.'.'.'.'.'.E E o.U.~.E.y.8.w.| | _ $ U ).'.'.'.",
"'.'.'.I.G.T.l.D D *.6.c.}.}.{.J.].c.6.8.w.q q 7 f G..Xs 7 7 7 7 F._ I E Y Y f.'.'.'.'.'.'.'.` U o.$.T.T.i.i.| ^ 0 0 X._.'.'.'.'.",
"'.'.'.'.G.^.'.A.*.6.8.b.J.S.C.[.Z.y 7 7 7 7 7 7 q F.G.G.6.q 7 7 ] +.T ! ! +.'.'.'.'.'.'.'.'.j.+.o.o.o.$.U.e./ E / _.'.'.'.'.'.'.",
"'.'.'.'.E.'.'.'.G.8.t.t.Z.}.S.V.B.p 7 7 7 7 s f ' x.4.' ' 7 7 7 7 E.+.s.W.'.'.'.'.'.'.'.'.'.'.'.'.U L U E E U ` `.i.'.'.'.'.'.'.",
"'.'.'.F.G.'.'.'.G.'.A.q.T.Z.(.A.V.G.l.g.h.G.'.'.G.s 3 q 7 7 7 7 q W.'.'.'.'.'.'.'.'.'.'.'.'.'.'.W.P k L L ` f.'.'.l.k.'.'.'.'.'.",
"'.'.'.^.'.'.'.'.'.'.'.'.H.'.'.'.'.'.'.'.'.'.'.'.'.g.s q i 1.h.l.G._.'.'.'.'.'.'.'.'.'.'.'.'.'.'.f.z.W.W.'.'.'.'.'.'.i._.'.'.'.'."
};
