/* XPM */
static char *result[] = {
/* columns rows colors chars-per-pixel */
"64 64 242 2 ",
"   c #533A2D",
".  c #5D3E2D",
"X  c #633E2B",
"o  c #6C3F28",
"O  c #68432F",
"+  c #774429",
"@  c #6C5238",
"#  c #664F44",
"$  c #BB3638",
"%  c #C1383A",
"&  c #85451F",
"*  c #854520",
"=  c #884825",
"-  c #8B4A25",
";  c #8D4D29",
":  c #944F26",
">  c #904F2A",
",  c #94522C",
"<  c #99552D",
"1  c #98582B",
"2  c #8A5332",
"3  c #995731",
"4  c #9E5A33",
"5  c #985835",
"6  c #A4522E",
"7  c #A54C35",
"8  c #BC433B",
"9  c #A15D35",
"0  c #A25F38",
"q  c #A95A38",
"w  c #B65438",
"e  c #A56634",
"r  c #A5623B",
"t  c #AB663E",
"y  c #AC6B3B",
"u  c #B26D3C",
"i  c #A87038",
"p  c #B8743E",
"a  c #C6433D",
"s  c #CA483B",
"d  c #C25238",
"f  c #D1523C",
"g  c #C96D3B",
"h  c #D27939",
"j  c #945C42",
"k  c #99644C",
"l  c #9E6C56",
"z  c #A76946",
"x  c #BB6A41",
"c  c #AE7745",
"v  c #BB7442",
"b  c #BA7745",
"n  c #A56D53",
"m  c #AA7359",
"M  c #A97A66",
"N  c #B27D64",
"B  c #C84745",
"V  c #CA4C44",
"C  c #CC4D49",
"Z  c #CB5646",
"A  c #D15544",
"S  c #D1554B",
"D  c #D1554C",
"F  c #D25C48",
"G  c #CA6846",
"H  c #D66748",
"J  c #C77746",
"K  c #C37B45",
"L  c #D5734B",
"P  c #D87849",
"I  c #D36756",
"U  c #D4645A",
"Y  c #C57854",
"T  c #D87958",
"R  c #E0754B",
"E  c #D77965",
"W  c #BB893F",
"Q  c #CB823E",
"!  c #88974D",
"~  c #969F50",
"^  c #B28546",
"/  c #9EB14F",
"(  c #9FB451",
")  c #A6B74E",
"_  c #A4B957",
"`  c #B7B451",
"'  c #AF816D",
"]  c #B4836C",
"[  c #A1897D",
"{  c #BA8A75",
"}  c #98B466",
"|  c #9BB974",
" . c #BCAE68",
".. c #CB8648",
"X. c #D98847",
"o. c #D48B4C",
"O. c #CA954B",
"+. c #DB924A",
"@. c #DB924C",
"#. c #DC9A4B",
"$. c #CD8856",
"%. c #DC8453",
"&. c #DC8D53",
"*. c #D58758",
"=. c #DB8C5B",
"-. c #CF9658",
";. c #D39355",
":. c #DC9252",
">. c #DD9D54",
",. c #DD935B",
"<. c #D79959",
"1. c #E1994B",
"2. c #E78956",
"3. c #E29454",
"4. c #E69758",
"5. c #EB945B",
"6. c #E59C5D",
"7. c #EB9D5B",
"8. c #F0965B",
"9. c #F29C5C",
"0. c #DBA657",
"q. c #CFB151",
"w. c #DAB959",
"e. c #E3A34D",
"r. c #E7AB4F",
"t. c #EBB74F",
"y. c #E3A354",
"u. c #EAA655",
"i. c #E5AB53",
"p. c #E3A55C",
"a. c #ECA35D",
"s. c #E5AA5B",
"d. c #E9AC5B",
"f. c #F4A35E",
"g. c #F9A65F",
"h. c #F5A95D",
"j. c #F8AA5F",
"k. c #E9B355",
"l. c #E8B657",
"z. c #E9B45C",
"x. c #EDBC5D",
"c. c #F6B75D",
"v. c #DD8966",
"b. c #CC9261",
"n. c #DD9568",
"m. c #C0917C",
"M. c #E79B62",
"N. c #C4AE6B",
"B. c #DBA764",
"V. c #D7B765",
"C. c #E2A564",
"Z. c #ECA261",
"A. c #E4AD63",
"S. c #EAAC62",
"D. c #F4A462",
"F. c #FAA561",
"G. c #F4AC62",
"H. c #FFAB62",
"J. c #FCAD6C",
"K. c #E6B264",
"L. c #EAB463",
"P. c #EBBB64",
"I. c #E9B569",
"U. c #F6B666",
"Y. c #FCB363",
"T. c #FABA64",
"R. c #EFAC70",
"E. c #FBB179",
"W. c #ABC65A",
"Q. c #B6C756",
"!. c #B3CD5C",
"~. c #B9D05A",
"^. c #BBD25C",
"/. c #A5C463",
"(. c #A9C763",
"). c #B3CE63",
"_. c #BACF67",
"`. c #BAD266",
"'. c #B8D274",
"]. c #DDC04F",
"[. c #C7C557",
"{. c #D7C658",
"}. c #C4D55C",
"|. c #CBD95C",
" X c #D8D85B",
".X c #EEC54D",
"XX c #E8C956",
"oX c #EDC35D",
"OX c #F1CB5D",
"+X c #E9D75B",
"@X c #EDD45D",
"#X c #F1D95B",
"$X c #EFE25C",
"%X c #C2D564",
"&X c #C8D867",
"*X c #CDD26A",
"=X c #D8D966",
"-X c #EDC363",
";X c #EDC36B",
":X c #EAC869",
">X c #F3C462",
",X c #F1CB64",
"<X c #F2C56C",
"1X c #F1CD6B",
"2X c #EADB66",
"3X c #F2D464",
"4X c #F2D86A",
"5X c #EDC976",
"6X c #F0C677",
"7X c #F1CD75",
"8X c #E9D273",
"9X c #F2DA74",
"0X c #DCE370",
"qX c #E6E56A",
"wX c #F2E272",
"eX c #B59688",
"rX c #B8A399",
"tX c #C69A86",
"yX c #C7A393",
"uX c #D8AA93",
"iX c #D4AD9C",
"pX c #F4B885",
"aX c #F1BA9A",
"sX c #C6B2A8",
"dX c #D5B2A2",
"fX c #DAB4A3",
"gX c #D8B9A9",
"hX c #E3BDAC",
"jX c #ECCD94",
"kX c #F2EC84",
"lX c #F0C8AB",
"zX c #F1D9A9",
"xX c #E4C2B2",
"cX c #E9C7B6",
"vX c #ECC8B6",
"bX c #EDCCBC",
"nX c #EFCFC0",
"mX c #EFD0C1",
"MX c #F2D3C4",
"NX c #F3D6C9",
"BX c #F0D8CD",
"VX c #F9EDE8",
/* pixels */
"H.H.H.H.H.H.H.9.H.H.H.H.H.H.H.H.G.3...u 4 = * = > e p o.7.H.H.H.H.H.H.H.H.H.H.H.H.H.H.H.H.H.H.H.H.H.H.H.H.H.H.H.H.H.H.H.H.H.H.H.",
"H.H.H.H.H.H.j.g H.H.H.H.H.H.3.u * * * * - - - - & & & & * 1 o.g.H.H.H.j.H.H.H.H.H.H.H.H.H.H.g.c.OX X|.&X{.q.G.H.H.H.H.D.;.D.H.H.",
"H.H.H.H.H.H.2.g 2.g.j.g.@.4 & ; 3 0 t t t t t t t q 4 , - * * - o.f.f.4.a.H.H.H.H.H.H.H.H.H.-X X X&X&X&XW.) / 0.H.H.7.7.H.H.H.H.",
"H.H.H.H.H.g.f H L P f.y = 3 r y r 0 4 4 4 4 9 r t t t z t 9 > * * 4 X.o.g.H.H.H.H.H.H.H.H.{. X}.|.&X&X`.W.( / / B.b.Z.H.H.H.H.H.",
"H.H.H.g.H f H R %.J > 3 r 9 , - * * * & * * * * * ; 3 r t t t 9 * & 1 o.@.4.&.f.H.H.H.F.q.}.[.~.}.%X'.'./.( W./ R.M.G.H.H.H.H.H.",
"H.H.H.g.f L P H g > 0 3 = & & & * * * * * * * * * & * * , r t t t ; & 1 @.@.K 9.H.H.H.q.` ` ` Q.%X'.'.&X&X_ ) N.R.V./.d.H.H.H.H.",
"H.H.H.9.A H P g < 3 * & * * - , 4 0 r r r q q 3 , = & & * * 3 t t t ; * y i.:.3.H.H.H.H.f.O.O.Q.%X'.&X=X X=XL.D.U.).(.(.K.H.H.H.",
"H.g.A A F f g < - * = - 3 t t t t t t t t t t t t t r , * * * ; r t t ; * O.y.o.:.7.H.H.H.Y.H.c.x.:X-XP.T.U.6.H.:X=X~.).).U.H.H.",
"H.H.H A F f 6 = * ; 4 z t t t t t t t t t t z t t t t t r , & & - t t r = 1 k.p.>.>.4.H.H.H.H.H.H.H.>X3X%X|  .H. XqX^.~.^.*XH.H.",
"H.H.2.s A d & = 4 t t r 3 , ; - * = : ; , 4 0 t t t t t t t 9 = * > t t < & o.s.4.h.H.H.H.H.H.j.0.:X0X%X).} } G.&X&X).).!.`.Y.H.",
"H.H.F.s f 7 - r r , * * * * & * * * * * * * * ; 9 r t t t t t r - * 3 t t = u u.F.H.H.H.g.g.o.1 X _ _./././.} B._.%X).(.).%XP.H.",
"H.H.H.R s - 4 ; & & * * * * * * & * * * * * * * & - 9 z t t t t r * * r z 3 - H.H.H.H.H.f.q : +   ! (././.W._ V.*X&X`.!.`.%XP.H.",
"H.H.H.H.d , & * * * * * & * * * * * * * * * * * & & * > r t 2 3 r 4 * 5 y r * 7.H.H.H.g.e : : .   ! (.).).~.W.V.XXqX^.~.}.&Xc.H.",
"H.H.H.H...& & * * * * * * * * * * * * * * * & * & * * * - r X O > , = * t t = o.H.H.g...: : =     ! /.(.!.W./.s.U.wX}.~.).%XT.H.",
"H.H.H.H.K & * * * * * * * * * * & * * * * * * * * * * * & = .   = : : * 4 t > b H.H.H.4 : : +     ~ ).W._ !.W.H.H.<X=X*X}.`.H.H.",
"H.H.H.H.b * * * * & * * & * * * * * * * * * * * * * * * & & .   O : : : 5 t 3 y 3.:.&.< , : X     ) W.~.!.!.w.H.H.H.;X=X=X2XH.H.",
"H.H.H.H.t * * * * * * * * * * * * * * * * * * * * * * * * * X     ; : : < r z 0 9 9 9 3 4 4 2 O @ ) ~.}.^.q.Y.H.H.H.G.V.8XT.H.H.",
"H.H.H.H.u * * * * * * * * * * * * * * * * * * * * * * * * * o     + : 9 t r q 9 9 9 3 9 4 4 4 4 ^ W.~.~.V.H.H.H.H.H.H.J.;XG.H.H.",
"H.H.H.H.:.* * * * * * * * * * * * * * * * * * * * * * * * * +     O r t t 9 3 9 < 9 3 9 4 4 4 4 5 ^ {.Y.H.H.H.H.H.H.H.H.J.H.H.H.",
"H.H.H.H.g.* * * * * * * * * * * * * * & * * * & * * * * * * & . . r t t 9 3 4 4 9 3 9 3 z tXxXmXmXxXpXH.H.H.H.H.H.H.H.H.Y.H.H.H.",
"H.H.H.H.H.y & & * * * * * * & & * * * * * * * * * * * * * * * * 5 z t q 3 9 4 4 6 4 4 m cXmXNXMXMXMXMXE.Y.Y.Y.T.Y.H.H.H.H.H.H.H.",
"H.H.H.H.H.:.& & * * * * * & - - * & * * * * * * * * * * * * * M fXfXiXm.0 9 4 4 4 4 n bXMXMXMXNXMXMXMXvX.XOX#X2X@Xx.H.H.H.H.H.H.",
"H.H.H.H.H.j.4 & * * * * : t t t 3 * * * * * * & * * * * * * * xXMXMXMXMXvXN 9 3 9 9 iXMXMXMXMXMXMXMXMXNX7X+X+X2X2X{.H.H.H.H.H.H.",
"H.H.H.H.H.j.0.& * * * * q t t t z 4 * * * * * * * * * * * * M MXMXMXMXMXMXbXm 9 < n MXMXMXMXMXNXMXMXMXMXjXt.XX2X=X[.G.H.H.H.H.H.",
"H.H.H.H.H.T.OXW * & * * 0 z t t t t , & * * * * * * * * * * yXNXMXMXMXMXMXMXxX4 9 tXnXMXMXMXNXmXMXMXMXMXzX#X].{.{.[.H.H.H.H.H.H.",
"H.H.H.H.H.Y.3Xk.i & * * 9 t t t t :.u & * * * * * * & * * * dXmXMXMXNXMXMXMXMX{ 3 iXMXMXMX[ rXMXMXMXMXMXzX X2XXXq.Q.H.H.H.H.H.H.",
"H.H.H.H.H.H.>Xk.XXe * * : t t t c i.p & * * * * * * * * * * dXmXMXMXMXNXMXMXMXfX9 iXMXMXMXeXeXMXMXMXMXMXzX$X8X8XI.V.Z.H.H.H.H.H.",
"H.H.j.H.H.g.Y.oXoX0.c & & 9 t t O.r...& * * * * * * * * * = yXmXMXMXMXdXsXMXMXbX9 yXMXMXMXMXmXNXMXMXMXbXbXjX3X#Xc.H.D.H.H.H.H.H.",
"H.H.H.h.H.Y.c.t.3XoXP.^ - = e t O.k.o.* * * * * * * * * * * M NXMXMXMXrX# bXMXmXm M sXMXMXMXMXMXMXbXbXbXbXlXpXpXE.E.E.H.H.H.H.H.",
"H.y.u.e.e.e.e.l.oXoX0.e.0.e : e ..e.y.& * * * * * * * * * * l mXMXMXMXMXmXMXNXgX@ @ gXMXNXMXMXMXMXbXbXbXbXaXj.H.H.Y.Y.H.H.H.H.H.",
"H.u.e.1.e.i.e.k.l.l.q.k.e.e.Q e p l.w.& * * * * 2 k M ' M { iXbXbXMXMXMXMXMXMXMXbXMXMXMXMXMXMXMXMXbXbXvXbXaXpX6X7X9X$X$X$XOXc.H.",
"H.H.r.k.d.i.r.e.k.t.oXi.e.Q Q t.i.l.e.& * * * * * * j n M ' hXnXbXbXMXMXMXMXMXMXMXMXMXNXxXbXMXMXMXMXMXMXlXH.j.#X+X$X2X+X.X@X@XT.",
"H.H.x.x.k.z.i.e.#.i.i.#.1.Q 1.Q O.0.u.- * * * ; k m l k j k xXbXbXbXMXMXMXMXMXMXMXMXMXNXyXMXMXMXMXMXMXvXJ.H.oX@X#XXX{.XX.X.Xc.H.",
"H.H.d.i.i.r.l.k.0.#.X.+.h K c ....4.H.4 * * * * + * * l ' { iXbXbXbXMXMXMXMXMXMXMXgXsXsXBXMXMXMXMXMXcXJ.j.f.c.XXq.{.XX#X+XoXH.H.",
"H.H.H.H.h.k.t.1X,Xs.+...i 2 c ;.f.H.H.t * * * * - k M j * * ; gXNXMXMXMXMXMXMXMXMXMXNXVXBXNXmXMXnXaXH.H.K 4 o.q.[.{.2X2X3XH.H.H.",
"H.H.H.H.H.P.x.oXx.i...i z b.H.H.H.H.H.u * * * * * * * * * * * ; m.cXMXMXMXMXMXMXMXMXMXMXNXNXnXhXE Z %.3.4 4 4 0.[.|.2X#XT.H.H.H.",
"H.H.H.H.Y.L.u.u.+.X.p $.h.M.H.H.H.H.H.K * * * * * * * * * * * * * ; m uXhXcXbXbXbXbXcXcXcXhXY s 8 8 7 4 4 4 r j.J.{.l.c.H.H.H.H.",
"H.H.H.H.G.H.G.F.G.f.H.j.H.H.6.H.H.H.H...* * & * * * * * * & * * & * & 7.p 4 z m tXnXMXMXMXnXm w d 0 4 4 4 9 3.H.H.H.H.H.H.H.H.H.",
"H.H.H.H.H.H.H.H.H.H.H.H.H.H.n.H.H.H.H.u * * * * & * * * * * * & * * : P 4 4 6 4 iXMXMXMXMXMXtX4 4 4 4 4 9 3.H.H.H.H.H.j.H.H.H.H.",
"H.H.H.H.H.H.H.H.D.H.H.H.H.H.6.H.H.F.L 7 * * * * * * * * * * * & * * J 4.4 4 4 4 hXMXMXMXMXMXiX4 4 4 4 y 4.7.=.a.D.H.H.H.H.H.H.H.",
"H.H.H.H.H.H.H.H.7.b =.M.H.H.H.H.H.F.M.J * * * * * * * * * * & & * * w P 4 4 4 9 bXMXMXMXMXMXxX4 4 9 ..H.,.T b *.H.H.H.H.H.H.H.H.",
"H.H.H.H.H.H.H.H.M.$.$.*.M.F.H.H.H.H.H.H.= * * * * * * * * * & & * - s w 4 4 4 z MXMXMXMXMXMXcXt o.D.H.D.b.b.*.H.H.H.H.H.H.H.H.H.",
"H.H.H.H.H.H.H.H.H.*.$.*.v.n.M.H.H.H.H.H.r * * * * * * * * * * & & 9 6 , 4 4 4 m MXMXMXMXMXMXMXH.H.H.H.M.=.%.M.H.H.H.H.H.H.H.H.H.",
"H.H.H.H.H.F.H.H.H.H.M.C.Z.M.D.F.H.H.H.H.K * * * * * * * * * * + = : : < 4 4 4 z MXMXMXMXMXMXMXH.H.H.H.M.n.D.H.H.H.H.H.H.H.H.H.H.",
"H.H.H.H.H.<.H.H.H.H.H.H.H.H.j.H.H.H.H.H.3.& & = * * * * * * * - : : : < 4 4 4 4 yXvXMXMXMXMXMXH.H.H.H.M.D.H.H.H.H.H.H.H.H.H.H.H.",
"H.H.H.H.d.A.H.H.H.H.H.H.H.H.Y.j.F.g.G.h.4.& & & * * * * * = ; > : : : < 4 4 4 4 9 9 N m.m.] uXJ.H.H.F.Z.H.H.H.H.H.H.D.H.H.H.H.H.",
"H.H.H.g.s.C.S.H.H.H.H.H.H.U.oXOX,XP.oXK.p.t & & * * * * * ; < 3 4 < : : : 4 4 9 4 4 4 4 9 4 v %.9.F.H.H.H.H.H.H.H.H.L H.H.H.H.H.",
"H.H.H.s.P.0.I.D.H.H.H.H.-X4X4X4X1X<Xs.L.G.o.& & * * * * ; 4 4 4 4 4 9 < < : iX] 4 4 4 4 9 6 K 5.B G M.8.H.H.H.H.2.2.8 H.H.H.H.H.",
"H.H.f.;Xz.0.i.s.H.H.H.P.4X4X9XP.>X-XP.s.h.j.= & & * * = 4 4 4 4 4 4 4 4 4 < nXMXvXfXyXm.{ tXm.%.B V V % 4.H.H.H.d % $ T H.H.H.H.",
"H.H.A.9XP.1X9Xk.F.H.z.-X3X,X9X1X1Xl.B.A.Y.H.K & & * & ; 4 4 4 4 4 4 4 4 4 4 { MXMXMXMXMXMXNX] q a A U U S 8.H.H.V V D C L 5.H.H.",
"H.H.K.9X-X9XkX9Xh.H.z.;X>X,X,X1XoX,X7X7XH.H.f.= * * * ; 4 4 4 4 4 4 4 4 4 4 4 uXMXMXMXMXMXbX4 4 a H I v.T A R I S S I U B D.H.H.",
"H.J.I.kX;X3X9X9XU.G.s.z.P.>XOXOX#X3X9XU.H.H.H...* * * , 4 4 4 4 4 4 4 4 4 4 4 n MXMXMXMXMXiX4 9 G A L T T P 2.4.%.T n.U % H.H.H.",
"H.H.A.7XS.z.7X7XI.f.s.<.0.oX@X,X1X3X<XH.H.H.H.g.4 * & > 4 4 4 4 4 4 4 4 4 4 4 < xXMXMXMXMXm 9 4 &.f P T &.X.y.C.4.v.n.U F H.H.H.",
"H.H.L.5XA.s.6XI.D.p.0.0.K.L.,X7X7X7XY.H.H.H.H.H.7.- & > 4 4 4 4 4 4 4 4 4 4 4 4 iXMXMXMXiX4 4 4 f.F P P G @.1.4.&.=.v.F S 9.8.5.",
"H.H.S.C.<.p.K.L.F.-.0.A.A.K.P.6X5Xj.H.H.H.H.H.H.H.&.= * 4 4 4 4 4 4 4 4 4 4 9 4 gXMXMXbXn 4 4 q 2.f L L P P h X.P *.T D % $ $ D.",
"H.H.g.@.<.C.L.u.D.;.$.B.0.s.C.S.H.H.H.H.H.H.H.H.H.F.a = , 4 4 4 4 4 4 4 4 4 4 9 bXMXMX] 4 4 4 V F I T &.P h h h G *.T S % $ 2.H.",
"H.H.H.4.0.0.s.g.7.H.H.H.J.Y.J.H.H.H.H.H.H.H.H.H.H.F.L C 7 < 4 9 4 4 4 4 4 4 4 tXMXnX{ 4 4 4 8 U U T =.%.R X.h Q P =.v.C $ F H.F.",
"H.H.H.H.3.$.f.M.H.D.3.#.i.,X,X1X<XH.H.H.H.H.H.H.H.F.F.D A Z q 9 4 4 4 4 4 4 m bXcXN 9 4 9 x B U E E =.=.1.1.X.P G v.U C B Z.H.H.",
"H.H.H.H.H.6.7.H.&.6.>.1.u.x.oXx.z.p.d.h.H.H.H.H.H.H.H.D.T F Z Y 4 4 4 9 9 n hXuX0 4 4 t 4.g.A S U v.C.M.:.#.&.P L G 8 V D.H.H.H.",
"H.H.H.H.j.n.M.b b ^ ..0.I.I.I.l.s.>.>.y.7.g.H.H.H.H.H.H.H.F.M.f.4 4 4 4 7 E 2.u 4 9 9 5.5.7.L C U E v.n.n.3.L G 8 8 R H.H.H.H.H.",
"H.H.H.H.H.Z.H.a.^ o.#.<.d.s.i.L.i.y.;.;.;.7.H.H.H.H.H.H.H.H.H.b 4 4 9 w S R 9.0 3 9 3 3 < 9 t T U U U E v.*.G Z G F.H.H.H.H.H.H.",
"H.H.H.H.6.H.H.H.g.@.-.-.A.L.s.u.y.0.:.h.F.H.H.H.H.H.H.H.H.H.g.4 4 4 4 x v ..9.J p u 9 9 9 9 p H.H.S B C Z D C I J.=.H.H.H.H.H.H.",
"H.H.H.f.D.H.H.H.H.H.Z.;.<.C.S.a.a.f.H.H.H.H.H.H.H.H.H.H.H.H.g.9 4 4 4 4 4 3 t H.H.H.g.4.3.4.H.H.9.a a B B H 2.H.F.a.4.H.H.H.H.H.",
"H.H.H.a.H.H.H.H.H.H.H.H.H.H.H.H.H.H.H.H.H.H.H.H.H.H.H.H.H.H.H.F.a.4.J y 9 u 3.H.H.H.H.H.H.H.H.H.5.5.9.F.H.H.H.H.H.H.4.D.H.H.H.H."
};
