/* XPM */
static char *result[] = {
/* columns rows colors chars-per-pixel */
"64 64 156 2 ",
"   c #000000",
".  c #0A0403",
"X  c #060B0C",
"o  c #150F0D",
"O  c #0F1111",
"+  c #141211",
"@  c #1B1715",
"#  c #1C1817",
"$  c #1D1D1D",
"%  c #2A0F00",
"&  c #24130B",
"*  c #351000",
"=  c #3A1800",
"-  c #3A1F0F",
";  c #261B16",
":  c #2D1A12",
">  c #201E1D",
",  c #2B201B",
"<  c #332017",
"1  c #3E2110",
"2  c #33221B",
"3  c #222425",
"4  c #2A2625",
"5  c #2D2826",
"6  c #262829",
"7  c #2A2A2B",
"8  c #362620",
"9  c #372923",
"0  c #3C2B24",
"q  c #332F2D",
"w  c #3C2F2A",
"e  c #363231",
"r  c #3C3533",
"t  c #401D01",
"y  c #442108",
"u  c #572700",
"i  c #562B09",
"p  c #462716",
"a  c #4E2B16",
"s  c #4B2C1C",
"d  c #553019",
"f  c #58331D",
"g  c #64330D",
"h  c #763A00",
"j  c #6C3C1D",
"k  c #422E26",
"l  c #4B3023",
"z  c #45332C",
"x  c #4B3329",
"c  c #553423",
"v  c #5E3722",
"b  c #5E3925",
"n  c #5C3C2C",
"m  c #433631",
"M  c #463934",
"N  c #4A3931",
"B  c #523D34",
"V  c #5B3E31",
"C  c #653B23",
"Z  c #6B3E24",
"A  c #794014",
"S  c #7B431E",
"D  c #5E4236",
"F  c #5C453C",
"G  c #6E4127",
"H  c #66402D",
"J  c #6C422B",
"K  c #734224",
"L  c #7A4523",
"P  c #73452B",
"I  c #7C4728",
"U  c #77482F",
"Y  c #7E4A2B",
"T  c #654232",
"R  c #6B4633",
"E  c #604438",
"W  c #6D4B3B",
"Q  c #714731",
"!  c #734933",
"~  c #7A4C34",
"^  c #7F5038",
"/  c #644B41",
"(  c #775242",
")  c #7B5443",
"_  c #7C5849",
"`  c #8E4400",
"'  c #834617",
"]  c #8A4916",
"[  c #88491C",
"{  c #904C14",
"}  c #924E1C",
"|  c #A85708",
" . c #A55715",
".. c #A65817",
"X. c #AB5A15",
"o. c #A5591E",
"O. c #AC5C1D",
"+. c #B45F13",
"@. c #B25E1C",
"#. c #B66016",
"$. c #B5611C",
"%. c #834A25",
"&. c #8B4D24",
"*. c #854D2B",
"=. c #8B4F29",
"-. c #8E522D",
";. c #945224",
":. c #9B5522",
">. c #9F5825",
",. c #95552D",
"<. c #9A572C",
"1. c #99582F",
"2. c #804E33",
"3. c #865133",
"4. c #8B5333",
"5. c #83543D",
"6. c #8A5538",
"7. c #955631",
"8. c #9C5B34",
"9. c #965B3A",
"0. c #9D5E3A",
"q. c #A55A23",
"w. c #AC5E25",
"e. c #A35B2B",
"r. c #AA5F2B",
"t. c #B05F23",
"y. c #A35E33",
"u. c #A25F38",
"i. c #9E603D",
"p. c #AD602B",
"a. c #B36224",
"s. c #B3632B",
"d. c #B8672F",
"f. c #A56036",
"g. c #AA6234",
"h. c #A3623C",
"j. c #AC653B",
"k. c #B26533",
"l. c #B06638",
"z. c #B56A3B",
"x. c #875841",
"c. c #885B45",
"v. c #825B4A",
"b. c #895E4B",
"n. c #935D41",
"m. c #9B6245",
"M. c #9E684D",
"N. c #A66540",
"B. c #AE6941",
"V. c #A16749",
"C. c #AA6B49",
"Z. c #B66D42",
"A. c #B26F4B",
"S. c #B87048",
"D. c #A87258",
"F. c #B97551",
/* pixels */
"#.#.#.#.#.#.#.#.#.#.#.#.#.#.#.#.#.#.#.#.#.#.#.F.#.#.#.#.#.#.#.#.#.#.#.#.#.#.#.#.#.#.#.#.#.#.#.#.#.#.#.#.#.#.#.#.#.#.#.#.#.#.#.#.",
"#.#.#.#.#.#.#.#.#.#.#.#.#.#.#.z.#.#.#.#.#.#.#.C.#.#.#.#.#.#.#.#.#.#.#.#.#.#.#.#.#.#.#.#.#.#.#.#.#.#.#.#.#.#.#.#.#.#.#.#.#.#.#.#.",
"#.#.#.#.#.#.#.#.#.#.#.#.#.#.#.r.#.#.#.#.#.#.#.) $.#.#.#.#.#.#.#.#.#.#.#.#.#.#.#.#.#.#.#.#.#.#.#.#.#.#.#.#.#.#.#.#.#.#.#.#.#.#.#.",
"#.#.#.#.#.#.#.#.#.#.#.#.#.#.#.k.[ #.#.#.#.#.e.  7.#.#.#.#.#.#.z.#.#.#.#.#.#.#.#.#.#.#.#.#.#.#.#.#.#.#.#.#.#.#.#.#.#.#.#.#.#.#.#.",
"#.#.#.#.#.#.#.#.#.#.#.#.#.#.#.#.E e.#.#.#.#.i   z #.#.#.#.#.e.y.#.#.#.#.#.#.#.#.#.#.#.#.#.#.#.#.#.#.#.#.#.#.#.#.#.#.#.#.#.#.#.#.",
"#.#.#.#.#.#.#.#.#.Z.#.#.#.#.#.#.n   ^ #.#.:.      p.#.#.a.c.N a.#.#.#.#.#.#.#.#.#.#.#.#.#.#.#.#.#.#.#.#.#.#.#.#.#.#.#.#.#.#.#.#.",
"#.#.#.#.#.#.#.#.#.r.s.#.#.#.#.#./     h.#.x.      e.#.B.l   [ #.#.#.#.#.#.#.#.#.#.#.#.#.#.#.#.#.#.#.#.#.#.#.#.#.#.#.#.#.#.#.#.#.",
"#.#.#.#.#.#.#.#.#.a.v.@.#.#.#.#.I     W +.7.      r.a.t   % s.+.#.#.#.#.#.#.#.#.#.#.#.#.#.#.#.#.#.#.#.#.#.#.#.#.#.#.#.#.#.#.#.#.",
"#.#.#.#.#.#.#.#.#.#.} 9 ! :.s.#.:.    + k.w.O   6 d.L     =.#.#.#.#.#.#.#.#.#.#.#.#.#.#.#.#.#.#.#.#.#.#.#.#.#.#.#.#.#.#.#.#.#.#.",
"#.#.#.#.#.#.#.#.#.#.d.V     b @.+.j     h.#.E   P #.8   N #.#.#.#.#.#.#.#.#.#.#.#.#.#.#.#.#.#.#.#.#.#.#.#.#.#.#.#.#.#.#.#.#.#.#.",
"#.#.#.#.#.#.#.#.#.#.#.q..     b k.O.y   f.#.%.@ O.A.    7.#.#.#.#.#.#.#.#.#.#.#.#.#.#.#.#.#.#.#.#.#.#.#.#.#.#.#.#.#.#.#.#.#.#.#.",
"#.#.#.#.#.#.+.+.#.#.#.#.%.      &.#.N.  g.#.,.C +.j.  : @.#.#.#.#.#.#.#.#.#.#.#.#.#.#.#.#.#.#.#.#.#.#.#.#.#.#.#.#.#.#.#.#.#.#.#.",
"#.#.#.#.#.#.#.@.i.#.#.#.+._     & w.#.V ] +.f.! #.k.  P #.#.#.#.#.#.#.#.#.#.#.#.#.#.#.#.#.#.#.#.#.#.#.#.#.#.#.#.#.#.#.#.#.#.#.#.",
"#.#.#.#.#.#.#.#.n.G j.#.#.+.q.f.j R #.7.k $.h.= #.y.  9.#.#.#.#.#.#.#.#.#.#.#.#.#.#.#.#.#.#.#.#.#.#.#.#.#.#.#.#.#.#.#.#.#.#.#.#.",
"#.#.#.#.#.#.#.#.#.;.. z B > Y #.#.Z 4.q.  %.K   S n   e.#.#.#.#.#.#.#.#.#.#.#.#.#.#.#.#.#.#.#.#.#.#.#.#.#.#.#.#.#.#.#.#.#.#.#.#.",
"#.#.#.#.#.#.#.#.#.#.>.w       2.#.k.9 H               r.#.#.#.#.#.#.#.#.#.#.#.#.#.#.#.#.#.#.#.#.#.#.#.#.#.#.#.#.#.#.#.#.#.#.#.#.",
"#.#.#.#.#.#.#.#.#.#.#.l.(     X g.+.x.                -.#.#.#.#.#.#.#.#.#.#.#.#.#.#.#.#.#.#.#.#.#.#.#.#.#.#.#.#.#.#.#.#.#.#.#.#.",
"#.#.#.#.#.#.#.#.#.#.#.#.#.q.J . / } T                 G #.#.#.#.#.#.#.#.#.#.#.#.#.#.#.#.#.#.#.#.#.#.#.#.#.#.#.#.#.#.#.#.#.#.#.#.",
"#.#.#.#.#.#.#.#.#.#.#.#.#.#.#.g.C                     m #.#.#.#.#.#.#.#.#.#.#.#.#.#.#.#.#.#.#.#.#.#.#.#.#.#.#.#.#.#.#.#.#.#.#.#.",
"#.#.#.#.#.#.#.#.#.#.#.#.#.#.#.#.+.Q                     w.#.#.#.#.#.#.#.#.#.#.#.#.#.#.#.#.#.#.#.#.#.#.#.#.#.#.#.#.#.#.#.#.#.#.#.",
"#.#.#.#.#.#.#.#.#.#.#.#.#.#.#.#.#.O.                    :.#.#.#.#.#.#.#.#.#.#.#.#.#.#.#.#.#.#.#.#.#.#.#.#.#.#.#.#.#.#.#.#.#.#.#.",
"#.#.#.#.#.#.#.#.#.#.#.#.#.#.#.#.#.+.e                   3.#.#.#.#.#.#.#.#.#.#.#.#.#.#.#.#.#.#.#.#.#.#.#.#.#.#.#.#.#.#.#.#.#.#.#.",
"#.#.#.#.#.#.#.#.#.#.#.#.#.#.#.#.#.#.n                   Q #.#.#.#.#.#.#.#.#.#.#.#.#.#.#.#.#.#.#.#.#.#.#.#.#.#.#.#.#.#.#.#.#.#.#.",
"#.#.#.#.#.#.#.#.#.#.#.#.#.#.#.#.#.#.U                   d #.#.#.#.#.#.#.#.#.#.#.#.#.#.#.#.#.#.#.#.#.#.#.#.#.#.#.#.#.#.#.#.#.#.#.",
"#.#.#.#.#.#.#.#.#.#.#.#.#.#.#.#.#.#.&.                  7 #.#.#.#.#.#.#.#.#.#.#.#.#.#.#.#.#.#.#.#.#.#.#.#.#.#.#.#.#.#.#.#.#.#.#.",
"#.#.#.#.#.#.#.#.#.#.#.#.#.#.#.#.#.#.y.                    z.#.#.#.#.#.#.#.#.#.#.#.#.#.#.#.#.#.#.#.#.#.#.#.#.#.#.#.#.#.#.#.#.#.#.",
"#.#.#.#.#.#.#.#.#.#.#.#.#.#.#.#.#.#.$.,                   r.#.#.#.#.#.#.#.#.#.#.#.#.#.#.#.#.#.#.#.#.#.#.#.#.#.#.#.#.#.#.#.#.#.#.",
"#.#.#.#.#.#.#.#.#.#.#.#.#.#.#.#.#.#.#.G                   ..#.#.#.#.#.#.#.#.#.#.#.#.#.#.#.#.#.#.#.#.#.#.#.#.#.#.#.#.#.#.#.#.#.#.",
"#.#.#.#.#.#.#.#.#.#.#.#.#.#.#.#.#.#.#.1.                  o.#.#.#.#.#.#.#.#.#.#.#.#.#.#.#.#.#.#.#.#.#.#.#.#.#.#.#.#.#.#.#.#.#.#.",
"#.#.#.#.#.#.#.#.#.#.#.#.#.#.#.#.#.#.#.s.w                 o.#.#.#.#.#.#.#.#.#.#.#.#.a.#.#.#.#.#.#.#.#.#.#.#.#.#.#.#.#.#.#.#.#.#.",
"#.#.#.#.#.#.#.#.#.#.#.#.#.#.#.#.#.#.#.#.&.                k.#.#.#.#.#.#.#.#.#.#.#.#.F.#.#.#.#.#.#.#.#.#.#.#.#.#.#.#.#.#.#.#.#.#.",
"#.#.#.#.#.#.#.#.#.#.#.#.#.#.#.#.#.#.#.#.k.z             < +.#.#.#.#.#.#.#.#.#.#.#.t.| #.#.#.#.#.#.#.#.#.#.#.#.#.#.#.#.#.#.#.#.#.",
"#.#.#.#.#.#.#.#.#.#.#.#.#.#.#.#.#.#.#.#.#.u.#           K #.#.#.#.z.+.+.#.#.#.#.@.4.0.#.#.#.#.#.#.#.S.#.#.#.#.#.#.#.#.#.#.#.#.#.",
"#.#.#.#.#.#.#.#.#.#.#.#.#.#.#.#.#.#.#.#.#.#.<.:       5 w.#.#.#.#.#.v.d.#.#.#.#.>.& K #.#.#.#.#.#.N.a.#.#.#.#.#.#.#.#.#.#.#.#.#.",
"#.#.#.#.#.#.#.#.#.#.#.#.#.#.#.#.#.#.#.#.#.#.#.w.' R G q.#.#.#.#.#.#.P J k.#.#.#./   $ s.#.#.#.+.8.h.#.#.#.#.#.#.#.#.#.#.#.#.#.#.",
"#.#.#.#.#.#.#.#.#.#.#.#.#.#.#.#.#.#.#.#.#.#.#.#.#.#.#.#.#.#.#.#.#.#.;.  f a.#.j.      7.#.#.k.3.e a.#.#.#.#.#.#.#.#.#.#.#.#.#.#.",
"#.#.#.#.#.#.#.#.#.#.#.#.#.#.#.#.#.#.#.#.#.#.#.#.#.#.#.#.#.#.#.#.#.#.s.$   Q #.h.      =.#.X.M   v #.#.#.#.#.#.#.#.#.#.#.#.#.#.#.",
"#.#.#.#.#.#.#.#.#.#.#.#.#.#.#.#.#.#.#.#.#.#.#.#.#.#.#.#.#.#.#.#.#.#.#.!     j.7.      y.#.g     ~ #.#.#.#.#.#.z.#.#.#.#.#.#.#.#.",
"#.#.#.#.#.#.#.#.#.#.#.#.#.#.#.#.#.#.#.#.#.#.#.#.#.#.#.#.#.#.#.#.#.#.#.8.    =.y.    b #.e.      y.#.#.#.#.#.e.X.#.#.#.#.#.#.#.#.",
"#.#.#.#.#.#.#.#.#.#.#.#.#.#.#.#.#.#.#.#.#.#.#.#.#.#.#.#.#.#.#.#.#.#.#.#.2   h +.0   8.#.K     R #.#.k.y.;.W n.#.#.#.#.#.#.#.#.#.",
"#.#.#.#.#.#.#.#.#.#.#.#.#.#.#.#.#.#.#.#.#.#.#.#.#.#.#.#.#.#.#.#.#.#.#.#.j   *.#.5.0 a.#.u   x k.+.6.q     ! #.#.#.#.#.#.#.#.#.#.",
"#.#.#.#.#.#.#.#.#.#.#.#.#.#.#.#.#.#.#.#.#.#.#.#.#.#.#.#.#.#.#.#.#.#.#.#.-.  V.#.7.K #.#.s f $.#.A       D +.#.#.#.#.#.#.#.#.#.#.",
"#.#.#.#.#.#.#.#.#.#.#.#.#.#.#.#.#.#.#.#.#.#.#.#.#.#.#.#.#.#.#.#.#.#.#.#.7.  D.#.P 9.#.f.& ..#.4.      p p.#.#.#.#.#.#.#.#.#.#.#.",
"#.#.#.#.#.#.#.#.#.#.#.#.#.#.#.#.#.#.#.#.#.#.#.#.#.#.#.#.#.#.#.#.#.#.#.#.M.  =.w.& N.$.a 2.#.8.X     T w.#.#.#.+.#.#.#.#.#.#.#.#.",
"#.#.#.#.#.#.#.#.#.#.#.#.#.#.#.#.#.#.#.#.#.#.#.#.#.#.#.#.#.#.#.#.#.#.#.#.-.  7 *   ~ ! . j...1 <.z. .#.@.#.#.k.6.a.#.#.#.#.#.#.#.",
"#.#.#.#.#.#.#.#.#.#.#.#.#.#.#.#.#.#.#.#.#.#.#.#.#.#.#.#.#.#.#.#.#.#.#.#.R             > 9.- h.#.j.W d ~ b.R F r.#.#.#.#.#.#.#.#.",
"#.#.#.#.#.#.#.#.#.#.#.#.#.#.#.#.#.#.#.#.#.#.#.#.#.#.#.#.#.#.#.#.#.#.#.g..                 i.#.j.2       6 2.+.#.#.#.#.#.#.#.#.#.",
"#.#.#.#.#.#.#.#.#.#.#.#.#.#.#.#.#.#.#.#.#.#.#.#.#.#.#.#.#.#.#.#.#.#.#.6.                X a.$.c     o ~ ..#.#.#.#.#.#.#.#.#.#.#.",
"#.#.#.#.#.#.#.#.#.#.#.#.#.#.#.#.#.#.#.#.#.#.#.#.#.#.#.#.#.#.#.#.#.#.#.p                   4 r 3 C ,.O.#.#.#.#.#.#.#.#.#.#.#.#.#.",
"#.#.#.#.#.#.#.#.#.#.#.#.#.#.#.#.#.#.#.#.#.#.#.#.#.#.#.#.#.#.#.#.#.#.N.                    @ 6.a.#.#.#.#.#.#.#.#.#.#.#.#.#.#.#.#.",
"#.#.#.#.#.#.#.#.#.#.#.#.#.#.#.#.#.#.#.#.#.#.#.#.#.#.#.#.#.#.#.#.#.#.%.                    ,.#.#.#.#.#.#.#.#.#.#.#.#.#.#.#.#.#.#.",
"#.#.#.#.#.#.#.#.#.#.#.#.#.#.#.#.#.#.#.#.#.#.#.#.#.#.#.#.#.#.#.#.#.#.N                   z #.#.#.#.#.#.#.#.#.#.#.#.#.#.#.#.#.#.#.",
"#.#.#.#.#.#.#.#.#.#.#.#.#.#.#.#.#.#.#.#.#.#.#.#.#.#.#.#.#.#.#.#.#.B.                    P #.#.#.#.#.#.#.#.#.#.#.#.#.#.#.#.#.#.#.",
"#.#.#.#.#.#.#.#.#.#.#.#.#.#.#.#.#.#.#.#.#.#.#.#.#.#.#.#.#.#.#.#.#.&.                    :.#.#.#.#.#.#.#.#.#.#.#.#.#.#.#.#.#.#.#.",
"#.#.#.#.#.#.#.#.#.#.#.#.#.#.#.#.#.#.#.#.#.#.#.#.#.#.#.#.#.#.#.#.#.G                   4 @.#.#.#.#.#.#.#.#.#.#.#.#.#.#.#.#.#.#.#.",
"#.#.#.#.#.#.#.#.#.#.#.#.#.#.#.#.#.#.#.#.#.#.#.#.#.#.#.#.#.#.#.#.#.N                   j #.#.#.#.#.#.#.#.#.#.#.#.#.#.#.#.#.#.#.#.",
"#.#.#.#.#.#.#.#.#.#.#.#.#.#.#.#.#.#.#.#.#.#.#.#.#.#.#.#.#.#.#.#.s.                    e.+.#.#.#.#.#.#.#.#.#.#.#.#.#.#.#.#.#.#.#.",
"#.#.#.#.#.#.#.#.#.#.#.#.#.#.#.#.#.#.#.#.#.#.#.#.#.#.#.#.#.#.#.#.q.                  n #.#.#.#.#.#.#.#.#.#.#.#.#.#.#.#.#.#.#.#.#.",
"#.#.#.#.#.#.#.#.#.#.#.#.#.#.#.#.#.#.#.#.#.#.#.#.#.#.#.#.#.#.#.#.m.                  8.#.#.#.#.#.#.#.#.#.#.#.#.#.#.#.#.#.#.#.#.#.",
"#.#.#.#.#.#.#.#.#.#.#.#.#.#.#.#.#.#.#.#.#.#.#.#.#.#.#.#.#.#.#.#.`                 b a.#.#.#.#.#.#.#.#.#.#.#.#.#.#.#.#.#.#.#.#.#.",
"#.#.#.#.#.#.#.#.#.#.#.#.#.#.#.#.#.#.#.#.#.#.#.#.#.#.#.#.#.#.#.#.0.              ; | #.#.#.#.#.#.#.#.#.#.#.#.#.#.#.#.#.#.#.#.#.#.",
"#.#.#.#.#.#.#.#.#.#.#.#.#.#.#.#.#.#.#.#.#.#.#.#.#.#.#.#.#.#.#.#.j.              ,.#.#.#.#.#.#.#.#.#.#.#.#.#.#.#.#.#.#.#.#.#.#.#.",
"#.#.#.#.#.#.#.#.#.#.#.#.#.#.#.#.#.#.#.#.#.#.#.#.#.#.#.#.#.#.#.#.#.n         6 { #.#.#.#.#.#.#.#.#.#.#.#.#.#.#.#.#.#.#.#.#.#.#.#.",
"#.#.#.#.#.#.#.#.#.#.#.#.#.#.#.#.#.#.#.#.#.#.#.#.#.#.#.#.#.#.#.#.#.w.R + e J g.#.#.#.#.#.#.#.#.#.#.#.#.#.#.#.#.#.#.#.#.#.#.#.#.#."
};
