/* XPM */
static char *result[] = {
/* columns rows colors chars-per-pixel */
"64 64 247 2 ",
"   c #100F0C",
".  c #1A1914",
"X  c #271F17",
"o  c #25231B",
"O  c #2D241A",
"+  c #29261D",
"@  c #38281A",
"#  c #2D2B22",
"$  c #312F25",
"%  c #343227",
"&  c #363429",
"*  c #39362A",
"=  c #3D3A2E",
"-  c #4B2C15",
";  c #582E16",
":  c #4D321E",
">  c #5B3318",
",  c #683617",
"<  c #753A17",
"1  c #7A3B16",
"2  c #753918",
"3  c #403B2D",
"4  c #503A26",
"5  c #623E24",
"6  c #75421B",
"7  c #7A4519",
"8  c #664328",
"9  c #7B4A23",
"0  c #7B5B2B",
"q  c #7A6428",
"w  c #843E18",
"e  c #863E18",
"r  c #894717",
"t  c #85441B",
"y  c #8C431A",
"u  c #93451B",
"i  c #954A18",
"p  c #954C1C",
"a  c #9B4B1D",
"s  c #8B511F",
"d  c #995217",
"f  c #9C531D",
"g  c #A34D1E",
"h  c #AA4F1F",
"j  c #A35416",
"k  c #AC5A16",
"l  c #A4541A",
"z  c #AB541C",
"x  c #A65818",
"c  c #AE5B1B",
"v  c #B45E16",
"b  c #B35C1B",
"n  c #B75A1D",
"m  c #B66016",
"M  c #B86117",
"N  c #B5641C",
"B  c #BC621A",
"V  c #BD6A1E",
"C  c #844B23",
"Z  c #994E22",
"A  c #8C5926",
"S  c #945422",
"D  c #9E5321",
"F  c #995B24",
"G  c #945C33",
"H  c #A45421",
"J  c #AC5421",
"K  c #A55C24",
"L  c #AC5B23",
"P  c #A35929",
"I  c #B45521",
"U  c #B95622",
"Y  c #B55B23",
"T  c #BC5B23",
"R  c #9D6528",
"E  c #99752D",
"W  c #987132",
"Q  c #A76728",
"!  c #B36425",
"~  c #BB6426",
"^  c #B36C2B",
"/  c #B86828",
"(  c #BC6B2A",
")  c #A7782E",
"_  c #BA762A",
"`  c #BE742B",
"'  c #AA6435",
"]  c #B66634",
"[  c #AB7A35",
"{  c #B67835",
"}  c #BC7C32",
"|  c #C3631D",
" . c #C9661E",
".. c #C36A1E",
"X. c #C35D24",
"o. c #C95E25",
"O. c #C46225",
"+. c #CC6424",
"@. c #C36C23",
"#. c #CC6B23",
"$. c #C26629",
"%. c #CC6629",
"&. c #C46B2A",
"*. c #CB6B2A",
"=. c #D26326",
"-. c #D36B25",
";. c #D76628",
":. c #D46B2A",
">. c #DB6B29",
",. c #C37324",
"<. c #CB7324",
"1. c #C47C26",
"2. c #C3732D",
"3. c #CC742C",
"4. c #C57A2F",
"5. c #CC7A2D",
"6. c #D37426",
"7. c #D57827",
"8. c #D3742C",
"9. c #DC742D",
"0. c #D67A2E",
"q. c #DC7C2C",
"w. c #CB6D3D",
"e. c #C27D33",
"r. c #CD7C32",
"t. c #C57638",
"y. c #D37D31",
"u. c #DC7C31",
"i. c #D67A3C",
"p. c #E46D26",
"a. c #E36D2A",
"s. c #E4742C",
"d. c #EA752C",
"f. c #E47C2E",
"g. c #F1762D",
"h. c #E27D31",
"j. c #EA7C35",
"k. c #F37C31",
"l. c #B76842",
"z. c #B77947",
"x. c #C97A45",
"c. c #948238",
"v. c #A68535",
"b. c #B08733",
"n. c #B98736",
"m. c #B8943B",
"M. c #C9842D",
"N. c #D5852E",
"B. c #C38434",
"V. c #CB8433",
"C. c #C78A39",
"Z. c #D48333",
"A. c #DB8333",
"S. c #D48B33",
"D. c #DB8B35",
"F. c #D6833A",
"G. c #D48D3B",
"H. c #DC8D39",
"J. c #C9963B",
"K. c #D89636",
"L. c #D5923B",
"P. c #DC943B",
"I. c #D39A3E",
"U. c #DB9B3C",
"Y. c #E6822F",
"T. c #E38333",
"R. c #EB8333",
"E. c #E48A35",
"W. c #EB8C36",
"Q. c #E68339",
"!. c #E48D3A",
"~. c #EC8D3A",
"^. c #F38434",
"/. c #F38A36",
"(. c #FA8C38",
"). c #E4923A",
"_. c #EB9239",
"`. c #E39B3D",
"'. c #EB9B3C",
"]. c #F29137",
"[. c #F49339",
"{. c #FB9339",
"}. c #F49B3D",
"|. c #FD9B3D",
" X c #CBA23F",
".X c #D6A33D",
"XX c #E7A23E",
"oX c #F5A23F",
"OX c #AC8545",
"+X c #B58A48",
"@X c #B89843",
"#X c #BEA547",
"$X c #C98B47",
"%X c #D88B44",
"&X c #C89647",
"*X c #D99946",
"=X c #D08E53",
"-X c #C69657",
";X c #D69654",
":X c #E49846",
">X c #EB9D42",
",X c #EC944B",
"<X c #F59842",
"1X c #C9A444",
"2X c #D8A847",
"3X c #D9B54A",
"4X c #CCAB57",
"5X c #DAA755",
"6X c #DAB855",
"7X c #E3A543",
"8X c #EBA443",
"9X c #E5AC44",
"0X c #ECAA43",
"qX c #E6A74B",
"wX c #EBAA4B",
"eX c #F4A541",
"rX c #F5AC45",
"tX c #F6A749",
"yX c #E7B549",
"uX c #ECBA4C",
"iX c #F3B34B",
"pX c #FBB84A",
"aX c #E6AA56",
"sX c #F4AA53",
"dX c #E8BA56",
"fX c #F5B855",
"gX c #C99D62",
"hX c #E09073",
"jX c #D3AB61",
"kX c #D1B76F",
"lX c #E9B369",
"zX c #DEC253",
"xX c #E7C14D",
"cX c #FAC34D",
"vX c #E9C553",
"bX c #F6C755",
"nX c #ECD85C",
"mX c #F5D45A",
"MX c #F1E55F",
"NX c #DDC26C",
"BX c #E8C967",
"VX c #F9D965",
"CX c #F4D670",
"ZX c #FDED67",
"AX c #F8EE76",
"SX c #EBD981",
"DX c #F2E38B",
/* pixels */
"m m m m m m m m m m m m m m m m m m m m m m m .XxXM m m m m m v m m m m m m m m m ..m m m m m m m m m m m m m m m m m m m m m m ",
"m m m m m m m m m m m m m m m m m m m m m m m m .XN m m m m m | m m v v m m `.m p.d.m m m m m m m m m m m m m m m m m m m m m m ",
"m m m m m m m m m m m m m m m m m m m m m v v -.yX..m m x j c m m v m | m m oX<.5.m m v m m m m m m m m m m m m m m m m m m m m ",
"m m m m m m m m m m m m m m m m m m q.m ..v ~ .. XN.m 3XJ.R ) N m ..z n Y.A.wX}.|...m 3XM.S.N.m m m m m m m m m m m m m m m m m ",
"m m m m m m m m m m m m m m m m m m 6. .(.m O.h.#.! z.$Xc.G.Q ..v ..! :.O.'.AX2XrXp.6.I.jXsXN.m m m m m m m m m m m m m m m m m ",
"m m m m m m m m m m m m 1.m m m m m m 9.R.b $.9.Y Z.O.L.J.#Xh l i , ! Q.+XtXwXbX8Xk.{.pXsXY.<.m m m m m m m m m m m m m m m m m ",
"m m m m m m m m m m m m S..Xq.m m m m q.sX8XDXj.R.9X!.>X&Xs K < 1 1 V.yXVX>XR.*.BX,X(.^.<X{.f.*.m m m m m m m m m m m m m m m m ",
"m m m m m m m m m m m V ,._ vXB | m <.pXBXCXSXe.^ 9.9.qX_ &.K 6 0 =.&.h.0XtX}.>XE.A.tX|.k.<XbX2X` m m m m m m m m m m m m m m m ",
"m m m m m m m m m m m V E.}.pX^.W.S.pXpXmXpXVXbX6X}.y.~.D.j.K &X6X9.rX9.*.!.k.VXaX=.}.'.^.qXdXE.7XN l m m m m m m m m m m m m m ",
"m m m m m m m m m m m m f.|.oX(.#.(.oXyX<XcXcXVXvX{ A zXuX#.t K G.G.1X3.*.iXx.tXcXuXrXW.[.fX'.w.:X,.m m m m m m m m m m m m m m ",
"m m m m m m m m m m m M -.^.{.cXAX/.vX*X}.vX_./.&XR.wX;.s.tXQ ~ W ' } } h./.=XR.rXyX>XJ <XfXVXQ.S.,.n 6.p.m m m m m m m m m m m ",
"m m m m m m m m m m m m $.0.`._.:XaXZXZX>XpXpX).XX).5X^ y t D g ] +X6X&XO.2.!.'.!.*X5XqX{ _.VX%X .-.v P.<.m m m m m m m m m m m ",
"m m m m m m m m m m b x p 0.Z.].pXpXVXmX/.mXrXR.!.4XaXvXI.r.~ w u a y u.D [ / 2XuX3XuX,X%X2XoXK.} -.c B v m m m m m m m m m m m ",
"m m m m m m m m m ..vXS.*.9.A.C.0XpXj.8.X.uXq.I.fXV.iX} q.5XH X.Q T ^ T &.3X&XZ y.<XlXl.~ ( ).B.q.).E  .9.<.m m m m m m m m m m ",
"m m m m m m m m m N iXXX3.:.T V.V.u.}.h.>.].#.L.xX0X3.eXQ $X} i.P.%.v.S.L r.r.r.o.F.3.2.U &.A.W.k.`.*.uX^.7.v m m m m m m m m m ",
"m m m m m m m m m q.<XC.&XS.=.[.9.=.'.!.+.j.j.%XC.T.<XuXqXz z.S ( 8.h h./ ].[.[.Q.wX5X3.g Y ` 3.R.-.^.iXT s.j m m m m m m m m m ",
"m m m m m m m m m  .tXBXy.'.:.^.9.a.5.*.T V.s.$.z.h.I.L.&X$X=XV.( y.p F.O.y.` r.hX@X6Xt.o.u.+.H 7XW.].E.:.s./ J.m m m m m m m m ",
"m m m m m m m m m m &.L ~ B.:XR.-.o.T.j.a.>.s.u ' X.5XwXn.T 8.Q 3.a y Q @XQ *X!.T jX$Xx.T +Xe ;.8XE.T.8XpXd.U.NXm m m m m m m m ",
"m m m m m m m m m m k U I C.).f.P.U Y f.7X0.y T Z.:.T ( Q U 3.Q [ D e -.{ x.! x.x.i.aXW jX=Xs.u.yX>Xj.2XfXi.N.&Xm m m m m m m m ",
"m m m m m m m z m m c B 8.y.y.L.2Xf I.yX).Q r _ &.:.S v.&., 2 ^ uX2X&.S ` OXi.%X&Xh A.7 2XgXK.+./.k.<XsX-XaXXXV m m m m m m m m ",
"m m m m m m m v | v k b >.X.kXkXZ.} S.Z.=.( , ) e.G.Z.[ &._ , / S.Y ( ( b.+X$X).1XU I ( G kX4X XA.u.d.{.BXm B B v j b v m m m m ",
"m m m m m m m m 6.O.c ! g d.+XCX:X~.kX*X|.0.A ^ f ] A.S p e u S.U $.uXI.r.J $.} P (  Xz.2 z b.B.&.I 2.VXVX9X^.| n a v k m m m m ",
"m m m m m m m m  .n '.N B.J R }.2.T.CXaX{.=.8.5.g 2 X., g ~.t u w z Q ` e.t.~ ] F.2.B.F h Q V.n vX4.` *.:Xh.T ~ T l z c m m m m ",
"m m m m m m m m | ! bXL.;Xr.) 2X%XW.NX,X>.x n L s.( 1 a a S 6 , a :.O.Q t.] 5XkXx.y.I.C a m.E ( 8.L.O.u ^ b +.8.&.a b v m m m m ",
"m m m m m m k k ..M.VX&X[ ;XqXC.tX5.H.h.0X^.).O.g.@., 1 9 _ ! p e u z J.C.{ V.uXL.3.{ 1 u A Q u.Q.V.sXd.=.a :.:.X.;.-.7.D.V m m ",
"m m m m m m j r Q E.)._ t.' Z.} ! [ L.;.'.Z.f.b l B r e F R < _ e yXt :X-Xt.' *.%.*.6 ( J y y Z.S.].E.s.s.u.T.`.~ =. .v m m m m ",
"m m m m m m | Z.b.3.K &.Q.r.:Xy.} K n.-XO.l f l t &.c 1 q c.kXjXf g ;.) :X[ g -XZ.6XZ p u.D J s.u.$X&.D.!.h.eXT.k n X.m m m m m ",
"m m m m v v v p.h a.e 8.J nX~ gX{ *X&.H 2 i b z r G.;.y A 9 m.) e g ! 3.f v.f z.O.p z.&X6XI.Q ~.iX{.0.G.H.>.:.H. .k m m m m m m ",
"m m m m m m m x a a , 9.! @XOXA B.@X3X3XL I S.n.r &XT , m.! F 6 2XX.) a v.p %Xt H b.( E yX2XdX6XfXW.O.$.%.-.(.[.:.a.| m m m m m ",
"m m m m m k 1.rX! :.~ J J t Z H 1X~ zXiXn.3X.Xn.t t X.u 7 { Y D I.8.) K t p 2X^ 8.h *XJ.P.3XY ,X:XP.Z.>X9.eX/.h.9.d.+.m m m m m ",
"m m m m | k V.Z.U.Y 9.X.I h ~ :X( Y :.0Xr.z 2 J.a { s e e ) d t Z.y '.2 e p Q ^ -.T &X%.e.` G.8.xXV.<XmX|.fXu.s._.d.b v m m m m ",
"m m ..5.n -.6.f.O.u.:.$.*XG.g.l.] gXZ $XU T B.b.y 1 r < r r O H a./ K > ) q.a ~ Z.X.L Z.K / &.*XP.D.~.;X3XyXA.6.p.k.k m m m m m ",
"m m  .rXf.<X!.R.>.;.>XgXH.U.).0.&.9Xa J +.>.T X.r , p , k k > , C C.Z 5 ( $.} V.$.U ( G.qX7XS.nXyX2X).iXlXVX).O.B ..m m m m m m ",
"m m m W.s.sXtX*X;X,X~.^ 9.yXG.8.).9.&.L *.*.Y N j d 7 @ d m r r P pXF g h I ( e.O.H.y L.rXJ I  X3XS >X*XBX2X6.-...m m v m m m m ",
"m m m ..O.y.iXBXCXq.dX;XtXcXoXA.8.U *.L a ; , > o.B m 7 7 m k o @ u.Z X.z 3.V.$.4.( g 3.XXW.E.a xX1XO.U 8.A.j.,X6X6XM N m m m m ",
"m m m +.*.%Xj.!.r.r.-XDX!.{.r.0.h.;X;.i 7 a 2 E ; . - 7 o x m > o > C U a a 2 > Z.S e 2.r.uX3.:.e.E.tXe.=.>.x.O.1X` M M m m m m ",
"m m | 9.U.b /.{._.:.5XDX}.oXeX(.`.;X*.k B 6.m c b.r -   . , M 7 o ; ; j y t 7 y u e ^ $.C.p Z.S.0X3.T >Xs.n E.Q.| m m m m m m m ",
"m m m ,.dXF.E.q.N.D.Q ;X4.P.dX{.bXoXD.| q.<.S.x v v m , @ O 6 6 o O d : t M j a i g `.W.m.Q 6.( uXU Z.'.! ~ A t.Q ^ _ m m m m m ",
"m m m #.[ $Xm m N -.U m B C.dXcXpXpXN.v k m /.j v m m m - @ o + o . 6 , m m v l k i ~ g u r.E.i 2Xr.9Xe.S u.X.Z 2.dX2Xb m m m m ",
"m m m -.#.| m 6X6XC.B m m G.fXaX3XrX8.&.n.| f.v v m m m k O + o X @ + j m m m v 6.~ +.z z MXbX<./ S.J.E.H.y.V.y.<Xu.k m m m m m ",
"m m m m | M m m N K.m m m N G.I.AXJ.r.B._ V | m m m m m m r o +   O > m m m m m 6.oX=.p.m V .XW.2.0XeX`.R.q.J.J.mX>Xi m m m m m ",
"m m m m m m m m m K.m m m m m _ vXn m m M m m m m m m m m m - + . o r m m m m m N Y.-.v m m 1.]._.q.).XX( f..XE.M.rXv m m m m m ",
"m m m m m m m m m m m m m m B p.h.T.m m m m m m m m m m m m d o + O m m m m m m m  .| v m m m ..U.( s.oX.X6.z s.| ,.m m m m m m ",
"m m m m m m m m m m m m m m M p.0.].m m m m m m m m m m m m d + + 6 m m m m m m m m M v m m m m e.+.{.4.A.&.v s.m m m m m m m m ",
"m m m m m m m m m m m m m m  .d.M M m m m m m m m m m m m m 7 o $ 9 m m m m m m m m m m m m m m XXoX).~ 9.-.v m m m m m m m m m ",
"m m m m m m m m m m m m m m m M M m m m m m m m m m m m m N 7 o $ 5 m m m m m m m m m m m m m m Z.S.7.g.g.>.m m m m m m m m m m ",
"m m m m m m m m m m m m m m m m m m m m m m m m m m m m m m > o $ 5 m m m m m m m m m m m m m m m N...N.W.9.m m m m m m m m m m ",
"m m m m m m m m m m m m m m m m m m m m m m m m m m m m m m > + $ 5 m m m m m m m m m m m m m m m ,.S.V 7...m m m m m m m m m m ",
"m m m m m m m m m m m m m m m m m m m m m m m m m m m m m m @ + % 8 m m m m m m m m m m m m m m m m m m m m m m m m m m m m m m ",
"m m m m m m m m m m m m m m m m m m m m m m m m m m m m m m > + & 8 m m m m m m m m m m m m m m m m m m m m m m m m m m m m m m ",
"m m m m m m m m m m m m m m m m m m m m m m m m m m m m m m > o * 9 m m m m m m m m m m m m m m m m m m m m m m m m m m m m m m ",
"m m m m m m m m m m m m m m m m m m m m m m m m m m m m N N : + * 7 m m m m m m m m m m m m m m m m m m m m m m m m m m m m m m ",
"m m m m m m m m m m m m m m m m m m m m m m m m m m m m m x + % = 8 M M m m m m m m m m m m m m m m m m m m m m m m m m m m m m ",
"m m m m m m m m m m m m m m m m m m m m m m m m m m m m m r . % = = m m m m m m m m m m m m m m m m m m m m m m m m m m m m m m ",
"m m m m m m m m m m m m m m m m m m m m m m m m m m m m m , o * = % x m m m m m m m m m m m m m m m m m m m m m m m m m m m m m ",
"m m m m m m m m m m m m m m m m m m m m m m m m m m m m m > + * = % d m m m m m m m m m m m m m m m m m m m m m m m m m m m m m ",
"m m m m m m m m m m m m m m m m m m m m m m m m m m m m N @ % = = & S N m m m m m m m m m m m m m m m m m m m m m m m m m m m m ",
"m m m m m m m m m m m m m m m m m m m m m m m m m m m m m # * = = % C m m m m m m m m m m m m m m m m m m m m m m m m m m m m m ",
"m m m m m m m m m m m m m m m m m m m m m m m m m m m m m 4 = = = * 7 m m m m m m m m m m m m m m m m m m m m m m m m m m m m m ",
"m m m m m m m m m m m m m m m m m m m m m m m m m m m m m 9 = * 3 * f B m m m m m m m m m m m m m m m m m m m m m m m m m m m m ",
"m m m m m m m m m m m m m m m m m m m m m m m m m m m m m 9 = = 3 % k m m m m m m m m m m m m m m m m m m m m m m m m m m m m m ",
"m m m m m m m m m m m m m m m m m m m m m m m m m m m m N 5 * * = % x m m m m m m m m m m m m m m m m m m m m m m m m m m m m m ",
"m m m m m m m m m m m m m m m m m m m m m m m m m m m m v * * * * $ s m m m m m m m m m m m m m m m m m m m m m m m m m m m m m ",
"m m m m m m m m m m m m m m m m m m m m m m m m m m m m x * * % * # 6 m m m m m m m m m m m m m m m m m m m m m m m m m m m m m "
};
